<svg width="984" height="533" viewBox="0 0 984 533" fill="none" xmlns="http://www.w3.org/2000/svg">
<g filter="url(#filter0_d_73:30386)">
<rect x="4" width="976" height="525" fill="white"/>
</g>
<path d="M75.125 318V316.875H76.25V315.75H77.375V314.625H78.5V313.5H79.625V312.375H78.5V311.25H77.375V310.125H76.25V309H75.125V307.875H77.375V309H78.5V310.125H79.625V311.25H80.75V312.375H81.875V313.5H80.75V314.625H79.625V315.75H78.5V316.875H77.375V318H75.125ZM105.5 320.25H103.25V313.5H101V312.375H103.25V305.625H105.5V320.25ZM108.875 320.25H106.625V305.625H108.875V320.25ZM96.5 316.875H97.625V307.875H93.125V306.75H99.875V316.875H98.75V318H97.625V319.125H94.25V318H96.5V316.875ZM125.75 320.25H123.5V305.625H125.75V320.25ZM117.875 318H116.75V316.875H114.5V318H113.375V319.125H111.125V318H112.25V316.875H113.375V315.75H114.5V306.75H116.75V315.75H117.875V316.875H119V318H120.125V319.125H117.875V318ZM130.25 306.75H129.125V305.625H138.125V306.75H137V312.375H138.125V313.5H129.125V312.375H130.25V306.75ZM142.625 309H146V310.125H142.625V313.5H140.375V305.625H142.625V309ZM134.75 306.75H132.5V312.375H134.75V306.75ZM132.5 319.125H142.625V320.25H131.375V319.125H130.25V314.625H132.5V319.125Z" fill="black"/>
<path d="M693.75 22.125V23.25H694.875V30H692.625V23.25H690.375V30H688.125V19.875H690.375V22.125H693.75ZM700.5 19.875V22.125H703.875V23.25H700.5V28.875H703.875V30H699.375V28.875H698.25V23.25H697.125V22.125H698.25V19.875H700.5ZM709.5 19.875V22.125H712.875V23.25H709.5V28.875H712.875V30H708.375V28.875H707.25V23.25H706.125V22.125H707.25V19.875H709.5ZM721.875 23.25V28.875H720.75V30H717.375V33.375H715.125V22.125H720.75V23.25H721.875ZM719.625 23.25H717.375V28.875H719.625V23.25ZM726.375 24.375V22.125H729.75V24.375H726.375ZM726.375 30V27.75H729.75V30H726.375ZM733.125 31.125V28.875H734.25V26.625H735.375V24.375H736.5V22.125H737.625V19.875H739.875V22.125H738.75V24.375H737.625V26.625H736.5V28.875H735.375V31.125H733.125ZM742.125 31.125V28.875H743.25V26.625H744.375V24.375H745.5V22.125H746.625V19.875H748.875V22.125H747.75V24.375H746.625V26.625H745.5V28.875H744.375V31.125H742.125ZM753.375 22.125V27.75H754.5V30H752.25V27.75H751.125V22.125H753.375ZM756.75 22.125H759V27.75H757.875V30H755.625V27.75H756.75V22.125ZM754.5 23.25H755.625V27.75H754.5V23.25ZM762.375 22.125V27.75H763.5V30H761.25V27.75H760.125V22.125H762.375ZM765.75 22.125H768V27.75H766.875V30H764.625V27.75H765.75V22.125ZM763.5 23.25H764.625V27.75H763.5V23.25ZM771.375 22.125V27.75H772.5V30H770.25V27.75H769.125V22.125H771.375ZM774.75 22.125H777V27.75H775.875V30H773.625V27.75H774.75V22.125ZM772.5 23.25H773.625V27.75H772.5V23.25ZM780.375 30V27.75H783.75V30H780.375ZM787.125 28.875V23.25H788.25V22.125H793.875V32.25H792.75V33.375H787.125V32.25H791.625V30H788.25V28.875H787.125ZM791.625 23.25H789.375V28.875H791.625V23.25ZM797.25 23.25V22.125H801.75V23.25H802.875V26.625H798.375V28.875H801.75V30H797.25V28.875H796.125V23.25H797.25ZM800.625 23.25H798.375V25.5H800.625V23.25ZM811.875 23.25V30H809.625V23.25H807.375V30H805.125V22.125H810.75V23.25H811.875ZM815.25 23.25V22.125H819.75V23.25H820.875V26.625H816.375V28.875H819.75V30H815.25V28.875H814.125V23.25H815.25ZM818.625 23.25H816.375V25.5H818.625V23.25ZM823.125 25.5V23.25H824.25V22.125H829.875V23.25H825.375V25.5H828.75V26.625H829.875V28.875H828.75V30H823.125V28.875H827.625V26.625H824.25V25.5H823.125ZM834.375 32.25V31.125H835.5V30H833.25V28.875H832.125V22.125H834.375V28.875H836.625V22.125H838.875V28.875H837.75V31.125H836.625V32.25H835.5V33.375H831V32.25H834.375ZM841.125 25.5V23.25H842.25V22.125H847.875V23.25H843.375V25.5H846.75V26.625H847.875V28.875H846.75V30H841.125V28.875H845.625V26.625H842.25V25.5H841.125ZM852.375 21V19.875H856.875V21H853.5V24.375H856.875V25.5H853.5V30H851.25V25.5H850.125V24.375H851.25V21H852.375ZM865.875 22.125V30H860.25V28.875H859.125V22.125H861.375V28.875H863.625V22.125H865.875ZM874.875 23.25V30H872.625V23.25H870.375V30H868.125V22.125H873.75V23.25H874.875ZM882.75 22.125V23.25H883.875V24.375H881.625V23.25H879.375V28.875H881.625V27.75H883.875V28.875H882.75V30H878.25V28.875H877.125V23.25H878.25V22.125H882.75ZM889.5 19.875V22.125H892.875V23.25H889.5V28.875H892.875V30H888.375V28.875H887.25V23.25H886.125V22.125H887.25V19.875H889.5ZM897.375 21V18.75H899.625V21H897.375ZM901.875 28.875V30H895.125V28.875H897.375V23.25H895.125V22.125H899.625V28.875H901.875ZM909.75 22.125V23.25H910.875V28.875H909.75V30H905.25V28.875H904.125V23.25H905.25V22.125H909.75ZM908.625 23.25H906.375V28.875H908.625V23.25ZM919.875 23.25V30H917.625V23.25H915.375V30H913.125V22.125H918.75V23.25H919.875ZM924.375 30V27.75H927.75V30H924.375ZM936.75 22.125V23.25H937.875V24.375H935.625V23.25H933.375V28.875H935.625V27.75H937.875V28.875H936.75V30H932.25V28.875H931.125V23.25H932.25V22.125H936.75ZM945.75 22.125V23.25H946.875V28.875H945.75V30H941.25V28.875H940.125V23.25H941.25V22.125H945.75ZM944.625 23.25H942.375V28.875H944.625V23.25ZM949.125 30V22.125H955.875V23.25H957V30H954.75V23.25H953.625V28.875H952.5V23.25H951.375V30H949.125Z" fill="black"/>
<path d="M8.728 59.578C11.368 60.55 13.18 61.396 14.164 62.116C14.668 62.476 14.92 62.926 14.92 63.466C14.92 63.994 14.722 64.426 14.326 64.762C12.802 66.07 11.356 67.636 9.988 69.46C9.724 69.82 9.508 70 9.34 70C8.98 70 8.8 69.82 8.8 69.46C8.8 69.304 8.914 69.076 9.142 68.776C10.486 66.976 11.932 65.416 13.48 64.096C13.72 63.892 13.84 63.7 13.84 63.52C13.84 63.34 13.72 63.16 13.48 62.98C12.556 62.332 10.816 61.528 8.26 60.568C7.9 60.436 7.72 60.244 7.72 59.992C7.72 59.632 7.888 59.452 8.224 59.452C8.332 59.452 8.5 59.494 8.728 59.578ZM17.3764 59.578C20.0164 60.55 21.8284 61.396 22.8124 62.116C23.3164 62.476 23.5684 62.926 23.5684 63.466C23.5684 63.994 23.3704 64.426 22.9744 64.762C21.4504 66.07 20.0044 67.636 18.6364 69.46C18.3724 69.82 18.1564 70 17.9884 70C17.6284 70 17.4484 69.82 17.4484 69.46C17.4484 69.304 17.5624 69.076 17.7904 68.776C19.1344 66.976 20.5804 65.416 22.1284 64.096C22.3684 63.892 22.4884 63.7 22.4884 63.52C22.4884 63.34 22.3684 63.16 22.1284 62.98C21.2044 62.332 19.4644 61.528 16.9084 60.568C16.5484 60.436 16.3684 60.244 16.3684 59.992C16.3684 59.632 16.5364 59.452 16.8724 59.452C16.9804 59.452 17.1484 59.494 17.3764 59.578ZM8.728 81.578C11.368 82.55 13.18 83.396 14.164 84.116C14.668 84.476 14.92 84.926 14.92 85.466C14.92 85.994 14.722 86.426 14.326 86.762C12.802 88.07 11.356 89.636 9.988 91.46C9.724 91.82 9.508 92 9.34 92C8.98 92 8.8 91.82 8.8 91.46C8.8 91.304 8.914 91.076 9.142 90.776C10.486 88.976 11.932 87.416 13.48 86.096C13.72 85.892 13.84 85.7 13.84 85.52C13.84 85.34 13.72 85.16 13.48 84.98C12.556 84.332 10.816 83.528 8.26 82.568C7.9 82.436 7.72 82.244 7.72 81.992C7.72 81.632 7.888 81.452 8.224 81.452C8.332 81.452 8.5 81.494 8.728 81.578ZM17.3764 81.578C20.0164 82.55 21.8284 83.396 22.8124 84.116C23.3164 84.476 23.5684 84.926 23.5684 85.466C23.5684 85.994 23.3704 86.426 22.9744 86.762C21.4504 88.07 20.0044 89.636 18.6364 91.46C18.3724 91.82 18.1564 92 17.9884 92C17.6284 92 17.4484 91.82 17.4484 91.46C17.4484 91.304 17.5624 91.076 17.7904 90.776C19.1344 88.976 20.5804 87.416 22.1284 86.096C22.3684 85.892 22.4884 85.7 22.4884 85.52C22.4884 85.34 22.3684 85.16 22.1284 84.98C21.2044 84.332 19.4644 83.528 16.9084 82.568C16.5484 82.436 16.3684 82.244 16.3684 81.992C16.3684 81.632 16.5364 81.452 16.8724 81.452C16.9804 81.452 17.1484 81.494 17.3764 81.578ZM8.728 103.578C11.368 104.55 13.18 105.396 14.164 106.116C14.668 106.476 14.92 106.926 14.92 107.466C14.92 107.994 14.722 108.426 14.326 108.762C12.802 110.07 11.356 111.636 9.988 113.46C9.724 113.82 9.508 114 9.34 114C8.98 114 8.8 113.82 8.8 113.46C8.8 113.304 8.914 113.076 9.142 112.776C10.486 110.976 11.932 109.416 13.48 108.096C13.72 107.892 13.84 107.7 13.84 107.52C13.84 107.34 13.72 107.16 13.48 106.98C12.556 106.332 10.816 105.528 8.26 104.568C7.9 104.436 7.72 104.244 7.72 103.992C7.72 103.632 7.888 103.452 8.224 103.452C8.332 103.452 8.5 103.494 8.728 103.578ZM17.3764 103.578C20.0164 104.55 21.8284 105.396 22.8124 106.116C23.3164 106.476 23.5684 106.926 23.5684 107.466C23.5684 107.994 23.3704 108.426 22.9744 108.762C21.4504 110.07 20.0044 111.636 18.6364 113.46C18.3724 113.82 18.1564 114 17.9884 114C17.6284 114 17.4484 113.82 17.4484 113.46C17.4484 113.304 17.5624 113.076 17.7904 112.776C19.1344 110.976 20.5804 109.416 22.1284 108.096C22.3684 107.892 22.4884 107.7 22.4884 107.52C22.4884 107.34 22.3684 107.16 22.1284 106.98C21.2044 106.332 19.4644 105.528 16.9084 104.568C16.5484 104.436 16.3684 104.244 16.3684 103.992C16.3684 103.632 16.5364 103.452 16.8724 103.452C16.9804 103.452 17.1484 103.494 17.3764 103.578ZM8.728 125.578C11.368 126.55 13.18 127.396 14.164 128.116C14.668 128.476 14.92 128.926 14.92 129.466C14.92 129.994 14.722 130.426 14.326 130.762C12.802 132.07 11.356 133.636 9.988 135.46C9.724 135.82 9.508 136 9.34 136C8.98 136 8.8 135.82 8.8 135.46C8.8 135.304 8.914 135.076 9.142 134.776C10.486 132.976 11.932 131.416 13.48 130.096C13.72 129.892 13.84 129.7 13.84 129.52C13.84 129.34 13.72 129.16 13.48 128.98C12.556 128.332 10.816 127.528 8.26 126.568C7.9 126.436 7.72 126.244 7.72 125.992C7.72 125.632 7.888 125.452 8.224 125.452C8.332 125.452 8.5 125.494 8.728 125.578ZM17.3764 125.578C20.0164 126.55 21.8284 127.396 22.8124 128.116C23.3164 128.476 23.5684 128.926 23.5684 129.466C23.5684 129.994 23.3704 130.426 22.9744 130.762C21.4504 132.07 20.0044 133.636 18.6364 135.46C18.3724 135.82 18.1564 136 17.9884 136C17.6284 136 17.4484 135.82 17.4484 135.46C17.4484 135.304 17.5624 135.076 17.7904 134.776C19.1344 132.976 20.5804 131.416 22.1284 130.096C22.3684 129.892 22.4884 129.7 22.4884 129.52C22.4884 129.34 22.3684 129.16 22.1284 128.98C21.2044 128.332 19.4644 127.528 16.9084 126.568C16.5484 126.436 16.3684 126.244 16.3684 125.992C16.3684 125.632 16.5364 125.452 16.8724 125.452C16.9804 125.452 17.1484 125.494 17.3764 125.578ZM8.728 147.578C11.368 148.55 13.18 149.396 14.164 150.116C14.668 150.476 14.92 150.926 14.92 151.466C14.92 151.994 14.722 152.426 14.326 152.762C12.802 154.07 11.356 155.636 9.988 157.46C9.724 157.82 9.508 158 9.34 158C8.98 158 8.8 157.82 8.8 157.46C8.8 157.304 8.914 157.076 9.142 156.776C10.486 154.976 11.932 153.416 13.48 152.096C13.72 151.892 13.84 151.7 13.84 151.52C13.84 151.34 13.72 151.16 13.48 150.98C12.556 150.332 10.816 149.528 8.26 148.568C7.9 148.436 7.72 148.244 7.72 147.992C7.72 147.632 7.888 147.452 8.224 147.452C8.332 147.452 8.5 147.494 8.728 147.578ZM17.3764 147.578C20.0164 148.55 21.8284 149.396 22.8124 150.116C23.3164 150.476 23.5684 150.926 23.5684 151.466C23.5684 151.994 23.3704 152.426 22.9744 152.762C21.4504 154.07 20.0044 155.636 18.6364 157.46C18.3724 157.82 18.1564 158 17.9884 158C17.6284 158 17.4484 157.82 17.4484 157.46C17.4484 157.304 17.5624 157.076 17.7904 156.776C19.1344 154.976 20.5804 153.416 22.1284 152.096C22.3684 151.892 22.4884 151.7 22.4884 151.52C22.4884 151.34 22.3684 151.16 22.1284 150.98C21.2044 150.332 19.4644 149.528 16.9084 148.568C16.5484 148.436 16.3684 148.244 16.3684 147.992C16.3684 147.632 16.5364 147.452 16.8724 147.452C16.9804 147.452 17.1484 147.494 17.3764 147.578ZM8.728 169.578C11.368 170.55 13.18 171.396 14.164 172.116C14.668 172.476 14.92 172.926 14.92 173.466C14.92 173.994 14.722 174.426 14.326 174.762C12.802 176.07 11.356 177.636 9.988 179.46C9.724 179.82 9.508 180 9.34 180C8.98 180 8.8 179.82 8.8 179.46C8.8 179.304 8.914 179.076 9.142 178.776C10.486 176.976 11.932 175.416 13.48 174.096C13.72 173.892 13.84 173.7 13.84 173.52C13.84 173.34 13.72 173.16 13.48 172.98C12.556 172.332 10.816 171.528 8.26 170.568C7.9 170.436 7.72 170.244 7.72 169.992C7.72 169.632 7.888 169.452 8.224 169.452C8.332 169.452 8.5 169.494 8.728 169.578ZM17.3764 169.578C20.0164 170.55 21.8284 171.396 22.8124 172.116C23.3164 172.476 23.5684 172.926 23.5684 173.466C23.5684 173.994 23.3704 174.426 22.9744 174.762C21.4504 176.07 20.0044 177.636 18.6364 179.46C18.3724 179.82 18.1564 180 17.9884 180C17.6284 180 17.4484 179.82 17.4484 179.46C17.4484 179.304 17.5624 179.076 17.7904 178.776C19.1344 176.976 20.5804 175.416 22.1284 174.096C22.3684 173.892 22.4884 173.7 22.4884 173.52C22.4884 173.34 22.3684 173.16 22.1284 172.98C21.2044 172.332 19.4644 171.528 16.9084 170.568C16.5484 170.436 16.3684 170.244 16.3684 169.992C16.3684 169.632 16.5364 169.452 16.8724 169.452C16.9804 169.452 17.1484 169.494 17.3764 169.578ZM8.728 191.578C11.368 192.55 13.18 193.396 14.164 194.116C14.668 194.476 14.92 194.926 14.92 195.466C14.92 195.994 14.722 196.426 14.326 196.762C12.802 198.07 11.356 199.636 9.988 201.46C9.724 201.82 9.508 202 9.34 202C8.98 202 8.8 201.82 8.8 201.46C8.8 201.304 8.914 201.076 9.142 200.776C10.486 198.976 11.932 197.416 13.48 196.096C13.72 195.892 13.84 195.7 13.84 195.52C13.84 195.34 13.72 195.16 13.48 194.98C12.556 194.332 10.816 193.528 8.26 192.568C7.9 192.436 7.72 192.244 7.72 191.992C7.72 191.632 7.888 191.452 8.224 191.452C8.332 191.452 8.5 191.494 8.728 191.578ZM17.3764 191.578C20.0164 192.55 21.8284 193.396 22.8124 194.116C23.3164 194.476 23.5684 194.926 23.5684 195.466C23.5684 195.994 23.3704 196.426 22.9744 196.762C21.4504 198.07 20.0044 199.636 18.6364 201.46C18.3724 201.82 18.1564 202 17.9884 202C17.6284 202 17.4484 201.82 17.4484 201.46C17.4484 201.304 17.5624 201.076 17.7904 200.776C19.1344 198.976 20.5804 197.416 22.1284 196.096C22.3684 195.892 22.4884 195.7 22.4884 195.52C22.4884 195.34 22.3684 195.16 22.1284 194.98C21.2044 194.332 19.4644 193.528 16.9084 192.568C16.5484 192.436 16.3684 192.244 16.3684 191.992C16.3684 191.632 16.5364 191.452 16.8724 191.452C16.9804 191.452 17.1484 191.494 17.3764 191.578ZM8.728 213.578C11.368 214.55 13.18 215.396 14.164 216.116C14.668 216.476 14.92 216.926 14.92 217.466C14.92 217.994 14.722 218.426 14.326 218.762C12.802 220.07 11.356 221.636 9.988 223.46C9.724 223.82 9.508 224 9.34 224C8.98 224 8.8 223.82 8.8 223.46C8.8 223.304 8.914 223.076 9.142 222.776C10.486 220.976 11.932 219.416 13.48 218.096C13.72 217.892 13.84 217.7 13.84 217.52C13.84 217.34 13.72 217.16 13.48 216.98C12.556 216.332 10.816 215.528 8.26 214.568C7.9 214.436 7.72 214.244 7.72 213.992C7.72 213.632 7.888 213.452 8.224 213.452C8.332 213.452 8.5 213.494 8.728 213.578ZM17.3764 213.578C20.0164 214.55 21.8284 215.396 22.8124 216.116C23.3164 216.476 23.5684 216.926 23.5684 217.466C23.5684 217.994 23.3704 218.426 22.9744 218.762C21.4504 220.07 20.0044 221.636 18.6364 223.46C18.3724 223.82 18.1564 224 17.9884 224C17.6284 224 17.4484 223.82 17.4484 223.46C17.4484 223.304 17.5624 223.076 17.7904 222.776C19.1344 220.976 20.5804 219.416 22.1284 218.096C22.3684 217.892 22.4884 217.7 22.4884 217.52C22.4884 217.34 22.3684 217.16 22.1284 216.98C21.2044 216.332 19.4644 215.528 16.9084 214.568C16.5484 214.436 16.3684 214.244 16.3684 213.992C16.3684 213.632 16.5364 213.452 16.8724 213.452C16.9804 213.452 17.1484 213.494 17.3764 213.578ZM8.728 235.578C11.368 236.55 13.18 237.396 14.164 238.116C14.668 238.476 14.92 238.926 14.92 239.466C14.92 239.994 14.722 240.426 14.326 240.762C12.802 242.07 11.356 243.636 9.988 245.46C9.724 245.82 9.508 246 9.34 246C8.98 246 8.8 245.82 8.8 245.46C8.8 245.304 8.914 245.076 9.142 244.776C10.486 242.976 11.932 241.416 13.48 240.096C13.72 239.892 13.84 239.7 13.84 239.52C13.84 239.34 13.72 239.16 13.48 238.98C12.556 238.332 10.816 237.528 8.26 236.568C7.9 236.436 7.72 236.244 7.72 235.992C7.72 235.632 7.888 235.452 8.224 235.452C8.332 235.452 8.5 235.494 8.728 235.578ZM17.3764 235.578C20.0164 236.55 21.8284 237.396 22.8124 238.116C23.3164 238.476 23.5684 238.926 23.5684 239.466C23.5684 239.994 23.3704 240.426 22.9744 240.762C21.4504 242.07 20.0044 243.636 18.6364 245.46C18.3724 245.82 18.1564 246 17.9884 246C17.6284 246 17.4484 245.82 17.4484 245.46C17.4484 245.304 17.5624 245.076 17.7904 244.776C19.1344 242.976 20.5804 241.416 22.1284 240.096C22.3684 239.892 22.4884 239.7 22.4884 239.52C22.4884 239.34 22.3684 239.16 22.1284 238.98C21.2044 238.332 19.4644 237.528 16.9084 236.568C16.5484 236.436 16.3684 236.244 16.3684 235.992C16.3684 235.632 16.5364 235.452 16.8724 235.452C16.9804 235.452 17.1484 235.494 17.3764 235.578ZM8.728 257.578C11.368 258.55 13.18 259.396 14.164 260.116C14.668 260.476 14.92 260.926 14.92 261.466C14.92 261.994 14.722 262.426 14.326 262.762C12.802 264.07 11.356 265.636 9.988 267.46C9.724 267.82 9.508 268 9.34 268C8.98 268 8.8 267.82 8.8 267.46C8.8 267.304 8.914 267.076 9.142 266.776C10.486 264.976 11.932 263.416 13.48 262.096C13.72 261.892 13.84 261.7 13.84 261.52C13.84 261.34 13.72 261.16 13.48 260.98C12.556 260.332 10.816 259.528 8.26 258.568C7.9 258.436 7.72 258.244 7.72 257.992C7.72 257.632 7.888 257.452 8.224 257.452C8.332 257.452 8.5 257.494 8.728 257.578ZM17.3764 257.578C20.0164 258.55 21.8284 259.396 22.8124 260.116C23.3164 260.476 23.5684 260.926 23.5684 261.466C23.5684 261.994 23.3704 262.426 22.9744 262.762C21.4504 264.07 20.0044 265.636 18.6364 267.46C18.3724 267.82 18.1564 268 17.9884 268C17.6284 268 17.4484 267.82 17.4484 267.46C17.4484 267.304 17.5624 267.076 17.7904 266.776C19.1344 264.976 20.5804 263.416 22.1284 262.096C22.3684 261.892 22.4884 261.7 22.4884 261.52C22.4884 261.34 22.3684 261.16 22.1284 260.98C21.2044 260.332 19.4644 259.528 16.9084 258.568C16.5484 258.436 16.3684 258.244 16.3684 257.992C16.3684 257.632 16.5364 257.452 16.8724 257.452C16.9804 257.452 17.1484 257.494 17.3764 257.578ZM8.728 279.578C11.368 280.55 13.18 281.396 14.164 282.116C14.668 282.476 14.92 282.926 14.92 283.466C14.92 283.994 14.722 284.426 14.326 284.762C12.802 286.07 11.356 287.636 9.988 289.46C9.724 289.82 9.508 290 9.34 290C8.98 290 8.8 289.82 8.8 289.46C8.8 289.304 8.914 289.076 9.142 288.776C10.486 286.976 11.932 285.416 13.48 284.096C13.72 283.892 13.84 283.7 13.84 283.52C13.84 283.34 13.72 283.16 13.48 282.98C12.556 282.332 10.816 281.528 8.26 280.568C7.9 280.436 7.72 280.244 7.72 279.992C7.72 279.632 7.888 279.452 8.224 279.452C8.332 279.452 8.5 279.494 8.728 279.578ZM17.3764 279.578C20.0164 280.55 21.8284 281.396 22.8124 282.116C23.3164 282.476 23.5684 282.926 23.5684 283.466C23.5684 283.994 23.3704 284.426 22.9744 284.762C21.4504 286.07 20.0044 287.636 18.6364 289.46C18.3724 289.82 18.1564 290 17.9884 290C17.6284 290 17.4484 289.82 17.4484 289.46C17.4484 289.304 17.5624 289.076 17.7904 288.776C19.1344 286.976 20.5804 285.416 22.1284 284.096C22.3684 283.892 22.4884 283.7 22.4884 283.52C22.4884 283.34 22.3684 283.16 22.1284 282.98C21.2044 282.332 19.4644 281.528 16.9084 280.568C16.5484 280.436 16.3684 280.244 16.3684 279.992C16.3684 279.632 16.5364 279.452 16.8724 279.452C16.9804 279.452 17.1484 279.494 17.3764 279.578ZM8.728 301.578C11.368 302.55 13.18 303.396 14.164 304.116C14.668 304.476 14.92 304.926 14.92 305.466C14.92 305.994 14.722 306.426 14.326 306.762C12.802 308.07 11.356 309.636 9.988 311.46C9.724 311.82 9.508 312 9.34 312C8.98 312 8.8 311.82 8.8 311.46C8.8 311.304 8.914 311.076 9.142 310.776C10.486 308.976 11.932 307.416 13.48 306.096C13.72 305.892 13.84 305.7 13.84 305.52C13.84 305.34 13.72 305.16 13.48 304.98C12.556 304.332 10.816 303.528 8.26 302.568C7.9 302.436 7.72 302.244 7.72 301.992C7.72 301.632 7.888 301.452 8.224 301.452C8.332 301.452 8.5 301.494 8.728 301.578ZM17.3764 301.578C20.0164 302.55 21.8284 303.396 22.8124 304.116C23.3164 304.476 23.5684 304.926 23.5684 305.466C23.5684 305.994 23.3704 306.426 22.9744 306.762C21.4504 308.07 20.0044 309.636 18.6364 311.46C18.3724 311.82 18.1564 312 17.9884 312C17.6284 312 17.4484 311.82 17.4484 311.46C17.4484 311.304 17.5624 311.076 17.7904 310.776C19.1344 308.976 20.5804 307.416 22.1284 306.096C22.3684 305.892 22.4884 305.7 22.4884 305.52C22.4884 305.34 22.3684 305.16 22.1284 304.98C21.2044 304.332 19.4644 303.528 16.9084 302.568C16.5484 302.436 16.3684 302.244 16.3684 301.992C16.3684 301.632 16.5364 301.452 16.8724 301.452C16.9804 301.452 17.1484 301.494 17.3764 301.578ZM8.728 323.578C11.368 324.55 13.18 325.396 14.164 326.116C14.668 326.476 14.92 326.926 14.92 327.466C14.92 327.994 14.722 328.426 14.326 328.762C12.802 330.07 11.356 331.636 9.988 333.46C9.724 333.82 9.508 334 9.34 334C8.98 334 8.8 333.82 8.8 333.46C8.8 333.304 8.914 333.076 9.142 332.776C10.486 330.976 11.932 329.416 13.48 328.096C13.72 327.892 13.84 327.7 13.84 327.52C13.84 327.34 13.72 327.16 13.48 326.98C12.556 326.332 10.816 325.528 8.26 324.568C7.9 324.436 7.72 324.244 7.72 323.992C7.72 323.632 7.888 323.452 8.224 323.452C8.332 323.452 8.5 323.494 8.728 323.578ZM17.3764 323.578C20.0164 324.55 21.8284 325.396 22.8124 326.116C23.3164 326.476 23.5684 326.926 23.5684 327.466C23.5684 327.994 23.3704 328.426 22.9744 328.762C21.4504 330.07 20.0044 331.636 18.6364 333.46C18.3724 333.82 18.1564 334 17.9884 334C17.6284 334 17.4484 333.82 17.4484 333.46C17.4484 333.304 17.5624 333.076 17.7904 332.776C19.1344 330.976 20.5804 329.416 22.1284 328.096C22.3684 327.892 22.4884 327.7 22.4884 327.52C22.4884 327.34 22.3684 327.16 22.1284 326.98C21.2044 326.332 19.4644 325.528 16.9084 324.568C16.5484 324.436 16.3684 324.244 16.3684 323.992C16.3684 323.632 16.5364 323.452 16.8724 323.452C16.9804 323.452 17.1484 323.494 17.3764 323.578ZM8.728 345.578C11.368 346.55 13.18 347.396 14.164 348.116C14.668 348.476 14.92 348.926 14.92 349.466C14.92 349.994 14.722 350.426 14.326 350.762C12.802 352.07 11.356 353.636 9.988 355.46C9.724 355.82 9.508 356 9.34 356C8.98 356 8.8 355.82 8.8 355.46C8.8 355.304 8.914 355.076 9.142 354.776C10.486 352.976 11.932 351.416 13.48 350.096C13.72 349.892 13.84 349.7 13.84 349.52C13.84 349.34 13.72 349.16 13.48 348.98C12.556 348.332 10.816 347.528 8.26 346.568C7.9 346.436 7.72 346.244 7.72 345.992C7.72 345.632 7.888 345.452 8.224 345.452C8.332 345.452 8.5 345.494 8.728 345.578ZM17.3764 345.578C20.0164 346.55 21.8284 347.396 22.8124 348.116C23.3164 348.476 23.5684 348.926 23.5684 349.466C23.5684 349.994 23.3704 350.426 22.9744 350.762C21.4504 352.07 20.0044 353.636 18.6364 355.46C18.3724 355.82 18.1564 356 17.9884 356C17.6284 356 17.4484 355.82 17.4484 355.46C17.4484 355.304 17.5624 355.076 17.7904 354.776C19.1344 352.976 20.5804 351.416 22.1284 350.096C22.3684 349.892 22.4884 349.7 22.4884 349.52C22.4884 349.34 22.3684 349.16 22.1284 348.98C21.2044 348.332 19.4644 347.528 16.9084 346.568C16.5484 346.436 16.3684 346.244 16.3684 345.992C16.3684 345.632 16.5364 345.452 16.8724 345.452C16.9804 345.452 17.1484 345.494 17.3764 345.578ZM8.728 367.578C11.368 368.55 13.18 369.396 14.164 370.116C14.668 370.476 14.92 370.926 14.92 371.466C14.92 371.994 14.722 372.426 14.326 372.762C12.802 374.07 11.356 375.636 9.988 377.46C9.724 377.82 9.508 378 9.34 378C8.98 378 8.8 377.82 8.8 377.46C8.8 377.304 8.914 377.076 9.142 376.776C10.486 374.976 11.932 373.416 13.48 372.096C13.72 371.892 13.84 371.7 13.84 371.52C13.84 371.34 13.72 371.16 13.48 370.98C12.556 370.332 10.816 369.528 8.26 368.568C7.9 368.436 7.72 368.244 7.72 367.992C7.72 367.632 7.888 367.452 8.224 367.452C8.332 367.452 8.5 367.494 8.728 367.578ZM17.3764 367.578C20.0164 368.55 21.8284 369.396 22.8124 370.116C23.3164 370.476 23.5684 370.926 23.5684 371.466C23.5684 371.994 23.3704 372.426 22.9744 372.762C21.4504 374.07 20.0044 375.636 18.6364 377.46C18.3724 377.82 18.1564 378 17.9884 378C17.6284 378 17.4484 377.82 17.4484 377.46C17.4484 377.304 17.5624 377.076 17.7904 376.776C19.1344 374.976 20.5804 373.416 22.1284 372.096C22.3684 371.892 22.4884 371.7 22.4884 371.52C22.4884 371.34 22.3684 371.16 22.1284 370.98C21.2044 370.332 19.4644 369.528 16.9084 368.568C16.5484 368.436 16.3684 368.244 16.3684 367.992C16.3684 367.632 16.5364 367.452 16.8724 367.452C16.9804 367.452 17.1484 367.494 17.3764 367.578ZM8.728 389.578C11.368 390.55 13.18 391.396 14.164 392.116C14.668 392.476 14.92 392.926 14.92 393.466C14.92 393.994 14.722 394.426 14.326 394.762C12.802 396.07 11.356 397.636 9.988 399.46C9.724 399.82 9.508 400 9.34 400C8.98 400 8.8 399.82 8.8 399.46C8.8 399.304 8.914 399.076 9.142 398.776C10.486 396.976 11.932 395.416 13.48 394.096C13.72 393.892 13.84 393.7 13.84 393.52C13.84 393.34 13.72 393.16 13.48 392.98C12.556 392.332 10.816 391.528 8.26 390.568C7.9 390.436 7.72 390.244 7.72 389.992C7.72 389.632 7.888 389.452 8.224 389.452C8.332 389.452 8.5 389.494 8.728 389.578ZM17.3764 389.578C20.0164 390.55 21.8284 391.396 22.8124 392.116C23.3164 392.476 23.5684 392.926 23.5684 393.466C23.5684 393.994 23.3704 394.426 22.9744 394.762C21.4504 396.07 20.0044 397.636 18.6364 399.46C18.3724 399.82 18.1564 400 17.9884 400C17.6284 400 17.4484 399.82 17.4484 399.46C17.4484 399.304 17.5624 399.076 17.7904 398.776C19.1344 396.976 20.5804 395.416 22.1284 394.096C22.3684 393.892 22.4884 393.7 22.4884 393.52C22.4884 393.34 22.3684 393.16 22.1284 392.98C21.2044 392.332 19.4644 391.528 16.9084 390.568C16.5484 390.436 16.3684 390.244 16.3684 389.992C16.3684 389.632 16.5364 389.452 16.8724 389.452C16.9804 389.452 17.1484 389.494 17.3764 389.578ZM8.728 411.578C11.368 412.55 13.18 413.396 14.164 414.116C14.668 414.476 14.92 414.926 14.92 415.466C14.92 415.994 14.722 416.426 14.326 416.762C12.802 418.07 11.356 419.636 9.988 421.46C9.724 421.82 9.508 422 9.34 422C8.98 422 8.8 421.82 8.8 421.46C8.8 421.304 8.914 421.076 9.142 420.776C10.486 418.976 11.932 417.416 13.48 416.096C13.72 415.892 13.84 415.7 13.84 415.52C13.84 415.34 13.72 415.16 13.48 414.98C12.556 414.332 10.816 413.528 8.26 412.568C7.9 412.436 7.72 412.244 7.72 411.992C7.72 411.632 7.888 411.452 8.224 411.452C8.332 411.452 8.5 411.494 8.728 411.578ZM17.3764 411.578C20.0164 412.55 21.8284 413.396 22.8124 414.116C23.3164 414.476 23.5684 414.926 23.5684 415.466C23.5684 415.994 23.3704 416.426 22.9744 416.762C21.4504 418.07 20.0044 419.636 18.6364 421.46C18.3724 421.82 18.1564 422 17.9884 422C17.6284 422 17.4484 421.82 17.4484 421.46C17.4484 421.304 17.5624 421.076 17.7904 420.776C19.1344 418.976 20.5804 417.416 22.1284 416.096C22.3684 415.892 22.4884 415.7 22.4884 415.52C22.4884 415.34 22.3684 415.16 22.1284 414.98C21.2044 414.332 19.4644 413.528 16.9084 412.568C16.5484 412.436 16.3684 412.244 16.3684 411.992C16.3684 411.632 16.5364 411.452 16.8724 411.452C16.9804 411.452 17.1484 411.494 17.3764 411.578ZM8.728 433.578C11.368 434.55 13.18 435.396 14.164 436.116C14.668 436.476 14.92 436.926 14.92 437.466C14.92 437.994 14.722 438.426 14.326 438.762C12.802 440.07 11.356 441.636 9.988 443.46C9.724 443.82 9.508 444 9.34 444C8.98 444 8.8 443.82 8.8 443.46C8.8 443.304 8.914 443.076 9.142 442.776C10.486 440.976 11.932 439.416 13.48 438.096C13.72 437.892 13.84 437.7 13.84 437.52C13.84 437.34 13.72 437.16 13.48 436.98C12.556 436.332 10.816 435.528 8.26 434.568C7.9 434.436 7.72 434.244 7.72 433.992C7.72 433.632 7.888 433.452 8.224 433.452C8.332 433.452 8.5 433.494 8.728 433.578ZM17.3764 433.578C20.0164 434.55 21.8284 435.396 22.8124 436.116C23.3164 436.476 23.5684 436.926 23.5684 437.466C23.5684 437.994 23.3704 438.426 22.9744 438.762C21.4504 440.07 20.0044 441.636 18.6364 443.46C18.3724 443.82 18.1564 444 17.9884 444C17.6284 444 17.4484 443.82 17.4484 443.46C17.4484 443.304 17.5624 443.076 17.7904 442.776C19.1344 440.976 20.5804 439.416 22.1284 438.096C22.3684 437.892 22.4884 437.7 22.4884 437.52C22.4884 437.34 22.3684 437.16 22.1284 436.98C21.2044 436.332 19.4644 435.528 16.9084 434.568C16.5484 434.436 16.3684 434.244 16.3684 433.992C16.3684 433.632 16.5364 433.452 16.8724 433.452C16.9804 433.452 17.1484 433.494 17.3764 433.578ZM8.728 455.578C11.368 456.55 13.18 457.396 14.164 458.116C14.668 458.476 14.92 458.926 14.92 459.466C14.92 459.994 14.722 460.426 14.326 460.762C12.802 462.07 11.356 463.636 9.988 465.46C9.724 465.82 9.508 466 9.34 466C8.98 466 8.8 465.82 8.8 465.46C8.8 465.304 8.914 465.076 9.142 464.776C10.486 462.976 11.932 461.416 13.48 460.096C13.72 459.892 13.84 459.7 13.84 459.52C13.84 459.34 13.72 459.16 13.48 458.98C12.556 458.332 10.816 457.528 8.26 456.568C7.9 456.436 7.72 456.244 7.72 455.992C7.72 455.632 7.888 455.452 8.224 455.452C8.332 455.452 8.5 455.494 8.728 455.578ZM17.3764 455.578C20.0164 456.55 21.8284 457.396 22.8124 458.116C23.3164 458.476 23.5684 458.926 23.5684 459.466C23.5684 459.994 23.3704 460.426 22.9744 460.762C21.4504 462.07 20.0044 463.636 18.6364 465.46C18.3724 465.82 18.1564 466 17.9884 466C17.6284 466 17.4484 465.82 17.4484 465.46C17.4484 465.304 17.5624 465.076 17.7904 464.776C19.1344 462.976 20.5804 461.416 22.1284 460.096C22.3684 459.892 22.4884 459.7 22.4884 459.52C22.4884 459.34 22.3684 459.16 22.1284 458.98C21.2044 458.332 19.4644 457.528 16.9084 456.568C16.5484 456.436 16.3684 456.244 16.3684 455.992C16.3684 455.632 16.5364 455.452 16.8724 455.452C16.9804 455.452 17.1484 455.494 17.3764 455.578ZM8.728 477.578C11.368 478.55 13.18 479.396 14.164 480.116C14.668 480.476 14.92 480.926 14.92 481.466C14.92 481.994 14.722 482.426 14.326 482.762C12.802 484.07 11.356 485.636 9.988 487.46C9.724 487.82 9.508 488 9.34 488C8.98 488 8.8 487.82 8.8 487.46C8.8 487.304 8.914 487.076 9.142 486.776C10.486 484.976 11.932 483.416 13.48 482.096C13.72 481.892 13.84 481.7 13.84 481.52C13.84 481.34 13.72 481.16 13.48 480.98C12.556 480.332 10.816 479.528 8.26 478.568C7.9 478.436 7.72 478.244 7.72 477.992C7.72 477.632 7.888 477.452 8.224 477.452C8.332 477.452 8.5 477.494 8.728 477.578ZM17.3764 477.578C20.0164 478.55 21.8284 479.396 22.8124 480.116C23.3164 480.476 23.5684 480.926 23.5684 481.466C23.5684 481.994 23.3704 482.426 22.9744 482.762C21.4504 484.07 20.0044 485.636 18.6364 487.46C18.3724 487.82 18.1564 488 17.9884 488C17.6284 488 17.4484 487.82 17.4484 487.46C17.4484 487.304 17.5624 487.076 17.7904 486.776C19.1344 484.976 20.5804 483.416 22.1284 482.096C22.3684 481.892 22.4884 481.7 22.4884 481.52C22.4884 481.34 22.3684 481.16 22.1284 480.98C21.2044 480.332 19.4644 479.528 16.9084 478.568C16.5484 478.436 16.3684 478.244 16.3684 477.992C16.3684 477.632 16.5364 477.452 16.8724 477.452C16.9804 477.452 17.1484 477.494 17.3764 477.578ZM8.728 499.578C11.368 500.55 13.18 501.396 14.164 502.116C14.668 502.476 14.92 502.926 14.92 503.466C14.92 503.994 14.722 504.426 14.326 504.762C12.802 506.07 11.356 507.636 9.988 509.46C9.724 509.82 9.508 510 9.34 510C8.98 510 8.8 509.82 8.8 509.46C8.8 509.304 8.914 509.076 9.142 508.776C10.486 506.976 11.932 505.416 13.48 504.096C13.72 503.892 13.84 503.7 13.84 503.52C13.84 503.34 13.72 503.16 13.48 502.98C12.556 502.332 10.816 501.528 8.26 500.568C7.9 500.436 7.72 500.244 7.72 499.992C7.72 499.632 7.888 499.452 8.224 499.452C8.332 499.452 8.5 499.494 8.728 499.578ZM17.3764 499.578C20.0164 500.55 21.8284 501.396 22.8124 502.116C23.3164 502.476 23.5684 502.926 23.5684 503.466C23.5684 503.994 23.3704 504.426 22.9744 504.762C21.4504 506.07 20.0044 507.636 18.6364 509.46C18.3724 509.82 18.1564 510 17.9884 510C17.6284 510 17.4484 509.82 17.4484 509.46C17.4484 509.304 17.5624 509.076 17.7904 508.776C19.1344 506.976 20.5804 505.416 22.1284 504.096C22.3684 503.892 22.4884 503.7 22.4884 503.52C22.4884 503.34 22.3684 503.16 22.1284 502.98C21.2044 502.332 19.4644 501.528 16.9084 500.568C16.5484 500.436 16.3684 500.244 16.3684 499.992C16.3684 499.632 16.5364 499.452 16.8724 499.452C16.9804 499.452 17.1484 499.494 17.3764 499.578Z" fill="black"/>
<path d="M845.502 66.34C845.142 66.34 844.962 66.16 844.962 65.8C844.962 65.38 845.214 64.42 845.718 62.92C847.446 57.748 848.508 54.16 848.904 52.156C848.976 51.796 849.168 51.616 849.48 51.616C849.828 51.616 850.002 51.796 850.002 52.156C850.002 52.204 849.99 52.288 849.966 52.408C849.582 54.352 848.508 57.964 846.744 63.244C846.348 64.42 846.114 65.272 846.042 65.8C845.994 66.16 845.814 66.34 845.502 66.34ZM854.508 64C854.292 64 854.112 63.82 853.968 63.46C852.228 59.104 851.16 56.032 850.764 54.244C850.74 54.1 850.728 54.016 850.728 53.992C850.728 53.632 850.908 53.452 851.268 53.452C851.556 53.452 851.748 53.662 851.844 54.082C851.94 54.502 852.066 55 852.222 55.576C852.378 56.152 852.552 56.722 852.744 57.286C852.936 57.838 853.128 58.384 853.32 58.924C853.524 59.452 853.722 59.962 853.914 60.454C854.106 60.934 854.274 61.348 854.418 61.696C854.562 62.044 854.688 62.356 854.796 62.632C854.916 62.896 854.988 63.064 855.012 63.136C855.036 63.208 855.048 63.316 855.048 63.46C855.048 63.82 854.868 64 854.508 64ZM864.413 64L860.093 64.144C859.421 64.144 858.593 64.12 857.609 64.072C856.637 64.024 856.025 64 855.773 64C855.413 64 855.233 63.82 855.233 63.46C855.233 63.1 855.413 62.92 855.773 62.92C856.025 62.92 856.637 62.944 857.609 62.992C858.593 63.04 859.421 63.064 860.093 63.064L864.413 62.92C864.773 62.92 864.953 63.1 864.953 63.46C864.953 63.82 864.773 64 864.413 64ZM873.062 64L868.742 64.144C868.07 64.144 867.242 64.12 866.258 64.072C865.286 64.024 864.674 64 864.422 64C864.062 64 863.882 63.82 863.882 63.46C863.882 63.1 864.062 62.92 864.422 62.92C864.674 62.92 865.286 62.944 866.258 62.992C867.242 63.04 868.07 63.064 868.742 63.064L873.062 62.92C873.422 62.92 873.602 63.1 873.602 63.46C873.602 63.82 873.422 64 873.062 64ZM881.71 64L877.39 64.144C876.718 64.144 875.89 64.12 874.906 64.072C873.934 64.024 873.322 64 873.07 64C872.71 64 872.53 63.82 872.53 63.46C872.53 63.1 872.71 62.92 873.07 62.92C873.322 62.92 873.934 62.944 874.906 62.992C875.89 63.04 876.718 63.064 877.39 63.064L881.71 62.92C882.07 62.92 882.25 63.1 882.25 63.46C882.25 63.82 882.07 64 881.71 64ZM890.359 64L886.039 64.144C885.367 64.144 884.539 64.12 883.555 64.072C882.583 64.024 881.971 64 881.719 64C881.359 64 881.179 63.82 881.179 63.46C881.179 63.1 881.359 62.92 881.719 62.92C881.971 62.92 882.583 62.944 883.555 62.992C884.539 63.04 885.367 63.064 886.039 63.064L890.359 62.92C890.719 62.92 890.899 63.1 890.899 63.46C890.899 63.82 890.719 64 890.359 64ZM899.007 64L894.687 64.144C894.015 64.144 893.187 64.12 892.203 64.072C891.231 64.024 890.619 64 890.367 64C890.007 64 889.827 63.82 889.827 63.46C889.827 63.1 890.007 62.92 890.367 62.92C890.619 62.92 891.231 62.944 892.203 62.992C893.187 63.04 894.015 63.064 894.687 63.064L899.007 62.92C899.367 62.92 899.547 63.1 899.547 63.46C899.547 63.82 899.367 64 899.007 64ZM900.276 66.34C899.916 66.34 899.736 66.16 899.736 65.8C899.736 65.38 899.988 64.42 900.492 62.92C902.22 57.748 903.282 54.16 903.678 52.156C903.75 51.796 903.942 51.616 904.254 51.616C904.602 51.616 904.776 51.796 904.776 52.156C904.776 52.204 904.764 52.288 904.74 52.408C904.356 54.352 903.282 57.964 901.518 63.244C901.122 64.42 900.888 65.272 900.816 65.8C900.768 66.16 900.588 66.34 900.276 66.34ZM909.281 64C909.065 64 908.885 63.82 908.741 63.46C907.001 59.104 905.933 56.032 905.537 54.244C905.513 54.1 905.501 54.016 905.501 53.992C905.501 53.632 905.681 53.452 906.041 53.452C906.329 53.452 906.521 53.662 906.617 54.082C906.713 54.502 906.839 55 906.995 55.576C907.151 56.152 907.325 56.722 907.517 57.286C907.709 57.838 907.901 58.384 908.093 58.924C908.297 59.452 908.495 59.962 908.687 60.454C908.879 60.934 909.047 61.348 909.191 61.696C909.335 62.044 909.461 62.356 909.569 62.632C909.689 62.896 909.761 63.064 909.785 63.136C909.809 63.208 909.821 63.316 909.821 63.46C909.821 63.82 909.641 64 909.281 64ZM836.854 88.34C836.494 88.34 836.314 88.16 836.314 87.8C836.314 87.38 836.566 86.42 837.07 84.92C838.798 79.748 839.86 76.16 840.256 74.156C840.328 73.796 840.52 73.616 840.832 73.616C841.18 73.616 841.354 73.796 841.354 74.156C841.354 74.204 841.342 74.288 841.318 74.408C840.934 76.352 839.86 79.964 838.096 85.244C837.7 86.42 837.466 87.272 837.394 87.8C837.346 88.16 837.166 88.34 836.854 88.34ZM860.096 80.96C860.456 80.96 860.636 81.14 860.636 81.5C860.636 81.644 860.606 81.788 860.546 81.932C860.486 82.076 860.456 82.25 860.456 82.454C860.456 82.646 860.516 82.844 860.636 83.048C860.768 83.252 860.954 83.474 861.194 83.714C861.434 83.942 861.794 84.14 862.274 84.308C862.754 84.476 863.234 84.56 863.714 84.56C864.206 84.56 864.626 84.434 864.974 84.182C865.322 83.93 865.496 83.576 865.496 83.12C865.496 82.364 865.322 81.758 864.974 81.302C864.626 80.834 864.14 80.6 863.516 80.6C863.228 80.6 862.934 80.69 862.634 80.87C862.346 81.05 862.16 81.14 862.076 81.14C861.716 81.14 861.536 80.96 861.536 80.6C861.536 80.372 861.74 80.138 862.148 79.898C862.568 79.646 863.024 79.52 863.516 79.52C864.428 79.52 865.166 79.856 865.73 80.528C866.294 81.188 866.576 82.052 866.576 83.12C866.576 83.888 866.288 84.5 865.712 84.956C865.148 85.412 864.542 85.64 863.894 85.64C863.246 85.64 862.652 85.562 862.112 85.406C861.584 85.238 861.158 85.034 860.834 84.794C860.51 84.542 860.228 84.272 859.988 83.984C859.58 83.48 859.376 83.018 859.376 82.598C859.376 82.166 859.442 81.788 859.574 81.464C859.706 81.128 859.88 80.96 860.096 80.96ZM894.69 80.96C895.05 80.96 895.23 81.14 895.23 81.5C895.23 81.644 895.2 81.788 895.14 81.932C895.08 82.076 895.05 82.25 895.05 82.454C895.05 82.646 895.11 82.844 895.23 83.048C895.362 83.252 895.548 83.474 895.788 83.714C896.028 83.942 896.388 84.14 896.868 84.308C897.348 84.476 897.828 84.56 898.308 84.56C898.8 84.56 899.22 84.434 899.568 84.182C899.916 83.93 900.09 83.576 900.09 83.12C900.09 82.364 899.916 81.758 899.568 81.302C899.22 80.834 898.734 80.6 898.11 80.6C897.822 80.6 897.528 80.69 897.228 80.87C896.94 81.05 896.754 81.14 896.67 81.14C896.31 81.14 896.13 80.96 896.13 80.6C896.13 80.372 896.334 80.138 896.742 79.898C897.162 79.646 897.618 79.52 898.11 79.52C899.022 79.52 899.76 79.856 900.324 80.528C900.888 81.188 901.17 82.052 901.17 83.12C901.17 83.888 900.882 84.5 900.306 84.956C899.742 85.412 899.136 85.64 898.488 85.64C897.84 85.64 897.246 85.562 896.706 85.406C896.178 85.238 895.752 85.034 895.428 84.794C895.104 84.542 894.822 84.272 894.582 83.984C894.174 83.48 893.97 83.018 893.97 82.598C893.97 82.166 894.036 81.788 894.168 81.464C894.3 81.128 894.474 80.96 894.69 80.96ZM915.047 86C914.831 86 914.651 85.82 914.507 85.46C912.767 81.104 911.699 78.032 911.303 76.244C911.279 76.1 911.267 76.016 911.267 75.992C911.267 75.632 911.447 75.452 911.807 75.452C912.095 75.452 912.287 75.662 912.383 76.082C912.479 76.502 912.605 77 912.761 77.576C912.917 78.152 913.091 78.722 913.283 79.286C913.475 79.838 913.667 80.384 913.859 80.924C914.063 81.452 914.261 81.962 914.453 82.454C914.645 82.934 914.813 83.348 914.957 83.696C915.101 84.044 915.227 84.356 915.335 84.632C915.455 84.896 915.527 85.064 915.551 85.136C915.575 85.208 915.587 85.316 915.587 85.46C915.587 85.82 915.407 86 915.047 86ZM831.625 113.616C831.445 113.616 831.235 113.436 830.995 113.076C830.167 111.84 829.525 110.604 829.069 109.368C828.613 108.144 828.385 106.8 828.385 105.336C828.385 102.504 829.207 99.444 830.851 96.156C831.031 95.796 831.229 95.616 831.445 95.616C831.805 95.616 831.985 95.796 831.985 96.156C831.985 96.264 831.961 96.366 831.913 96.462C830.281 99.726 829.465 102.684 829.465 105.336C829.465 106.68 829.669 107.91 830.077 109.026C830.497 110.142 831.103 111.3 831.895 112.5C832.075 112.764 832.165 112.956 832.165 113.076C832.165 113.436 831.985 113.616 831.625 113.616ZM851.262 102.6H849.93C849.282 102.6 848.694 102.666 848.166 102.798C847.59 102.942 847.014 103.086 846.438 103.23C846.186 103.266 846.054 103.284 846.042 103.284C845.682 103.284 845.502 103.104 845.502 102.744C845.502 102.456 845.67 102.276 846.006 102.204C846.042 102.192 846.216 102.15 846.528 102.078C846.852 101.994 847.17 101.916 847.482 101.844C848.334 101.628 849.114 101.52 849.822 101.52H851.262C851.622 101.52 851.802 101.7 851.802 102.06C851.802 102.42 851.622 102.6 851.262 102.6ZM846.402 104.58C846.51 104.556 847.242 104.472 848.598 104.328C849.954 104.184 850.716 104.1 850.884 104.076C851.064 104.052 851.19 104.04 851.262 104.04C851.622 104.04 851.802 104.22 851.802 104.58C851.802 104.88 851.622 105.06 851.262 105.12C850.95 105.18 850.068 105.288 848.616 105.444C847.164 105.588 846.396 105.66 846.312 105.66C846.228 105.66 846.132 105.612 846.024 105.516C845.916 105.42 845.862 105.288 845.862 105.12C845.862 104.808 846.042 104.628 846.402 104.58ZM859.911 102.6H858.579C857.931 102.6 857.343 102.666 856.815 102.798C856.239 102.942 855.663 103.086 855.087 103.23C854.835 103.266 854.703 103.284 854.691 103.284C854.331 103.284 854.151 103.104 854.151 102.744C854.151 102.456 854.319 102.276 854.655 102.204C854.691 102.192 854.865 102.15 855.177 102.078C855.501 101.994 855.819 101.916 856.131 101.844C856.983 101.628 857.763 101.52 858.471 101.52H859.911C860.271 101.52 860.451 101.7 860.451 102.06C860.451 102.42 860.271 102.6 859.911 102.6ZM855.051 104.58C855.159 104.556 855.891 104.472 857.247 104.328C858.603 104.184 859.365 104.1 859.533 104.076C859.713 104.052 859.839 104.04 859.911 104.04C860.271 104.04 860.451 104.22 860.451 104.58C860.451 104.88 860.271 105.06 859.911 105.12C859.599 105.18 858.717 105.288 857.265 105.444C855.813 105.588 855.045 105.66 854.961 105.66C854.877 105.66 854.781 105.612 854.673 105.516C854.565 105.42 854.511 105.288 854.511 105.12C854.511 104.808 854.691 104.628 855.051 104.58ZM883.498 96.696C883.258 96.696 882.976 96.828 882.652 97.092C882.328 97.356 881.938 97.716 881.482 98.172C881.038 98.628 880.792 98.88 880.744 98.928C880.696 98.976 880.66 99.012 880.636 99.036C880.612 99.048 880.582 99.072 880.546 99.108C880.438 99.216 880.366 99.276 880.33 99.288C880.294 99.3 880.264 99.312 880.24 99.324C880.192 99.348 880.144 99.36 880.096 99.36C879.736 99.36 879.556 99.18 879.556 98.82C879.556 98.64 879.736 98.382 880.096 98.046C880.204 97.938 880.366 97.776 880.582 97.56C880.81 97.344 880.966 97.194 881.05 97.11C881.134 97.014 881.26 96.888 881.428 96.732C881.608 96.564 881.734 96.45 881.806 96.39C881.89 96.318 882.004 96.228 882.148 96.12C882.292 96.012 882.406 95.94 882.49 95.904C882.586 95.856 882.694 95.808 882.814 95.76C883.018 95.664 883.228 95.616 883.444 95.616C883.66 95.616 883.84 95.652 883.984 95.724C884.14 95.784 884.266 95.862 884.362 95.958C884.47 96.054 884.566 96.18 884.65 96.336C884.746 96.492 884.818 96.636 884.866 96.768C884.926 96.888 884.98 97.044 885.028 97.236C885.088 97.428 885.13 97.572 885.154 97.668C885.238 98.004 885.28 98.22 885.28 98.316C885.304 98.4 885.316 98.472 885.316 98.532C885.316 98.892 885.142 99.072 884.794 99.072C884.494 99.072 884.308 98.892 884.236 98.532C883.996 97.308 883.75 96.696 883.498 96.696ZM901.711 102.6H900.379C899.731 102.6 899.143 102.666 898.615 102.798C898.039 102.942 897.463 103.086 896.887 103.23C896.635 103.266 896.503 103.284 896.491 103.284C896.131 103.284 895.951 103.104 895.951 102.744C895.951 102.456 896.119 102.276 896.455 102.204C896.491 102.192 896.665 102.15 896.977 102.078C897.301 101.994 897.619 101.916 897.931 101.844C898.783 101.628 899.563 101.52 900.271 101.52H901.711C902.071 101.52 902.251 101.7 902.251 102.06C902.251 102.42 902.071 102.6 901.711 102.6ZM896.851 104.58C896.959 104.556 897.691 104.472 899.047 104.328C900.403 104.184 901.165 104.1 901.333 104.076C901.513 104.052 901.639 104.04 901.711 104.04C902.071 104.04 902.251 104.22 902.251 104.58C902.251 104.88 902.071 105.06 901.711 105.12C901.399 105.18 900.517 105.288 899.065 105.444C897.613 105.588 896.845 105.66 896.761 105.66C896.677 105.66 896.581 105.612 896.473 105.516C896.365 105.42 896.311 105.288 896.311 105.12C896.311 104.808 896.491 104.628 896.851 104.58ZM910.36 102.6H909.028C908.38 102.6 907.792 102.666 907.264 102.798C906.688 102.942 906.112 103.086 905.536 103.23C905.284 103.266 905.152 103.284 905.14 103.284C904.78 103.284 904.6 103.104 904.6 102.744C904.6 102.456 904.768 102.276 905.104 102.204C905.14 102.192 905.314 102.15 905.626 102.078C905.95 101.994 906.268 101.916 906.58 101.844C907.432 101.628 908.212 101.52 908.92 101.52H910.36C910.72 101.52 910.9 101.7 910.9 102.06C910.9 102.42 910.72 102.6 910.36 102.6ZM905.5 104.58C905.608 104.556 906.34 104.472 907.696 104.328C909.052 104.184 909.814 104.1 909.982 104.076C910.162 104.052 910.288 104.04 910.36 104.04C910.72 104.04 910.9 104.22 910.9 104.58C910.9 104.88 910.72 105.06 910.36 105.12C910.048 105.18 909.166 105.288 907.714 105.444C906.262 105.588 905.494 105.66 905.41 105.66C905.326 105.66 905.23 105.612 905.122 105.516C905.014 105.42 904.96 105.288 904.96 105.12C904.96 104.808 905.14 104.628 905.5 104.58ZM923.697 95.616C923.805 95.616 923.979 95.676 924.219 95.796C925.299 96.336 926.169 97.428 926.829 99.072C927.501 100.704 927.837 102.6 927.837 104.76C927.837 105.972 927.735 107.352 927.531 108.9C927.327 110.448 927.081 111.804 926.793 112.968C926.685 113.4 926.493 113.616 926.217 113.616C925.857 113.616 925.677 113.436 925.677 113.076C925.677 112.968 925.701 112.818 925.749 112.626C926.421 109.818 926.757 107.196 926.757 104.76C926.757 102.9 926.481 101.214 925.929 99.702C925.389 98.19 924.645 97.2 923.697 96.732C923.337 96.552 923.157 96.36 923.157 96.156C923.157 95.796 923.337 95.616 923.697 95.616ZM830.005 117.616C830.113 117.616 830.287 117.676 830.527 117.796C831.607 118.336 832.477 119.428 833.137 121.072C833.809 122.704 834.145 124.6 834.145 126.76C834.145 127.972 834.043 129.352 833.839 130.9C833.635 132.448 833.389 133.804 833.101 134.968C832.993 135.4 832.801 135.616 832.525 135.616C832.165 135.616 831.985 135.436 831.985 135.076C831.985 134.968 832.009 134.818 832.057 134.626C832.729 131.818 833.065 129.196 833.065 126.76C833.065 124.9 832.789 123.214 832.237 121.702C831.697 120.19 830.953 119.2 830.005 118.732C829.645 118.552 829.465 118.36 829.465 118.156C829.465 117.796 829.645 117.616 830.005 117.616ZM926.758 135.616C926.578 135.616 926.368 135.436 926.128 135.076C925.3 133.84 924.658 132.604 924.202 131.368C923.746 130.144 923.518 128.8 923.518 127.336C923.518 124.504 924.34 121.444 925.984 118.156C926.164 117.796 926.362 117.616 926.578 117.616C926.938 117.616 927.118 117.796 927.118 118.156C927.118 118.264 927.094 118.366 927.046 118.462C925.414 121.726 924.598 124.684 924.598 127.336C924.598 128.68 924.802 129.91 925.21 131.026C925.63 132.142 926.236 133.3 927.028 134.5C927.208 134.764 927.298 134.956 927.298 135.076C927.298 135.436 927.118 135.616 926.758 135.616ZM822.977 157.616C822.797 157.616 822.587 157.436 822.347 157.076C821.519 155.84 820.877 154.604 820.421 153.368C819.965 152.144 819.737 150.8 819.737 149.336C819.737 146.504 820.559 143.444 822.203 140.156C822.383 139.796 822.581 139.616 822.797 139.616C823.157 139.616 823.337 139.796 823.337 140.156C823.337 140.264 823.313 140.366 823.265 140.462C821.633 143.726 820.817 146.684 820.817 149.336C820.817 150.68 821.021 151.91 821.429 153.026C821.849 154.142 822.455 155.3 823.247 156.5C823.427 156.764 823.517 156.956 823.517 157.076C823.517 157.436 823.337 157.616 822.977 157.616ZM933.787 139.616C933.895 139.616 934.069 139.676 934.309 139.796C935.389 140.336 936.259 141.428 936.919 143.072C937.591 144.704 937.927 146.6 937.927 148.76C937.927 149.972 937.825 151.352 937.621 152.9C937.417 154.448 937.171 155.804 936.883 156.968C936.775 157.4 936.583 157.616 936.307 157.616C935.947 157.616 935.767 157.436 935.767 157.076C935.767 156.968 935.791 156.818 935.839 156.626C936.511 153.818 936.847 151.196 936.847 148.76C936.847 146.9 936.571 145.214 936.019 143.702C935.479 142.19 934.735 141.2 933.787 140.732C933.427 140.552 933.247 140.36 933.247 140.156C933.247 139.796 933.427 139.616 933.787 139.616ZM814.328 179.616C814.148 179.616 813.938 179.436 813.698 179.076C812.87 177.84 812.228 176.604 811.772 175.368C811.316 174.144 811.088 172.8 811.088 171.336C811.088 168.504 811.91 165.444 813.554 162.156C813.734 161.796 813.932 161.616 814.148 161.616C814.508 161.616 814.688 161.796 814.688 162.156C814.688 162.264 814.664 162.366 814.616 162.462C812.984 165.726 812.168 168.684 812.168 171.336C812.168 172.68 812.372 173.91 812.78 175.026C813.2 176.142 813.806 177.3 814.598 178.5C814.778 178.764 814.868 178.956 814.868 179.076C814.868 179.436 814.688 179.616 814.328 179.616ZM831.625 179.616C831.445 179.616 831.235 179.436 830.995 179.076C830.167 177.84 829.525 176.604 829.069 175.368C828.613 174.144 828.385 172.8 828.385 171.336C828.385 168.504 829.207 165.444 830.851 162.156C831.031 161.796 831.229 161.616 831.445 161.616C831.805 161.616 831.985 161.796 831.985 162.156C831.985 162.264 831.961 162.366 831.913 162.462C830.281 165.726 829.465 168.684 829.465 171.336C829.465 172.68 829.669 173.91 830.077 175.026C830.497 176.142 831.103 177.3 831.895 178.5C832.075 178.764 832.165 178.956 832.165 179.076C832.165 179.436 831.985 179.616 831.625 179.616ZM855.951 161.616C856.059 161.616 856.233 161.676 856.473 161.796C857.553 162.336 858.423 163.428 859.083 165.072C859.755 166.704 860.091 168.6 860.091 170.76C860.091 171.972 859.989 173.352 859.785 174.9C859.581 176.448 859.335 177.804 859.047 178.968C858.939 179.4 858.747 179.616 858.471 179.616C858.111 179.616 857.931 179.436 857.931 179.076C857.931 178.968 857.955 178.818 858.003 178.626C858.675 175.818 859.011 173.196 859.011 170.76C859.011 168.9 858.735 167.214 858.183 165.702C857.643 164.19 856.899 163.2 855.951 162.732C855.591 162.552 855.411 162.36 855.411 162.156C855.411 161.796 855.591 161.616 855.951 161.616ZM900.813 179.616C900.633 179.616 900.423 179.436 900.183 179.076C899.355 177.84 898.713 176.604 898.257 175.368C897.801 174.144 897.573 172.8 897.573 171.336C897.573 168.504 898.395 165.444 900.039 162.156C900.219 161.796 900.417 161.616 900.633 161.616C900.993 161.616 901.173 161.796 901.173 162.156C901.173 162.264 901.149 162.366 901.101 162.462C899.469 165.726 898.653 168.684 898.653 171.336C898.653 172.68 898.857 173.91 899.265 175.026C899.685 176.142 900.291 177.3 901.083 178.5C901.263 178.764 901.353 178.956 901.353 179.076C901.353 179.436 901.173 179.616 900.813 179.616ZM925.138 161.616C925.246 161.616 925.42 161.676 925.66 161.796C926.74 162.336 927.61 163.428 928.27 165.072C928.942 166.704 929.278 168.6 929.278 170.76C929.278 171.972 929.176 173.352 928.972 174.9C928.768 176.448 928.522 177.804 928.234 178.968C928.126 179.4 927.934 179.616 927.658 179.616C927.298 179.616 927.118 179.436 927.118 179.076C927.118 178.968 927.142 178.818 927.19 178.626C927.862 175.818 928.198 173.196 928.198 170.76C928.198 168.9 927.922 167.214 927.37 165.702C926.83 164.19 926.086 163.2 925.138 162.732C924.778 162.552 924.598 162.36 924.598 162.156C924.598 161.796 924.778 161.616 925.138 161.616ZM942.435 161.616C942.543 161.616 942.717 161.676 942.957 161.796C944.037 162.336 944.907 163.428 945.567 165.072C946.239 166.704 946.575 168.6 946.575 170.76C946.575 171.972 946.473 173.352 946.269 174.9C946.065 176.448 945.819 177.804 945.531 178.968C945.423 179.4 945.231 179.616 944.955 179.616C944.595 179.616 944.415 179.436 944.415 179.076C944.415 178.968 944.439 178.818 944.487 178.626C945.159 175.818 945.495 173.196 945.495 170.76C945.495 168.9 945.219 167.214 944.667 165.702C944.127 164.19 943.383 163.2 942.435 162.732C942.075 162.552 941.895 162.36 941.895 162.156C941.895 161.796 942.075 161.616 942.435 161.616ZM805.68 201.616C805.5 201.616 805.29 201.436 805.05 201.076C804.222 199.84 803.58 198.604 803.124 197.368C802.668 196.144 802.44 194.8 802.44 193.336C802.44 190.504 803.262 187.444 804.906 184.156C805.086 183.796 805.284 183.616 805.5 183.616C805.86 183.616 806.04 183.796 806.04 184.156C806.04 184.264 806.016 184.366 805.968 184.462C804.336 187.726 803.52 190.684 803.52 193.336C803.52 194.68 803.724 195.91 804.132 197.026C804.552 198.142 805.158 199.3 805.95 200.5C806.13 200.764 806.22 200.956 806.22 201.076C806.22 201.436 806.04 201.616 805.68 201.616ZM818.288 196L813.968 196.144C813.296 196.144 812.468 196.12 811.484 196.072C810.512 196.024 809.9 196 809.648 196C809.288 196 809.108 195.82 809.108 195.46C809.108 195.1 809.288 194.92 809.648 194.92C809.9 194.92 810.512 194.944 811.484 194.992C812.468 195.04 813.296 195.064 813.968 195.064L818.288 194.92C818.648 194.92 818.828 195.1 818.828 195.46C818.828 195.82 818.648 196 818.288 196ZM826.937 196L822.617 196.144C821.945 196.144 821.117 196.12 820.133 196.072C819.161 196.024 818.549 196 818.297 196C817.937 196 817.757 195.82 817.757 195.46C817.757 195.1 817.937 194.92 818.297 194.92C818.549 194.92 819.161 194.944 820.133 194.992C821.117 195.04 821.945 195.064 822.617 195.064L826.937 194.92C827.297 194.92 827.477 195.1 827.477 195.46C827.477 195.82 827.297 196 826.937 196ZM831.625 201.616C831.445 201.616 831.235 201.436 830.995 201.076C830.167 199.84 829.525 198.604 829.069 197.368C828.613 196.144 828.385 194.8 828.385 193.336C828.385 190.504 829.207 187.444 830.851 184.156C831.031 183.796 831.229 183.616 831.445 183.616C831.805 183.616 831.985 183.796 831.985 184.156C831.985 184.264 831.961 184.366 831.913 184.462C830.281 187.726 829.465 190.684 829.465 193.336C829.465 194.68 829.669 195.91 830.077 197.026C830.497 198.142 831.103 199.3 831.895 200.5C832.075 200.764 832.165 200.956 832.165 201.076C832.165 201.436 831.985 201.616 831.625 201.616ZM844.234 196L839.914 196.144C839.242 196.144 838.414 196.12 837.43 196.072C836.458 196.024 835.846 196 835.594 196C835.234 196 835.054 195.82 835.054 195.46C835.054 195.1 835.234 194.92 835.594 194.92C835.846 194.92 836.458 194.944 837.43 194.992C838.414 195.04 839.242 195.064 839.914 195.064L844.234 194.92C844.594 194.92 844.774 195.1 844.774 195.46C844.774 195.82 844.594 196 844.234 196ZM852.882 196L848.562 196.144C847.89 196.144 847.062 196.12 846.078 196.072C845.106 196.024 844.494 196 844.242 196C843.882 196 843.702 195.82 843.702 195.46C843.702 195.1 843.882 194.92 844.242 194.92C844.494 194.92 845.106 194.944 846.078 194.992C847.062 195.04 847.89 195.064 848.562 195.064L852.882 194.92C853.242 194.92 853.422 195.1 853.422 195.46C853.422 195.82 853.242 196 852.882 196ZM855.951 183.616C856.059 183.616 856.233 183.676 856.473 183.796C857.553 184.336 858.423 185.428 859.083 187.072C859.755 188.704 860.091 190.6 860.091 192.76C860.091 193.972 859.989 195.352 859.785 196.9C859.581 198.448 859.335 199.804 859.047 200.968C858.939 201.4 858.747 201.616 858.471 201.616C858.111 201.616 857.931 201.436 857.931 201.076C857.931 200.968 857.955 200.818 858.003 200.626C858.675 197.818 859.011 195.196 859.011 192.76C859.011 190.9 858.735 189.214 858.183 187.702C857.643 186.19 856.899 185.2 855.951 184.732C855.591 184.552 855.411 184.36 855.411 184.156C855.411 183.796 855.591 183.616 855.951 183.616ZM870.179 196L865.859 196.144C865.187 196.144 864.359 196.12 863.375 196.072C862.403 196.024 861.791 196 861.539 196C861.179 196 860.999 195.82 860.999 195.46C860.999 195.1 861.179 194.92 861.539 194.92C861.791 194.92 862.403 194.944 863.375 194.992C864.359 195.04 865.187 195.064 865.859 195.064L870.179 194.92C870.539 194.92 870.719 195.1 870.719 195.46C870.719 195.82 870.539 196 870.179 196ZM878.828 196L874.508 196.144C873.836 196.144 873.008 196.12 872.024 196.072C871.052 196.024 870.44 196 870.188 196C869.827 196 869.647 195.82 869.647 195.46C869.647 195.1 869.827 194.92 870.188 194.92C870.44 194.92 871.052 194.944 872.024 194.992C873.008 195.04 873.836 195.064 874.508 195.064L878.828 194.92C879.188 194.92 879.368 195.1 879.368 195.46C879.368 195.82 879.188 196 878.828 196ZM887.476 196L883.156 196.144C882.484 196.144 881.656 196.12 880.672 196.072C879.7 196.024 879.088 196 878.836 196C878.476 196 878.296 195.82 878.296 195.46C878.296 195.1 878.476 194.92 878.836 194.92C879.088 194.92 879.7 194.944 880.672 194.992C881.656 195.04 882.484 195.064 883.156 195.064L887.476 194.92C887.836 194.92 888.016 195.1 888.016 195.46C888.016 195.82 887.836 196 887.476 196ZM896.124 196L891.804 196.144C891.132 196.144 890.304 196.12 889.32 196.072C888.348 196.024 887.736 196 887.484 196C887.124 196 886.944 195.82 886.944 195.46C886.944 195.1 887.124 194.92 887.484 194.92C887.736 194.92 888.348 194.944 889.32 194.992C890.304 195.04 891.132 195.064 891.804 195.064L896.124 194.92C896.484 194.92 896.664 195.1 896.664 195.46C896.664 195.82 896.484 196 896.124 196ZM900.813 201.616C900.633 201.616 900.423 201.436 900.183 201.076C899.355 199.84 898.713 198.604 898.257 197.368C897.801 196.144 897.573 194.8 897.573 193.336C897.573 190.504 898.395 187.444 900.039 184.156C900.219 183.796 900.417 183.616 900.633 183.616C900.993 183.616 901.173 183.796 901.173 184.156C901.173 184.264 901.149 184.366 901.101 184.462C899.469 187.726 898.653 190.684 898.653 193.336C898.653 194.68 898.857 195.91 899.265 197.026C899.685 198.142 900.291 199.3 901.083 200.5C901.263 200.764 901.353 200.956 901.353 201.076C901.353 201.436 901.173 201.616 900.813 201.616ZM913.421 196L909.101 196.144C908.429 196.144 907.601 196.12 906.617 196.072C905.645 196.024 905.033 196 904.781 196C904.421 196 904.241 195.82 904.241 195.46C904.241 195.1 904.421 194.92 904.781 194.92C905.033 194.92 905.645 194.944 906.617 194.992C907.601 195.04 908.429 195.064 909.101 195.064L913.421 194.92C913.781 194.92 913.961 195.1 913.961 195.46C913.961 195.82 913.781 196 913.421 196ZM922.07 196L917.75 196.144C917.078 196.144 916.25 196.12 915.266 196.072C914.294 196.024 913.682 196 913.43 196C913.07 196 912.89 195.82 912.89 195.46C912.89 195.1 913.07 194.92 913.43 194.92C913.682 194.92 914.294 194.944 915.266 194.992C916.25 195.04 917.078 195.064 917.75 195.064L922.07 194.92C922.43 194.92 922.61 195.1 922.61 195.46C922.61 195.82 922.43 196 922.07 196ZM925.138 183.616C925.246 183.616 925.42 183.676 925.66 183.796C926.74 184.336 927.61 185.428 928.27 187.072C928.942 188.704 929.278 190.6 929.278 192.76C929.278 193.972 929.176 195.352 928.972 196.9C928.768 198.448 928.522 199.804 928.234 200.968C928.126 201.4 927.934 201.616 927.658 201.616C927.298 201.616 927.118 201.436 927.118 201.076C927.118 200.968 927.142 200.818 927.19 200.626C927.862 197.818 928.198 195.196 928.198 192.76C928.198 190.9 927.922 189.214 927.37 187.702C926.83 186.19 926.086 185.2 925.138 184.732C924.778 184.552 924.598 184.36 924.598 184.156C924.598 183.796 924.778 183.616 925.138 183.616ZM939.367 196L935.047 196.144C934.375 196.144 933.547 196.12 932.563 196.072C931.591 196.024 930.979 196 930.727 196C930.367 196 930.187 195.82 930.187 195.46C930.187 195.1 930.367 194.92 930.727 194.92C930.979 194.92 931.591 194.944 932.563 194.992C933.547 195.04 934.375 195.064 935.047 195.064L939.367 194.92C939.727 194.92 939.907 195.1 939.907 195.46C939.907 195.82 939.727 196 939.367 196ZM948.015 196L943.695 196.144C943.023 196.144 942.195 196.12 941.211 196.072C940.239 196.024 939.627 196 939.375 196C939.015 196 938.835 195.82 938.835 195.46C938.835 195.1 939.015 194.92 939.375 194.92C939.627 194.92 940.239 194.944 941.211 194.992C942.195 195.04 943.023 195.064 943.695 195.064L948.015 194.92C948.375 194.92 948.555 195.1 948.555 195.46C948.555 195.82 948.375 196 948.015 196ZM951.083 183.616C951.191 183.616 951.365 183.676 951.605 183.796C952.685 184.336 953.555 185.428 954.215 187.072C954.887 188.704 955.223 190.6 955.223 192.76C955.223 193.972 955.121 195.352 954.917 196.9C954.713 198.448 954.467 199.804 954.179 200.968C954.071 201.4 953.879 201.616 953.603 201.616C953.243 201.616 953.063 201.436 953.063 201.076C953.063 200.968 953.087 200.818 953.135 200.626C953.807 197.818 954.143 195.196 954.143 192.76C954.143 190.9 953.867 189.214 953.315 187.702C952.775 186.19 952.031 185.2 951.083 184.732C950.723 184.552 950.543 184.36 950.543 184.156C950.543 183.796 950.723 183.616 951.083 183.616Z" fill="black"/>
<path d="M421.375 25.5H424.75V26.625H420.25V25.5H419.125V24.375H416.875V25.5H415.75V26.625H411.25V25.5H414.625V24.375H415.75V23.25H416.875V21H411.25V19.875H416.875V17.625H419.125V19.875H424.75V21H419.125V23.25H420.25V24.375H421.375V25.5ZM419.125 30H425.875V31.125H410.125V30H416.875V26.625H419.125V30ZM442.75 32.25H440.5V17.625H442.75V32.25ZM431.5 28.875H432.625V19.875H428.125V18.75H434.875V28.875H433.75V30H432.625V31.125H429.25V30H431.5V28.875ZM449.5 30V26.625H448.375V25.5H447.25V24.375H446.125V22.125H447.25V21H448.375V19.875H446.125V18.75H449.5V17.625H451.75V18.75H455.125V19.875H452.875V21H454V22.125H455.125V24.375H454V25.5H452.875V26.625H451.75V30H457.375V17.625H459.625V24.375H463V25.5H459.625V32.25H457.375V31.125H446.125V30H449.5ZM449.5 21V22.125H448.375V24.375H449.5V25.5H451.75V24.375H452.875V22.125H451.75V21H449.5ZM465.25 25.5V24.375H464.125V17.625H473.125V19.875H476.5V17.625H478.75V25.5H476.5V23.25H473.125V24.375H472V25.5H465.25ZM470.875 18.75H466.375V24.375H470.875V18.75ZM476.5 21H473.125V22.125H476.5V21ZM467.5 31.125H478.75V32.25H466.375V31.125H465.25V26.625H467.5V31.125Z" fill="black"/>
<path d="M30.625 21V30H28.375V21H26.125V19.875H32.875V21H30.625ZM40.75 19.875V21H41.875V28.875H40.75V30H36.25V28.875H35.125V21H36.25V19.875H40.75ZM39.625 21H37.375V28.875H39.625V21ZM50.875 21V24.375H49.75V25.5H46.375V30H44.125V19.875H49.75V21H50.875ZM48.625 21H46.375V24.375H48.625V21Z" fill="black"/>
<path d="M62.25 511.375V497.875H66.75V499H64.5V510.25H66.75V511.375H62.25ZM93.75 510.25H91.5V495.625H93.75V510.25ZM82.5 506.875H83.625V497.875H79.125V496.75H85.875V506.875H84.75V508H83.625V509.125H80.25V508H82.5V506.875ZM98.25 500.125V495.625H100.5V497.875H109.5V495.625H111.75V500.125H110.625V501.25H106.125V502.375H112.875V503.5H97.125V502.375H103.875V501.25H99.375V500.125H98.25ZM109.5 500.125V499H100.5V500.125H109.5ZM100.5 509.125H111.75V510.25H99.375V509.125H98.25V504.625H100.5V509.125ZM129.75 510.25H127.5V503.5H124.125V502.375H127.5V495.625H129.75V510.25ZM121.875 508H120.75V506.875H118.5V508H117.375V509.125H115.125V508H116.25V506.875H117.375V505.75H118.5V496.75H120.75V505.75H121.875V506.875H123V508H124.125V509.125H121.875V508ZM147.75 510.25H145.5V495.625H147.75V510.25ZM134.25 508H133.125V496.75H135.375V502.375H138.75V496.75H141V508H139.875V509.125H134.25V508ZM138.75 503.5H135.375V508H138.75V503.5ZM161.25 502.375H160.125V501.25H157.875V502.375H156.75V503.5H152.25V502.375H155.625V501.25H156.75V500.125H157.875V496.75H160.125V500.125H161.25V501.25H162.375V502.375H165.75V503.5H161.25V502.375ZM166.875 509.125H151.125V508H166.875V509.125ZM179.25 511.375V510.25H181.5V499H179.25V497.875H183.75V511.375H179.25ZM219.75 497.875V508H217.5V501.25H214.125V500.125H216.375V499H217.5V497.875H219.75ZM225.375 508V505.75H228.75V508H225.375ZM233.25 496.75V495.625H246.75V501.25H245.625V502.375H247.875V503.5H232.125V502.375H243.375V501.25H244.5V496.75H233.25ZM234.375 509.125H233.25V506.875H244.5V505.75H233.25V504.625H246.75V508H235.5V509.125H246.75V510.25H234.375V509.125ZM263.625 503.5H264.75V504.625H262.5V503.5H261.375V502.375H259.125V503.5H258V504.625H255.75V503.5H256.875V502.375H254.625V503.5H253.5V504.625H251.25V503.5H252.375V502.375H253.5V501.25H254.625V496.75H256.875V501.25H259.125V496.75H261.375V501.25H262.5V502.375H263.625V503.5ZM265.875 509.125H250.125V508H265.875V509.125ZM282.75 510.25H280.5V495.625H282.75V510.25ZM271.5 506.875H272.625V497.875H268.125V496.75H274.875V506.875H273.75V508H272.625V509.125H269.25V508H271.5V506.875ZM326.625 502.375V499H324.375V501.25H322.125V499H323.25V497.875H327.75V499H328.875V502.375H327.75V503.5H326.625V504.625H325.5V505.75H324.375V506.875H328.875V508H322.125V505.75H323.25V504.625H324.375V503.5H325.5V502.375H326.625ZM333.375 508V505.75H336.75V508H333.375ZM350.25 496.75H349.125V495.625H358.125V496.75H357V502.375H358.125V503.5H349.125V502.375H350.25V496.75ZM358.125 497.875H361.5V495.625H363.75V503.5H361.5V501.25H358.125V500.125H361.5V499H358.125V497.875ZM354.75 496.75H352.5V502.375H354.75V496.75ZM352.5 509.125H363.75V510.25H351.375V509.125H350.25V504.625H352.5V509.125ZM376.125 503.5H373.875V502.375H372.75V501.25H370.5V502.375H369.375V503.5H367.125V502.375H368.25V501.25H369.375V500.125H370.5V496.75H367.125V495.625H376.125V496.75H372.75V500.125H373.875V501.25H375V502.375H376.125V503.5ZM381.75 503.5H379.5V495.625H381.75V503.5ZM369.375 509.125H368.25V504.625H370.5V506.875H379.5V504.625H381.75V509.125H380.625V510.25H369.375V509.125ZM379.5 508H370.5V509.125H379.5V508ZM425.625 506.875V503.5H423.375V502.375H425.625V499H423.375V501.25H421.125V499H422.25V497.875H426.75V499H427.875V502.375H426.75V503.5H427.875V506.875H426.75V508H422.25V506.875H421.125V504.625H423.375V506.875H425.625ZM432.375 508V505.75H435.75V508H432.375ZM453.75 510.25H451.5V495.625H453.75V510.25ZM448.125 509.125H445.875V508H444.75V506.875H442.5V508H441.375V509.125H439.125V508H440.25V506.875H441.375V505.75H442.5V497.875H439.125V496.75H448.125V497.875H444.75V505.75H445.875V506.875H447V508H448.125V509.125ZM469.5 503.5H460.5V502.375H459.375V501.25H458.25V499H459.375V497.875H460.5V496.75H469.5V497.875H470.625V499H471.75V501.25H470.625V502.375H469.5V503.5ZM461.625 499H460.5V501.25H461.625V502.375H468.375V501.25H469.5V499H468.375V497.875H461.625V499ZM472.875 505.75H466.125V510.25H463.875V505.75H457.125V504.625H472.875V505.75ZM489.75 510.25H487.5V495.625H489.75V510.25ZM478.5 506.875H479.625V497.875H475.125V496.75H481.875V506.875H480.75V508H479.625V509.125H476.25V508H478.5V506.875Z" fill="black"/>
<path d="M75.125 159V157.875H76.25V156.75H77.375V155.625H78.5V154.5H79.625V153.375H78.5V152.25H77.375V151.125H76.25V150H75.125V148.875H77.375V150H78.5V151.125H79.625V152.25H80.75V153.375H81.875V154.5H80.75V155.625H79.625V156.75H78.5V157.875H77.375V159H75.125ZM97.625 153.375V148.875H99.875V159H97.625V154.5H95.375V159H93.125V148.875H95.375V153.375H97.625ZM107.75 148.875V150H108.875V157.875H107.75V159H103.25V157.875H102.125V150H103.25V148.875H107.75ZM106.625 150H104.375V157.875H106.625V150ZM115.625 150V159H113.375V150H111.125V148.875H117.875V150H115.625ZM228.125 159V148.875H230.375V151.125H231.5V152.25H232.625V153.375H233.75V148.875H236V159H233.75V155.625H232.625V154.5H231.5V153.375H230.375V159H228.125ZM243.875 148.875V150H239.375V153.375H242.75V154.5H239.375V159H237.125V148.875H243.875ZM250.625 150V159H248.375V150H246.125V148.875H252.875V150H250.625ZM256.25 148.875H267.5V147.75H256.25V146.625H269.75V150H258.5V151.125H269.75V152.25H257.375V151.125H256.25V148.875ZM270.875 154.5H255.125V153.375H270.875V154.5ZM256.25 157.875H267.5V156.75H256.25V155.625H269.75V159H258.5V160.125H269.75V161.25H257.375V160.125H256.25V157.875ZM296.75 152.25H292.25V151.125H291.125V150H288.875V151.125H287.75V152.25H283.25V151.125H286.625V150H287.75V148.875H288.875V147.75H283.25V146.625H296.75V147.75H291.125V148.875H292.25V150H293.375V151.125H296.75V152.25ZM291.125 153.375H297.875V154.5H282.125V153.375H288.875V151.125H291.125V153.375ZM295.625 161.25H284.375V160.125H283.25V159H284.375V157.875H283.25V156.75H288.875V155.625H291.125V156.75H296.75V157.875H295.625V159H296.75V160.125H295.625V161.25ZM294.5 159H285.5V160.125H294.5V159ZM313.625 153.375H317V154.5H313.625V161.25H311.375V146.625H313.625V153.375ZM306.875 160.125H302.375V159H301.25V157.875H300.125V150H301.25V148.875H302.375V147.75H306.875V148.875H308V150H309.125V157.875H308V159H306.875V160.125ZM303.5 150H302.375V157.875H303.5V159H305.75V157.875H306.875V150H305.75V148.875H303.5V150ZM323.75 147.75H327.125V148.875H318.125V147.75H321.5V146.625H323.75V147.75ZM331.625 153.375H335V154.5H331.625V161.25H329.375V146.625H331.625V153.375ZM324.875 160.125H320.375V159H319.25V157.875H318.125V152.25H319.25V151.125H320.375V150H324.875V151.125H326V152.25H327.125V157.875H326V159H324.875V160.125ZM321.5 152.25H320.375V157.875H321.5V159H323.75V157.875H324.875V152.25H323.75V151.125H321.5V152.25ZM339.5 151.125H350.75V152.25H338.375V151.125H337.25V146.625H339.5V151.125ZM351.875 154.5H336.125V153.375H351.875V154.5ZM339.5 160.125H350.75V161.25H338.375V160.125H337.25V155.625H339.5V160.125ZM376.625 153.375H380V154.5H376.625V161.25H374.375V146.625H376.625V153.375ZM369.875 159H368.75V157.875H366.5V159H365.375V160.125H363.125V159H364.25V157.875H365.375V156.75H366.5V147.75H368.75V156.75H369.875V157.875H371V159H372.125V160.125H369.875V159ZM381.125 150H387.875V147.75H381.125V146.625H390.125V151.125H383.375V153.375H390.125V154.5H382.25V153.375H381.125V150ZM394.625 150H398V151.125H394.625V154.5H392.375V146.625H394.625V150ZM394.625 160.125H393.5V161.25H383.375V160.125H382.25V155.625H394.625V160.125ZM392.375 156.75H384.5V160.125H392.375V156.75ZM400.25 146.625H413.75V147.75H402.5V151.125H413.75V152.25H401.375V151.125H400.25V146.625ZM414.875 154.5H399.125V153.375H414.875V154.5ZM400.25 157.875H411.5V156.75H400.25V155.625H413.75V159H402.5V160.125H413.75V161.25H401.375V160.125H400.25V157.875ZM431.75 161.25H429.5V160.125H417.125V159H429.5V146.625H431.75V161.25ZM423.875 155.625H419.375V154.5H418.25V153.375H417.125V150H418.25V148.875H419.375V147.75H423.875V148.875H425V150H426.125V153.375H425V154.5H423.875V155.625ZM420.5 150H419.375V153.375H420.5V154.5H422.75V153.375H423.875V150H422.75V148.875H420.5V150ZM445.25 154.5V147.75H458.75V154.5H457.625V155.625H453.125V159H459.875V160.125H444.125V159H450.875V155.625H446.375V154.5H445.25ZM456.5 154.5V148.875H447.5V154.5H456.5ZM468.875 154.5H464.375V153.375H463.25V152.25H462.125V148.875H463.25V147.75H464.375V146.625H468.875V147.75H470V148.875H471.125V152.25H470V153.375H468.875V154.5ZM476.75 154.5H474.5V146.625H476.75V154.5ZM465.5 148.875H464.375V152.25H465.5V153.375H467.75V152.25H468.875V148.875H467.75V147.75H465.5V148.875ZM476.75 160.125H475.625V161.25H464.375V160.125H463.25V155.625H476.75V160.125ZM474.5 156.75H465.5V160.125H474.5V156.75ZM484.625 148.875V150H485.75V153.375H484.625V155.625H482.375V153.375H481.25V150H482.375V148.875H484.625ZM482.375 159V156.75H484.625V159H482.375ZM228.125 177V166.875H230.375V169.125H231.5V170.25H232.625V171.375H233.75V166.875H236V177H233.75V173.625H232.625V172.5H231.5V171.375H230.375V177H228.125ZM243.875 166.875V168H239.375V171.375H242.75V172.5H239.375V177H237.125V166.875H243.875ZM250.625 168V177H248.375V168H246.125V166.875H252.875V168H250.625ZM263 177H261.875V178.125H257.375V177H256.25V175.875H255.125V168H256.25V166.875H257.375V165.75H261.875V166.875H263V168H264.125V171.375H265.25V164.625H267.5V179.25H265.25V172.5H264.125V175.875H263V177ZM270.875 164.625V179.25H268.625V164.625H270.875ZM258.5 177H260.75V175.875H261.875V168H260.75V166.875H258.5V168H257.375V175.875H258.5V177ZM294.5 179.25H292.25V164.625H294.5V171.375H295.625V164.625H297.875V179.25H295.625V172.5H294.5V179.25ZM288.875 178.125H283.25V177H282.125V165.75H290V166.875H284.375V177H287.75V175.875H290V177H288.875V178.125ZM306.875 172.5H302.375V171.375H300.125V168H302.375V166.875H300.125V165.75H303.5V164.625H305.75V165.75H309.125V166.875H306.875V168H309.125V171.375H306.875V172.5ZM313.625 168H317V169.125H313.625V172.5H311.375V164.625H313.625V168ZM303.5 169.125H302.375V170.25H303.5V171.375H305.75V170.25H306.875V169.125H305.75V168H303.5V169.125ZM303.5 178.125H313.625V179.25H302.375V178.125H301.25V173.625H303.5V178.125ZM336.125 172.5H333.875V171.375H332.75V170.25H330.5V171.375H329.375V172.5H327.125V171.375H328.25V170.25H329.375V169.125H330.5V165.75H327.125V164.625H336.125V165.75H332.75V169.125H333.875V170.25H335V171.375H336.125V172.5ZM341.75 172.5H339.5V169.125H336.125V168H339.5V164.625H341.75V172.5ZM328.25 174.75H330.5V173.625H339.5V174.75H341.75V178.125H339.5V179.25H330.5V178.125H328.25V174.75ZM331.625 175.875H330.5V177H331.625V178.125H338.375V177H339.5V175.875H338.375V174.75H331.625V175.875ZM346.25 172.5V165.75H348.5V169.125H357.5V165.75H359.75V172.5H358.625V173.625H354.125V177H360.875V178.125H345.125V177H351.875V173.625H347.375V172.5H346.25ZM357.5 172.5V170.25H348.5V172.5H357.5ZM364.25 164.625H377.75V165.75H366.5V169.125H377.75V170.25H365.375V169.125H364.25V164.625ZM378.875 172.5H363.125V171.375H378.875V172.5ZM364.25 175.875H375.5V174.75H364.25V173.625H377.75V177H366.5V178.125H377.75V179.25H365.375V178.125H364.25V175.875ZM384.5 177V171.375H386.75V172.5H387.875V166.875H381.125V165.75H390.125V172.5H389V173.625H386.75V177H392.375V164.625H394.625V171.375H398V172.5H394.625V179.25H392.375V178.125H381.125V177H384.5ZM408.125 168H413.75V165.75H408.125V164.625H416V171.375H414.875V172.5H409.25V171.375H413.75V169.125H408.125V168ZM422.75 172.5H420.5V169.125H417.125V168H420.5V164.625H422.75V172.5ZM411.5 178.125H422.75V179.25H410.375V178.125H409.25V173.625H411.5V178.125ZM440.75 179.25H438.5V172.5H435.125V171.375H438.5V164.625H440.75V179.25ZM427.25 166.875H426.125V165.75H434V166.875H432.875V177H434V178.125H426.125V177H427.25V166.875ZM430.625 166.875H429.5V177H430.625V166.875ZM445.25 172.5V171.375H444.125V168H450.875V165.75H444.125V164.625H453.125V168H456.5V164.625H458.75V172.5H456.5V169.125H446.375V171.375H453.125V172.5H445.25ZM447.5 178.125H458.75V179.25H446.375V178.125H445.25V173.625H447.5V178.125ZM472.25 171.375H471.125V170.25H468.875V171.375H467.75V172.5H463.25V171.375H466.625V170.25H467.75V169.125H468.875V165.75H471.125V169.125H472.25V170.25H473.375V171.375H476.75V172.5H472.25V171.375ZM477.875 178.125H462.125V177H477.875V178.125ZM498.125 172.5H495.875V171.375H494.75V170.25H492.5V171.375H491.375V172.5H489.125V171.375H490.25V170.25H491.375V169.125H492.5V165.75H489.125V164.625H498.125V165.75H494.75V169.125H495.875V170.25H497V171.375H498.125V172.5ZM503.75 172.5H501.5V169.125H498.125V168H501.5V164.625H503.75V172.5ZM490.25 174.75H492.5V173.625H501.5V174.75H503.75V178.125H501.5V179.25H492.5V178.125H490.25V174.75ZM493.625 175.875H492.5V177H493.625V178.125H500.375V177H501.5V175.875H500.375V174.75H493.625V175.875ZM508.25 172.5V165.75H510.5V169.125H519.5V165.75H521.75V172.5H520.625V173.625H516.125V177H522.875V178.125H507.125V177H513.875V173.625H509.375V172.5H508.25ZM519.5 172.5V170.25H510.5V172.5H519.5ZM538.625 171.375H542V172.5H538.625V179.25H536.375V164.625H538.625V171.375ZM528.5 175.875H529.625V166.875H525.125V165.75H531.875V175.875H530.75V177H529.625V178.125H526.25V177H528.5V175.875ZM565.625 171.375H569V172.5H565.625V179.25H563.375V164.625H565.625V171.375ZM555.5 175.875H556.625V166.875H552.125V165.75H558.875V175.875H557.75V177H556.625V178.125H553.25V177H555.5V175.875ZM571.25 164.625H584.75V165.75H573.5V169.125H584.75V170.25H572.375V169.125H571.25V164.625ZM585.875 172.5H570.125V171.375H585.875V172.5ZM584.75 178.125H583.625V179.25H582.5V174.75H571.25V173.625H584.75V178.125ZM592.625 166.875V168H593.75V171.375H592.625V173.625H590.375V171.375H589.25V168H590.375V166.875H592.625ZM590.375 177V174.75H592.625V177H590.375ZM606.125 177V166.875H608.375V169.125H609.5V170.25H610.625V171.375H611.75V166.875H614V177H611.75V173.625H610.625V172.5H609.5V171.375H608.375V177H606.125ZM621.875 166.875V168H617.375V171.375H620.75V172.5H617.375V177H615.125V166.875H621.875ZM628.625 168V177H626.375V168H624.125V166.875H630.875V168H628.625ZM643.25 169.125V164.625H656.75V165.75H645.5V169.125H656.75V170.25H651.125V171.375H657.875V172.5H642.125V171.375H648.875V170.25H644.375V169.125H643.25ZM643.25 174.75H645.5V173.625H654.5V174.75H656.75V178.125H654.5V179.25H645.5V178.125H643.25V174.75ZM646.625 178.125H653.375V177H654.5V175.875H653.375V174.75H646.625V175.875H645.5V177H646.625V178.125ZM661.25 172.5V169.125H663.5V168H661.25V166.875H666.875V164.625H669.125V166.875H674.75V168H672.5V169.125H674.75V172.5H672.5V173.625H669.125V177H675.875V178.125H660.125V177H666.875V173.625H663.5V172.5H661.25ZM663.5 170.25V171.375H664.625V172.5H671.375V171.375H672.5V170.25H671.375V169.125H664.625V170.25H663.5ZM680.375 173.625V172.5H679.25V171.375H678.125V169.125H679.25V168H680.375V166.875H678.125V165.75H681.5V164.625H683.75V165.75H687.125V166.875H684.875V168H686V169.125H687.125V171.375H686V172.5H684.875V173.625H683.75V177H690.5V164.625H692.75V179.25H690.5V178.125H678.125V177H681.5V173.625H680.375ZM681.5 168V169.125H680.375V171.375H681.5V172.5H683.75V171.375H684.875V169.125H683.75V168H681.5ZM700.625 166.875V168H701.75V171.375H700.625V173.625H698.375V171.375H697.25V168H698.375V166.875H700.625ZM698.375 177V174.75H700.625V177H698.375ZM233.75 187.125V188.25H234.875V195H232.625V188.25H230.375V195H228.125V184.875H230.375V187.125H233.75ZM240.5 184.875V187.125H243.875V188.25H240.5V193.875H243.875V195H239.375V193.875H238.25V188.25H237.125V187.125H238.25V184.875H240.5ZM249.5 184.875V187.125H252.875V188.25H249.5V193.875H252.875V195H248.375V193.875H247.25V188.25H246.125V187.125H247.25V184.875H249.5ZM261.875 188.25V193.875H260.75V195H257.375V198.375H255.125V187.125H260.75V188.25H261.875ZM259.625 188.25H257.375V193.875H259.625V188.25ZM264.125 190.5V188.25H265.25V187.125H270.875V188.25H266.375V190.5H269.75V191.625H270.875V193.875H269.75V195H264.125V193.875H268.625V191.625H265.25V190.5H264.125ZM275.375 189.375V187.125H278.75V189.375H275.375ZM275.375 195V192.75H278.75V195H275.375ZM282.125 196.125V193.875H283.25V191.625H284.375V189.375H285.5V187.125H286.625V184.875H288.875V187.125H287.75V189.375H286.625V191.625H285.5V193.875H284.375V196.125H282.125ZM291.125 196.125V193.875H292.25V191.625H293.375V189.375H294.5V187.125H295.625V184.875H297.875V187.125H296.75V189.375H295.625V191.625H294.5V193.875H293.375V196.125H291.125ZM302.375 187.125V192.75H303.5V195H301.25V192.75H300.125V187.125H302.375ZM305.75 187.125H308V192.75H306.875V195H304.625V192.75H305.75V187.125ZM303.5 188.25H304.625V192.75H303.5V188.25ZM311.375 187.125V192.75H312.5V195H310.25V192.75H309.125V187.125H311.375ZM314.75 187.125H317V192.75H315.875V195H313.625V192.75H314.75V187.125ZM312.5 188.25H313.625V192.75H312.5V188.25ZM320.375 187.125V192.75H321.5V195H319.25V192.75H318.125V187.125H320.375ZM323.75 187.125H326V192.75H324.875V195H322.625V192.75H323.75V187.125ZM321.5 188.25H322.625V192.75H321.5V188.25ZM329.375 195V192.75H332.75V195H329.375ZM336.125 193.875V188.25H337.25V187.125H342.875V197.25H341.75V198.375H336.125V197.25H340.625V195H337.25V193.875H336.125ZM340.625 188.25H338.375V193.875H340.625V188.25ZM346.25 188.25V187.125H350.75V188.25H351.875V191.625H347.375V193.875H350.75V195H346.25V193.875H345.125V188.25H346.25ZM349.625 188.25H347.375V190.5H349.625V188.25ZM360.875 188.25V195H358.625V188.25H356.375V195H354.125V187.125H359.75V188.25H360.875ZM364.25 188.25V187.125H368.75V188.25H369.875V191.625H365.375V193.875H368.75V195H364.25V193.875H363.125V188.25H364.25ZM367.625 188.25H365.375V190.5H367.625V188.25ZM374.375 197.25V196.125H375.5V195H373.25V193.875H372.125V187.125H374.375V193.875H376.625V187.125H378.875V193.875H377.75V196.125H376.625V197.25H375.5V198.375H371V197.25H374.375ZM381.125 190.5V188.25H382.25V187.125H387.875V188.25H383.375V190.5H386.75V191.625H387.875V193.875H386.75V195H381.125V193.875H385.625V191.625H382.25V190.5H381.125ZM392.375 186V184.875H396.875V186H393.5V189.375H396.875V190.5H393.5V195H391.25V190.5H390.125V189.375H391.25V186H392.375ZM405.875 187.125V195H400.25V193.875H399.125V187.125H401.375V193.875H403.625V187.125H405.875ZM414.875 188.25V195H412.625V188.25H410.375V195H408.125V187.125H413.75V188.25H414.875ZM422.75 187.125V188.25H423.875V189.375H421.625V188.25H419.375V193.875H421.625V192.75H423.875V193.875H422.75V195H418.25V193.875H417.125V188.25H418.25V187.125H422.75ZM429.5 184.875V187.125H432.875V188.25H429.5V193.875H432.875V195H428.375V193.875H427.25V188.25H426.125V187.125H427.25V184.875H429.5ZM437.375 186V183.75H439.625V186H437.375ZM441.875 193.875V195H435.125V193.875H437.375V188.25H435.125V187.125H439.625V193.875H441.875ZM449.75 187.125V188.25H450.875V193.875H449.75V195H445.25V193.875H444.125V188.25H445.25V187.125H449.75ZM448.625 188.25H446.375V193.875H448.625V188.25ZM459.875 188.25V195H457.625V188.25H455.375V195H453.125V187.125H458.75V188.25H459.875ZM464.375 195V192.75H467.75V195H464.375ZM476.75 187.125V188.25H477.875V189.375H475.625V188.25H473.375V193.875H475.625V192.75H477.875V193.875H476.75V195H472.25V193.875H471.125V188.25H472.25V187.125H476.75ZM485.75 187.125V188.25H486.875V193.875H485.75V195H481.25V193.875H480.125V188.25H481.25V187.125H485.75ZM484.625 188.25H482.375V193.875H484.625V188.25ZM489.125 195V187.125H495.875V188.25H497V195H494.75V188.25H493.625V193.875H492.5V188.25H491.375V195H489.125Z" fill="black"/>
<path d="M236.625 309.25V310.375H237.75V312.625H236.625V313.75H234.375V312.625H233.25V310.375H234.375V309.25H236.625ZM263.625 318.25H261.375V303.625H263.625V308.125H267V309.25H263.625V312.625H267V313.75H263.625V318.25ZM256.875 317.125H252.375V316H251.25V314.875H250.125V307H251.25V305.875H252.375V304.75H256.875V305.875H258V307H259.125V314.875H258V316H256.875V317.125ZM253.5 307H252.375V314.875H253.5V316H255.75V314.875H256.875V307H255.75V305.875H253.5V307ZM289.5 318.25H287.25V303.625H289.5V310.375H290.625V303.625H292.875V318.25H290.625V311.5H289.5V318.25ZM278.25 316H277.125V304.75H279.375V316H283.875V314.875H286.125V316H285V317.125H278.25V316ZM296.25 308.125V303.625H309.75V304.75H298.5V308.125H309.75V309.25H304.125V310.375H310.875V311.5H295.125V310.375H301.875V309.25H297.375V308.125H296.25ZM298.5 317.125H309.75V318.25H297.375V317.125H296.25V312.625H298.5V317.125ZM334.5 318.25H332.25V303.625H334.5V310.375H335.625V303.625H337.875V318.25H335.625V311.5H334.5V318.25ZM323.25 316H322.125V304.75H324.375V316H328.875V314.875H331.125V316H330V317.125H323.25V316ZM343.5 316V312.625H341.25V311.5H340.125V304.75H342.375V311.5H349.125V312.625H345.75V316H351.375V303.625H353.625V310.375H357V311.5H353.625V318.25H351.375V317.125H340.125V316H343.5ZM362.625 305.875V307H363.75V310.375H362.625V312.625H360.375V310.375H359.25V307H360.375V305.875H362.625ZM360.375 316V313.75H362.625V316H360.375ZM236.625 327.25V328.375H237.75V330.625H236.625V331.75H234.375V330.625H233.25V328.375H234.375V327.25H236.625ZM256.875 334V335.125H252.375V334H251.25V332.875H250.125V325H251.25V323.875H252.375V322.75H256.875V323.875H258V325H259.125V328.375H262.5V321.625H264.75V336.25H262.5V329.5H259.125V332.875H258V334H256.875ZM253.5 334H255.75V332.875H256.875V325H255.75V323.875H253.5V325H252.375V332.875H253.5V334ZM282.75 336.25H280.5V321.625H282.75V336.25ZM274.875 335.125H269.25V334H268.125V322.75H276V323.875H270.375V334H273.75V332.875H276V334H274.875V335.125ZM300.75 336.25H298.5V329.5H295.125V328.375H298.5V321.625H300.75V336.25ZM292.875 334H291.75V332.875H289.5V334H288.375V335.125H286.125V334H287.25V332.875H288.375V331.75H289.5V322.75H291.75V331.75H292.875V332.875H294V334H295.125V335.125H292.875V334ZM323.25 328.375H322.125V327.25H319.875V328.375H318.75V329.5H314.25V328.375H317.625V327.25H318.75V326.125H319.875V322.75H322.125V326.125H323.25V327.25H324.375V328.375H327.75V329.5H323.25V328.375ZM328.875 335.125H313.125V334H328.875V335.125ZM343.5 336.25H341.25V329.5H339V328.375H341.25V321.625H343.5V336.25ZM346.875 336.25H344.625V321.625H346.875V336.25ZM336.75 332.875H339V334H337.875V335.125H332.25V334H331.125V322.75H339V323.875H333.375V327.25H339V328.375H333.375V334H336.75V332.875ZM363.75 336.25H361.5V321.625H363.75V336.25ZM355.875 335.125H351.375V334H350.25V332.875H349.125V325H350.25V323.875H351.375V322.75H355.875V323.875H357V325H358.125V332.875H357V334H355.875V335.125ZM352.5 325H351.375V332.875H352.5V334H354.75V332.875H355.875V325H354.75V323.875H352.5V325ZM367.125 325H372.75V322.75H367.125V321.625H375V328.375H373.875V329.5H368.25V328.375H372.75V326.125H367.125V325ZM381.75 329.5H379.5V321.625H381.75V329.5ZM368.25 331.75H370.5V330.625H379.5V331.75H381.75V335.125H379.5V336.25H370.5V335.125H368.25V331.75ZM371.625 332.875H370.5V334H371.625V335.125H378.375V334H379.5V332.875H378.375V331.75H371.625V332.875ZM399.75 322.75H403.125V323.875H394.125V322.75H397.5V321.625H399.75V322.75ZM407.625 328.375H411V329.5H407.625V336.25H405.375V321.625H407.625V328.375ZM400.875 335.125H396.375V334H395.25V332.875H394.125V327.25H395.25V326.125H396.375V325H400.875V326.125H402V327.25H403.125V332.875H402V334H400.875V335.125ZM397.5 327.25H396.375V332.875H397.5V334H399.75V332.875H400.875V327.25H399.75V326.125H397.5V327.25ZM425.625 328.375H429V329.5H425.625V336.25H423.375V321.625H425.625V328.375ZM413.25 334H412.125V322.75H414.375V334H418.875V332.875H421.125V334H420V335.125H413.25V334ZM431.25 328.375V325H432.375V323.875H433.5V322.75H442.5V323.875H443.625V325H444.75V328.375H443.625V329.5H442.5V334H445.875V335.125H430.125V334H433.5V329.5H432.375V328.375H431.25ZM441.375 323.875H434.625V325H433.5V328.375H434.625V329.5H441.375V328.375H442.5V325H441.375V323.875ZM440.25 330.625H435.75V334H440.25V330.625ZM452.625 327.25V325H450.375V327.25H448.125V325H449.25V323.875H453.75V325H454.875V327.25H453.75V328.375H452.625V330.625H450.375V328.375H451.5V327.25H452.625ZM450.375 334V331.75H452.625V334H450.375ZM236.625 345.25V346.375H237.75V348.625H236.625V349.75H234.375V348.625H233.25V346.375H234.375V345.25H236.625ZM250.125 339.625H259.125V340.75H252.375V346.375H259.125V347.5H251.25V346.375H250.125V339.625ZM263.625 343H267V344.125H263.625V347.5H261.375V339.625H263.625V343ZM251.25 350.875H261.375V349.75H251.25V348.625H263.625V352H253.5V353.125H263.625V354.25H252.375V353.125H251.25V350.875ZM281.625 346.375H285V347.5H281.625V354.25H279.375V339.625H281.625V346.375ZM269.25 352H268.125V340.75H270.375V352H274.875V350.875H277.125V352H276V353.125H269.25V352ZM299.625 346.375H303V347.5H299.625V354.25H297.375V339.625H299.625V346.375ZM292.875 353.125H287.25V352H286.125V345.25H291.75V341.875H286.125V340.75H294V346.375H288.375V352H291.75V350.875H294V352H292.875V353.125ZM326.625 346.375H330V347.5H326.625V354.25H324.375V339.625H326.625V346.375ZM316.5 350.875H317.625V341.875H313.125V340.75H319.875V350.875H318.75V352H317.625V353.125H314.25V352H316.5V350.875ZM345.75 348.625H341.25V347.5H340.125V346.375H337.875V347.5H336.75V348.625H332.25V347.5H335.625V346.375H336.75V345.25H337.875V341.875H332.25V340.75H345.75V341.875H340.125V345.25H341.25V346.375H342.375V347.5H345.75V348.625ZM346.875 353.125H331.125V352H346.875V353.125ZM362.625 346.375H366V347.5H362.625V354.25H360.375V339.625H362.625V346.375ZM355.875 353.125H351.375V352H350.25V350.875H349.125V343H350.25V341.875H351.375V340.75H355.875V341.875H357V343H358.125V350.875H357V352H355.875V353.125ZM352.5 343H351.375V350.875H352.5V352H354.75V350.875H355.875V343H354.75V341.875H352.5V343ZM371.625 341.875V343H372.75V346.375H371.625V348.625H369.375V346.375H368.25V343H369.375V341.875H371.625ZM369.375 352V349.75H371.625V352H369.375ZM380.625 341.875V343H381.75V346.375H380.625V348.625H378.375V346.375H377.25V343H378.375V341.875H380.625ZM378.375 352V349.75H380.625V352H378.375ZM389.625 341.875V343H390.75V346.375H389.625V348.625H387.375V346.375H386.25V343H387.375V341.875H389.625ZM387.375 352V349.75H389.625V352H387.375ZM398.625 341.875V343H399.75V346.375H398.625V348.625H396.375V346.375H395.25V343H396.375V341.875H398.625ZM396.375 352V349.75H398.625V352H396.375ZM236.625 363.25V364.375H237.75V366.625H236.625V367.75H234.375V366.625H233.25V364.375H234.375V363.25H236.625ZM264.75 372.25H262.5V357.625H264.75V372.25ZM256.875 371.125H252.375V370H251.25V368.875H250.125V361H251.25V359.875H252.375V358.75H256.875V359.875H258V361H259.125V368.875H258V370H256.875V371.125ZM253.5 361H252.375V368.875H253.5V370H255.75V368.875H256.875V361H255.75V359.875H253.5V361ZM268.125 357.625H274.875V364.375H273.75V365.5H269.25V364.375H272.625V358.75H268.125V357.625ZM282.75 365.5H280.5V362.125H277.125V361H280.5V357.625H282.75V365.5ZM271.5 371.125H282.75V372.25H270.375V371.125H269.25V366.625H271.5V371.125ZM300.75 372.25H298.5V366.625H295.125V365.5H307.5V357.625H309.75V372.25H307.5V368.875H303V367.75H307.5V366.625H300.75V372.25ZM304.125 363.25H303V364.375H296.25V363.25H295.125V358.75H304.125V363.25ZM301.875 359.875H297.375V363.25H301.875V359.875ZM327.75 372.25H325.5V357.625H327.75V372.25ZM322.125 371.125H319.875V370H318.75V368.875H316.5V370H315.375V371.125H313.125V370H314.25V368.875H315.375V367.75H316.5V359.875H313.125V358.75H322.125V359.875H318.75V367.75H319.875V368.875H321V370H322.125V371.125ZM335.625 363.25V361H333.375V363.25H331.125V361H332.25V359.875H336.75V361H337.875V363.25H336.75V364.375H335.625V366.625H333.375V364.375H334.5V363.25H335.625ZM333.375 370V367.75H335.625V370H333.375ZM361.5 364.375V362.125H350.25V361H363.75V367.75H362.625V368.875H360.375V367.75H361.5V365.5H350.25V364.375H361.5ZM379.5 364.375V362.125H368.25V361H381.75V367.75H380.625V368.875H378.375V367.75H379.5V365.5H368.25V364.375H379.5ZM397.5 364.375V362.125H386.25V361H399.75V367.75H398.625V368.875H396.375V367.75H397.5V365.5H386.25V364.375H397.5ZM415.5 364.375V362.125H404.25V361H417.75V367.75H416.625V368.875H414.375V367.75H415.5V365.5H404.25V364.375H415.5ZM236.625 381.25V382.375H237.75V384.625H236.625V385.75H234.375V384.625H233.25V382.375H234.375V381.25H236.625ZM250.125 383.5V382.375H251.25V381.25H252.375V380.125H253.5V379H254.625V377.875H256.875V379H255.75V380.125H254.625V381.25H253.5V382.375H252.375V383.5H253.5V384.625H254.625V385.75H255.75V386.875H256.875V388H254.625V386.875H253.5V385.75H252.375V384.625H251.25V383.5H250.125ZM262.5 382.375V380.125H265.875V376.75H259.125V375.625H268.125V380.125H267V381.25H264.75V382.375H270.375V375.625H272.625V379H276V380.125H272.625V384.625H270.375V383.5H259.125V382.375H262.5ZM262.5 389.125H260.25V385.75H262.5V384.625H270.375V385.75H272.625V389.125H270.375V390.25H262.5V389.125ZM270.375 386.875H269.25V385.75H263.625V386.875H262.5V388H263.625V389.125H269.25V388H270.375V386.875ZM278.25 376.75H291.75V383.5H290.625V384.625H288.375V383.5H289.5V377.875H278.25V376.75ZM286.125 388H292.875V389.125H277.125V388H283.875V382.375H286.125V388ZM295.125 388V386.875H296.25V385.75H297.375V384.625H298.5V383.5H299.625V382.375H298.5V381.25H297.375V380.125H296.25V379H295.125V377.875H297.375V379H298.5V380.125H299.625V381.25H300.75V382.375H301.875V383.5H300.75V384.625H299.625V385.75H298.5V386.875H297.375V388H295.125ZM315.375 383.5V382.375H314.25V379H315.375V377.875H316.5V376.75H325.5V377.875H326.625V379H327.75V382.375H326.625V383.5H325.5V384.625H322.125V388H328.875V389.125H313.125V388H319.875V384.625H316.5V383.5H315.375ZM316.5 379V382.375H317.625V383.5H324.375V382.375H325.5V379H324.375V377.875H317.625V379H316.5ZM334.5 380.125H345.75V381.25H333.375V380.125H332.25V375.625H334.5V380.125ZM346.875 383.5H331.125V382.375H346.875V383.5ZM332.25 386.875H343.5V385.75H332.25V384.625H345.75V388H334.5V389.125H345.75V390.25H333.375V389.125H332.25V386.875ZM350.25 382.375H349.125V375.625H351.375V379H355.875V375.625H358.125V382.375H357V383.5H350.25V382.375ZM362.625 379H366V380.125H362.625V383.5H360.375V375.625H362.625V379ZM355.875 380.125H351.375V382.375H355.875V380.125ZM362.625 389.125H361.5V390.25H351.375V389.125H350.25V384.625H362.625V389.125ZM360.375 385.75H352.5V389.125H360.375V385.75ZM379.5 388V384.625H378.375V383.5H377.25V382.375H376.125V380.125H377.25V379H378.375V377.875H376.125V376.75H379.5V375.625H381.75V376.75H385.125V377.875H382.875V379H384V380.125H385.125V382.375H384V383.5H382.875V384.625H381.75V388H387.375V375.625H389.625V382.375H393V383.5H389.625V390.25H387.375V389.125H376.125V388H379.5ZM379.5 379V380.125H378.375V382.375H379.5V383.5H381.75V382.375H382.875V380.125H381.75V379H379.5ZM395.25 375.625H402V380.125H400.875V381.25H398.625V380.125H399.75V376.75H395.25V375.625ZM403.125 375.625H408.75V380.125H407.625V381.25H405.375V380.125H406.5V376.75H403.125V375.625ZM409.875 383.5H394.125V382.375H409.875V383.5ZM397.5 389.125H408.75V390.25H396.375V389.125H395.25V384.625H397.5V389.125ZM417.75 376.75H421.125V377.875H412.125V376.75H415.5V375.625H417.75V376.75ZM425.625 382.375H429V383.5H425.625V390.25H423.375V375.625H425.625V382.375ZM418.875 389.125H414.375V388H413.25V386.875H412.125V381.25H413.25V380.125H414.375V379H418.875V380.125H420V381.25H421.125V386.875H420V388H418.875V389.125ZM415.5 381.25H414.375V386.875H415.5V388H417.75V386.875H418.875V381.25H417.75V380.125H415.5V381.25ZM442.5 390.25H440.25V383.5H438V382.375H440.25V375.625H442.5V390.25ZM445.875 390.25H443.625V375.625H445.875V390.25ZM433.5 386.875H434.625V377.875H430.125V376.75H436.875V386.875H435.75V388H434.625V389.125H431.25V388H433.5V386.875ZM471.75 381.25H467.25V380.125H466.125V379H463.875V380.125H462.75V381.25H458.25V380.125H461.625V379H462.75V377.875H463.875V376.75H458.25V375.625H471.75V376.75H466.125V377.875H467.25V379H468.375V380.125H471.75V381.25ZM472.875 383.5H457.125V382.375H472.875V383.5ZM458.25 386.875H469.5V385.75H458.25V384.625H471.75V388H460.5V389.125H471.75V390.25H459.375V389.125H458.25V386.875ZM489.75 390.25H487.5V375.625H489.75V390.25ZM478.5 386.875H479.625V377.875H475.125V376.75H481.875V386.875H480.75V388H479.625V389.125H476.25V388H478.5V386.875ZM499.875 382.375H498.75V381.25H496.5V382.375H495.375V383.5H493.125V382.375H494.25V381.25H495.375V380.125H496.5V375.625H498.75V380.125H499.875V381.25H501V382.375H502.125V383.5H499.875V382.375ZM507.75 383.5H505.5V375.625H507.75V383.5ZM494.25 386.875H505.5V385.75H494.25V384.625H507.75V388H496.5V389.125H507.75V390.25H495.375V389.125H494.25V386.875ZM513.375 380.125H512.25V375.625H514.5V377.875H523.5V375.625H525.75V380.125H524.625V381.25H513.375V380.125ZM523.5 379H514.5V380.125H523.5V379ZM526.875 383.5H520.125V385.75H517.875V383.5H511.125V382.375H526.875V383.5ZM514.5 389.125H525.75V390.25H513.375V389.125H512.25V384.625H514.5V389.125ZM543.75 377.875V379H544.875V386.875H543.75V388H539.25V386.875H538.125V379H539.25V377.875H543.75ZM541.5 385.75H540.375V386.875H542.625V382.375H541.5V380.125H542.625V379H540.375V383.5H541.5V385.75ZM552.75 377.875V388H550.5V381.25H547.125V380.125H549.375V379H550.5V377.875H552.75ZM561.75 377.875V379H562.875V386.875H561.75V388H557.25V386.875H556.125V379H557.25V377.875H561.75ZM559.5 385.75H558.375V386.875H560.625V382.375H559.5V380.125H560.625V379H558.375V383.5H559.5V385.75ZM577.5 385.75V384.625H575.25V383.5H574.125V379H575.25V377.875H579.75V379H580.875V384.625H579.75V385.75H578.625V388H575.25V386.875H576.375V385.75H577.5ZM578.625 379H576.375V383.5H578.625V379ZM585.375 380.125V377.875H588.75V379H587.625V380.125H586.5V381.25H588.75V382.375H589.875V386.875H588.75V388H584.25V386.875H583.125V381.25H584.25V380.125H585.375ZM587.625 382.375H585.375V386.875H587.625V382.375ZM594.375 380.125V377.875H597.75V379H596.625V380.125H595.5V381.25H597.75V382.375H598.875V386.875H597.75V388H593.25V386.875H592.125V381.25H593.25V380.125H594.375ZM596.625 382.375H594.375V386.875H596.625V382.375ZM605.625 385.75V383.5H601.125V377.875H607.875V379H603.375V382.375H606.75V383.5H607.875V385.75H606.75V386.875H605.625V388H601.125V386.875H604.5V385.75H605.625ZM621.375 380.125V377.875H624.75V379H623.625V380.125H622.5V381.25H624.75V382.375H625.875V386.875H624.75V388H620.25V386.875H619.125V381.25H620.25V380.125H621.375ZM623.625 382.375H621.375V386.875H623.625V382.375ZM628.125 382.375V379H629.25V377.875H633.75V379H634.875V382.375H633.75V383.5H634.875V386.875H633.75V388H629.25V386.875H628.125V383.5H629.25V382.375H628.125ZM630.375 381.25H631.5V382.375H632.625V379H630.375V381.25ZM631.5 383.5H630.375V386.875H632.625V384.625H631.5V383.5ZM637.125 382.375V379H638.25V377.875H642.75V379H643.875V382.375H642.75V383.5H643.875V386.875H642.75V388H638.25V386.875H637.125V383.5H638.25V382.375H637.125ZM639.375 381.25H640.5V382.375H641.625V379H639.375V381.25ZM640.5 383.5H639.375V386.875H641.625V384.625H640.5V383.5ZM650.625 385.75V383.5H646.125V377.875H652.875V379H648.375V382.375H651.75V383.5H652.875V385.75H651.75V386.875H650.625V388H646.125V386.875H649.5V385.75H650.625Z" fill="black"/>
<defs>
<filter id="filter0_d_73:30386" x="0" y="0" width="984" height="533" filterUnits="userSpaceOnUse" color-interpolation-filters="sRGB">
<feFlood flood-opacity="0" result="BackgroundImageFix"/>
<feColorMatrix in="SourceAlpha" type="matrix" values="0 0 0 0 0 0 0 0 0 0 0 0 0 0 0 0 0 0 127 0" result="hardAlpha"/>
<feOffset dy="4"/>
<feGaussianBlur stdDeviation="2"/>
<feComposite in2="hardAlpha" operator="out"/>
<feColorMatrix type="matrix" values="0 0 0 0 0 0 0 0 0 0 0 0 0 0 0 0 0 0 0.25 0"/>
<feBlend mode="normal" in2="BackgroundImageFix" result="effect1_dropShadow_73:30386"/>
<feBlend mode="normal" in="SourceGraphic" in2="effect1_dropShadow_73:30386" result="shape"/>
</filter>
</defs>
</svg>
