<svg width="17" height="18" viewBox="0 0 17 18" fill="none" xmlns="http://www.w3.org/2000/svg">
<rect x="15" y="1.5" width="1" height="16" fill="black"/>
<rect x="1" y="16.5" width="14" height="1" fill="black"/>
<rect x="1" y="1.5" width="14" height="1" fill="black"/>
<rect x="6" y="3.5" width="4" height="3" fill="black"/>
<rect x="12" y="7.5" width="3" height="2" fill="black"/>
<rect x="11" y="7.5" width="1" height="1" fill="black"/>
<rect x="1" y="10.5" width="1" height="1" fill="black"/>
<rect x="2" y="10.5" width="1" height="1" fill="black"/>
<rect x="2" y="9.5" width="1" height="1" fill="black"/>
<rect x="3" y="8.5" width="1" height="1" fill="black"/>
<rect x="7" y="12.5" width="1" height="1" fill="black"/>
<rect x="9" y="12.5" width="1" height="1" fill="black"/>
<rect x="6" y="13.5" width="1" height="1" fill="black"/>
<rect x="8" y="13.5" width="1" height="1" fill="black"/>
<rect x="7" y="14.5" width="1" height="1" fill="black"/>
<rect x="6" y="15.5" width="1" height="1" fill="black"/>
<rect x="9" y="14.5" width="1" height="1" fill="black"/>
<rect x="8" y="15.5" width="1" height="1" fill="black"/>
<rect x="12" y="12.5" width="1" height="1" fill="black"/>
<rect x="13" y="12.5" width="1" height="1" fill="black"/>
<rect x="11" y="13.5" width="4" height="1" fill="black"/>
<rect y="1.5" width="1" height="16" fill="black"/>
<rect x="5" y="1.5" width="1" height="16" fill="black"/>
<rect x="10" y="1.5" width="1" height="16" fill="black"/>
<rect x="1" y="7.5" width="0.999999" height="14" transform="rotate(-90 1 7.5)" fill="black"/>
<rect y="12.5" width="0.999999" height="15" transform="rotate(-90 0 12.5)" fill="black"/>
</svg>
