<svg width="17" height="18" viewBox="0 0 17 18" fill="none" xmlns="http://www.w3.org/2000/svg">
<rect x="2" y="3.5" width="14" height="1" fill="black"/>
<rect x="2" y="14.5" width="14" height="1" fill="black"/>
<rect x="1" y="12.5" width="3" height="1" fill="black"/>
<rect x="1" y="10.5" width="3" height="1" fill="black"/>
<rect x="1" y="8.5" width="3" height="1" fill="black"/>
<rect x="1" y="6.5" width="3" height="1" fill="black"/>
<rect x="1" y="4.5" width="3" height="1" fill="black"/>
<rect x="2" y="3.5" width="1" height="11" fill="black"/>
<rect x="15" y="4.5" width="1" height="11" fill="black"/>
<rect x="13" y="6.5" width="1" height="4" fill="black"/>
<rect x="8" y="9.5" width="1" height="4" fill="black"/>
<rect x="6" y="9.5" width="1" height="4" fill="black"/>
<rect x="7" y="5.5" width="1" height="3" fill="black"/>
<rect x="11" y="5.5" width="1" height="3" fill="black"/>
<rect x="10" y="7.5" width="1" height="3" fill="black"/>
<rect x="13" y="9.5" width="1" height="2" transform="rotate(90 13 9.5)" fill="black"/>
<rect x="13" y="6.5" width="1" height="1" transform="rotate(90 13 6.5)" fill="black"/>
<rect x="11" y="5.5" width="1" height="3" transform="rotate(90 11 5.5)" fill="black"/>
<rect x="8" y="9.5" width="1" height="1" transform="rotate(90 8 9.5)" fill="black"/>
<rect x="8" y="12.5" width="1" height="1" transform="rotate(90 8 12.5)" fill="black"/>
<rect x="10" y="7.5" width="1" height="2" transform="rotate(90 10 7.5)" fill="black"/>
</svg>
