<svg width="18" height="10" viewBox="0 0 18 10" fill="none" xmlns="http://www.w3.org/2000/svg">
<path d="M14.7407 2.375V4.125H15.572V5.875H14.7407V7.625H2.27159V2.375H14.7407ZM15.1564 0.625H1.85595C1.16729 0.625 0.609039 1.21262 0.609039 1.9375V8.0625C0.609039 8.78738 1.16729 9.375 1.85595 9.375H15.1564C15.845 9.375 16.4033 8.78738 16.4033 8.0625V7.625H16.6111C16.9554 7.625 17.2346 7.33119 17.2346 6.96875V3.03125C17.2346 2.66881 16.9554 2.375 16.6111 2.375H16.4033V1.9375C16.4033 1.21262 15.845 0.625 15.1564 0.625ZM11.4156 3.25H3.10287V6.75H11.4156V3.25Z" fill="black"/>
</svg>
