<svg width="412" height="6" viewBox="0 0 412 6" fill="none" xmlns="http://www.w3.org/2000/svg">
<path d="M2.49939 6C4.15624 6 5.49939 4.65685 5.49939 3C5.49939 1.34315 4.15624 0 2.49939 0V6ZM3.49816 0C1.84131 0 0.498162 1.34315 0.498162 3C0.498162 4.65685 1.84131 6 3.49816 6V0ZM4.49694 6C6.15379 6 7.49694 4.65685 7.49694 3C7.49694 1.34315 6.15379 0 4.49694 0V6ZM5.49571 0C3.83886 0 2.49571 1.34315 2.49571 3C2.49571 4.65685 3.83886 6 5.49571 6V0ZM6.49449 6C8.15134 6 9.49449 4.65685 9.49449 3C9.49449 1.34315 8.15134 0 6.49449 0V6ZM7.49326 0C5.83641 0 4.49326 1.34315 4.49326 3C4.49326 4.65685 5.83641 6 7.49326 6V0ZM8.49203 6C10.1489 6 11.492 4.65685 11.492 3C11.492 1.34315 10.1489 0 8.49203 0V6ZM9.49081 0C7.83395 0 6.49081 1.34315 6.49081 3C6.49081 4.65685 7.83395 6 9.49081 6V0ZM10.4896 6C12.1464 6 13.4896 4.65685 13.4896 3C13.4896 1.34315 12.1464 0 10.4896 0V6ZM11.4884 0C9.8315 0 8.48836 1.34315 8.48836 3C8.48836 4.65685 9.8315 6 11.4884 6V0ZM12.4871 6C14.144 6 15.4871 4.65685 15.4871 3C15.4871 1.34315 14.144 0 12.4871 0V6ZM13.4859 0C11.8291 0 10.4859 1.34315 10.4859 3C10.4859 4.65685 11.8291 6 13.4859 6V0ZM14.4847 6C16.1415 6 17.4847 4.65685 17.4847 3C17.4847 1.34315 16.1415 0 14.4847 0V6ZM15.4835 0C13.8266 0 12.4835 1.34315 12.4835 3C12.4835 4.65685 13.8266 6 15.4835 6V0ZM16.4822 6C18.1391 6 19.4822 4.65685 19.4822 3C19.4822 1.34315 18.1391 0 16.4822 0V6ZM17.481 0C15.8242 0 14.481 1.34315 14.481 3C14.481 4.65685 15.8242 6 17.481 6V0ZM18.4798 6C20.1366 6 21.4798 4.65685 21.4798 3C21.4798 1.34315 20.1366 0 18.4798 0V6ZM19.4786 0C17.8217 0 16.4786 1.34315 16.4786 3C16.4786 4.65685 17.8217 6 19.4786 6V0ZM20.4773 6C22.1342 6 23.4773 4.65685 23.4773 3C23.4773 1.34315 22.1342 0 20.4773 0V6ZM21.4761 0C19.8193 0 18.4761 1.34315 18.4761 3C18.4761 4.65685 19.8193 6 21.4761 6V0ZM22.4749 6C24.1317 6 25.4749 4.65685 25.4749 3C25.4749 1.34315 24.1317 0 22.4749 0V6ZM23.4737 0C21.8168 0 20.4737 1.34315 20.4737 3C20.4737 4.65685 21.8168 6 23.4737 6V0ZM24.4724 6C26.1293 6 27.4724 4.65685 27.4724 3C27.4724 1.34315 26.1293 0 24.4724 0V6ZM25.4712 0C23.8144 0 22.4712 1.34315 22.4712 3C22.4712 4.65685 23.8144 6 25.4712 6V0ZM26.47 6C28.1268 6 29.47 4.65685 29.47 3C29.47 1.34315 28.1268 0 26.47 0V6ZM27.4688 0C25.8119 0 24.4688 1.34315 24.4688 3C24.4688 4.65685 25.8119 6 27.4688 6V0ZM28.4675 6C30.1244 6 31.4675 4.65685 31.4675 3C31.4675 1.34315 30.1244 0 28.4675 0V6ZM29.4663 0C27.8095 0 26.4663 1.34315 26.4663 3C26.4663 4.65685 27.8095 6 29.4663 6V0ZM30.4651 6C32.1219 6 33.4651 4.65685 33.4651 3C33.4651 1.34315 32.1219 0 30.4651 0V6ZM31.4639 0C29.807 0 28.4639 1.34315 28.4639 3C28.4639 4.65685 29.807 6 31.4639 6V0ZM32.4626 6C34.1195 6 35.4626 4.65685 35.4626 3C35.4626 1.34315 34.1195 0 32.4626 0V6ZM33.4614 0C31.8046 0 30.4614 1.34315 30.4614 3C30.4614 4.65685 31.8046 6 33.4614 6V0ZM34.4602 6C36.117 6 37.4602 4.65685 37.4602 3C37.4602 1.34315 36.117 0 34.4602 0V6ZM35.459 0C33.8021 0 32.459 1.34315 32.459 3C32.459 4.65685 33.8021 6 35.459 6V0ZM36.4577 6C38.1146 6 39.4577 4.65685 39.4577 3C39.4577 1.34315 38.1146 0 36.4577 0V6ZM37.4565 0C35.7997 0 34.4565 1.34315 34.4565 3C34.4565 4.65685 35.7997 6 37.4565 6V0ZM38.4553 6C40.1121 6 41.4553 4.65685 41.4553 3C41.4553 1.34315 40.1121 0 38.4553 0V6ZM39.4541 0C37.7972 0 36.4541 1.34315 36.4541 3C36.4541 4.65685 37.7972 6 39.4541 6V0ZM40.4528 6C42.1097 6 43.4528 4.65685 43.4528 3C43.4528 1.34315 42.1097 0 40.4528 0V6ZM41.4516 0C39.7948 0 38.4516 1.34315 38.4516 3C38.4516 4.65685 39.7948 6 41.4516 6V0ZM42.4504 6C44.1072 6 45.4504 4.65685 45.4504 3C45.4504 1.34315 44.1072 0 42.4504 0V6ZM43.4492 0C41.7923 0 40.4492 1.34315 40.4492 3C40.4492 4.65685 41.7923 6 43.4492 6V0ZM44.4479 6C46.1048 6 47.4479 4.65685 47.4479 3C47.4479 1.34315 46.1048 0 44.4479 0V6ZM45.4467 0C43.7899 0 42.4467 1.34315 42.4467 3C42.4467 4.65685 43.7899 6 45.4467 6V0ZM46.4455 6C48.1023 6 49.4455 4.65685 49.4455 3C49.4455 1.34315 48.1023 0 46.4455 0V6ZM47.4443 0C45.7874 0 44.4443 1.34315 44.4443 3C44.4443 4.65685 45.7874 6 47.4443 6V0ZM48.443 6C50.0999 6 51.443 4.65685 51.443 3C51.443 1.34315 50.0999 0 48.443 0V6ZM49.4418 0C47.785 0 46.4418 1.34315 46.4418 3C46.4418 4.65685 47.785 6 49.4418 6V0ZM50.4406 6C52.0974 6 53.4406 4.65685 53.4406 3C53.4406 1.34315 52.0974 0 50.4406 0V6ZM51.4394 0C49.7825 0 48.4394 1.34315 48.4394 3C48.4394 4.65685 49.7825 6 51.4394 6V0ZM52.4381 6C54.095 6 55.4381 4.65685 55.4381 3C55.4381 1.34315 54.095 0 52.4381 0V6ZM53.4369 0C51.7801 0 50.4369 1.34315 50.4369 3C50.4369 4.65685 51.7801 6 53.4369 6V0ZM54.4357 6C56.0925 6 57.4357 4.65685 57.4357 3C57.4357 1.34315 56.0925 0 54.4357 0V6ZM55.4345 0C53.7776 0 52.4345 1.34315 52.4345 3C52.4345 4.65685 53.7776 6 55.4345 6V0ZM56.4332 6C58.0901 6 59.4332 4.65685 59.4332 3C59.4332 1.34315 58.0901 0 56.4332 0V6ZM57.432 0C55.7752 0 54.432 1.34315 54.432 3C54.432 4.65685 55.7752 6 57.432 6V0ZM58.4308 6C60.0877 6 61.4308 4.65685 61.4308 3C61.4308 1.34315 60.0877 0 58.4308 0V6ZM59.4296 0C57.7727 0 56.4296 1.34315 56.4296 3C56.4296 4.65685 57.7727 6 59.4296 6V0ZM60.4283 6C62.0852 6 63.4283 4.65685 63.4283 3C63.4283 1.34315 62.0852 0 60.4283 0V6ZM61.4271 0C59.7703 0 58.4271 1.34315 58.4271 3C58.4271 4.65685 59.7703 6 61.4271 6V0ZM62.4259 6C64.0828 6 65.4259 4.65685 65.4259 3C65.4259 1.34315 64.0828 0 62.4259 0V6ZM63.4247 0C61.7678 0 60.4247 1.34315 60.4247 3C60.4247 4.65685 61.7678 6 63.4247 6V0ZM64.4235 6C66.0803 6 67.4235 4.65685 67.4235 3C67.4235 1.34315 66.0803 0 64.4235 0V6ZM65.4222 0C63.7654 0 62.4222 1.34315 62.4222 3C62.4222 4.65685 63.7654 6 65.4222 6V0ZM66.421 6C68.0779 6 69.421 4.65685 69.421 3C69.421 1.34315 68.0779 0 66.421 0V6ZM67.4198 0C65.7629 0 64.4198 1.34315 64.4198 3C64.4198 4.65685 65.7629 6 67.4198 6V0ZM68.4185 6C70.0754 6 71.4185 4.65685 71.4185 3C71.4185 1.34315 70.0754 0 68.4185 0V6ZM69.4173 0C67.7605 0 66.4173 1.34315 66.4173 3C66.4173 4.65685 67.7605 6 69.4173 6V0ZM70.4161 6C72.0729 6 73.4161 4.65685 73.4161 3C73.4161 1.34315 72.0729 0 70.4161 0V6ZM71.4149 0C69.758 0 68.4149 1.34315 68.4149 3C68.4149 4.65685 69.758 6 71.4149 6V0ZM72.4136 6C74.0705 6 75.4136 4.65685 75.4136 3C75.4136 1.34315 74.0705 0 72.4136 0V6ZM73.4124 0C71.7555 0 70.4124 1.34315 70.4124 3C70.4124 4.65685 71.7555 6 73.4124 6V0ZM74.4112 6C76.068 6 77.4112 4.65685 77.4112 3C77.4112 1.34315 76.068 0 74.4112 0V6ZM75.4099 0C73.7531 0 72.4099 1.34315 72.4099 3C72.4099 4.65685 73.7531 6 75.4099 6V0ZM76.4087 6C78.0656 6 79.4087 4.65685 79.4087 3C79.4087 1.34315 78.0656 0 76.4087 0V6ZM77.4075 0C75.7506 0 74.4075 1.34315 74.4075 3C74.4075 4.65685 75.7506 6 77.4075 6V0ZM78.4063 6C80.0631 6 81.4063 4.65685 81.4063 3C81.4063 1.34315 80.0631 0 78.4063 0V6ZM79.405 0C77.7482 0 76.405 1.34315 76.405 3C76.405 4.65685 77.7482 6 79.405 6V0ZM80.4038 6C82.0607 6 83.4038 4.65685 83.4038 3C83.4038 1.34315 82.0607 0 80.4038 0V6ZM81.4026 0C79.7457 0 78.4026 1.34315 78.4026 3C78.4026 4.65685 79.7457 6 81.4026 6V0ZM82.4013 6C84.0582 6 85.4013 4.65685 85.4013 3C85.4013 1.34315 84.0582 0 82.4013 0V6ZM83.4001 0C81.7433 0 80.4001 1.34315 80.4001 3C80.4001 4.65685 81.7433 6 83.4001 6V0ZM84.3989 6C86.0557 6 87.3989 4.65685 87.3989 3C87.3989 1.34315 86.0557 0 84.3989 0V6ZM85.3977 0C83.7408 0 82.3977 1.34315 82.3977 3C82.3977 4.65685 83.7408 6 85.3977 6V0ZM86.3964 6C88.0533 6 89.3964 4.65685 89.3964 3C89.3964 1.34315 88.0533 0 86.3964 0V6ZM87.3952 0C85.7384 0 84.3952 1.34315 84.3952 3C84.3952 4.65685 85.7384 6 87.3952 6V0ZM88.394 6C90.0508 6 91.394 4.65685 91.394 3C91.394 1.34315 90.0508 0 88.394 0V6ZM89.3927 0C87.7359 0 86.3927 1.34315 86.3927 3C86.3927 4.65685 87.7359 6 89.3927 6V0ZM90.3915 6C92.0484 6 93.3915 4.65685 93.3915 3C93.3915 1.34315 92.0484 0 90.3915 0V6ZM91.3903 0C89.7334 0 88.3903 1.34315 88.3903 3C88.3903 4.65685 89.7334 6 91.3903 6V0ZM92.3891 6C94.0459 6 95.3891 4.65685 95.3891 3C95.3891 1.34315 94.0459 0 92.3891 0V6ZM93.3878 0C91.731 0 90.3878 1.34315 90.3878 3C90.3878 4.65685 91.731 6 93.3878 6V0ZM94.3866 6C96.0435 6 97.3866 4.65685 97.3866 3C97.3866 1.34315 96.0435 0 94.3866 0V6ZM95.3854 0C93.7285 0 92.3854 1.34315 92.3854 3C92.3854 4.65685 93.7285 6 95.3854 6V0ZM96.3841 6C98.041 6 99.3841 4.65685 99.3841 3C99.3841 1.34315 98.041 0 96.3841 0V6ZM97.3829 0C95.7261 0 94.3829 1.34315 94.3829 3C94.3829 4.65685 95.7261 6 97.3829 6V0ZM98.3817 6C100.039 6 101.382 4.65685 101.382 3C101.382 1.34315 100.039 0 98.3817 0V6ZM99.3805 0C97.7236 0 96.3805 1.34315 96.3805 3C96.3805 4.65685 97.7236 6 99.3805 6V0ZM100.379 6C102.036 6 103.379 4.65685 103.379 3C103.379 1.34315 102.036 0 100.379 0V6ZM101.378 0C99.7212 0 98.378 1.34315 98.378 3C98.378 4.65685 99.7212 6 101.378 6V0ZM102.377 6C104.034 6 105.377 4.65685 105.377 3C105.377 1.34315 104.034 0 102.377 0V6ZM103.376 0C101.719 0 100.376 1.34315 100.376 3C100.376 4.65685 101.719 6 103.376 6V0ZM104.374 6C106.031 6 107.374 4.65685 107.374 3C107.374 1.34315 106.031 0 104.374 0V6ZM105.373 0C103.716 0 102.373 1.34315 102.373 3C102.373 4.65685 103.716 6 105.373 6V0ZM106.372 6C108.029 6 109.372 4.65685 109.372 3C109.372 1.34315 108.029 0 106.372 0V6ZM107.371 0C105.714 0 104.371 1.34315 104.371 3C104.371 4.65685 105.714 6 107.371 6V0ZM108.369 6C110.026 6 111.369 4.65685 111.369 3C111.369 1.34315 110.026 0 108.369 0V6ZM109.368 0C107.711 0 106.368 1.34315 106.368 3C106.368 4.65685 107.711 6 109.368 6V0ZM110.367 6C112.024 6 113.367 4.65685 113.367 3C113.367 1.34315 112.024 0 110.367 0V6ZM111.366 0C109.709 0 108.366 1.34315 108.366 3C108.366 4.65685 109.709 6 111.366 6V0ZM112.364 6C114.021 6 115.364 4.65685 115.364 3C115.364 1.34315 114.021 0 112.364 0V6ZM113.363 0C111.706 0 110.363 1.34315 110.363 3C110.363 4.65685 111.706 6 113.363 6V0ZM114.362 6C116.019 6 117.362 4.65685 117.362 3C117.362 1.34315 116.019 0 114.362 0V6ZM115.361 0C113.704 0 112.361 1.34315 112.361 3C112.361 4.65685 113.704 6 115.361 6V0ZM116.36 6C118.016 6 119.36 4.65685 119.36 3C119.36 1.34315 118.016 0 116.36 0V6ZM117.358 0C115.701 0 114.358 1.34315 114.358 3C114.358 4.65685 115.701 6 117.358 6V0ZM118.357 6C120.014 6 121.357 4.65685 121.357 3C121.357 1.34315 120.014 0 118.357 0V6ZM119.356 0C117.699 0 116.356 1.34315 116.356 3C116.356 4.65685 117.699 6 119.356 6V0ZM120.355 6C122.012 6 123.355 4.65685 123.355 3C123.355 1.34315 122.012 0 120.355 0V6ZM121.353 0C119.697 0 118.353 1.34315 118.353 3C118.353 4.65685 119.697 6 121.353 6V0ZM122.352 6C124.009 6 125.352 4.65685 125.352 3C125.352 1.34315 124.009 0 122.352 0V6ZM123.351 0C121.694 0 120.351 1.34315 120.351 3C120.351 4.65685 121.694 6 123.351 6V0ZM124.35 6C126.007 6 127.35 4.65685 127.35 3C127.35 1.34315 126.007 0 124.35 0V6ZM125.349 0C123.692 0 122.349 1.34315 122.349 3C122.349 4.65685 123.692 6 125.349 6V0ZM126.347 6C128.004 6 129.347 4.65685 129.347 3C129.347 1.34315 128.004 0 126.347 0V6ZM127.346 0C125.689 0 124.346 1.34315 124.346 3C124.346 4.65685 125.689 6 127.346 6V0ZM128.345 6C130.002 6 131.345 4.65685 131.345 3C131.345 1.34315 130.002 0 128.345 0V6ZM129.344 0C127.687 0 126.344 1.34315 126.344 3C126.344 4.65685 127.687 6 129.344 6V0ZM130.342 6C131.999 6 133.342 4.65685 133.342 3C133.342 1.34315 131.999 0 130.342 0V6ZM131.341 0C129.684 0 128.341 1.34315 128.341 3C128.341 4.65685 129.684 6 131.341 6V0ZM132.34 6C133.997 6 135.34 4.65685 135.34 3C135.34 1.34315 133.997 0 132.34 0V6ZM133.339 0C131.682 0 130.339 1.34315 130.339 3C130.339 4.65685 131.682 6 133.339 6V0ZM134.338 6C135.994 6 137.338 4.65685 137.338 3C137.338 1.34315 135.994 0 134.338 0V6ZM135.336 0C133.679 0 132.336 1.34315 132.336 3C132.336 4.65685 133.679 6 135.336 6V0ZM136.335 6C137.992 6 139.335 4.65685 139.335 3C139.335 1.34315 137.992 0 136.335 0V6ZM137.334 0C135.677 0 134.334 1.34315 134.334 3C134.334 4.65685 135.677 6 137.334 6V0ZM138.333 6C139.989 6 141.333 4.65685 141.333 3C141.333 1.34315 139.989 0 138.333 0V6ZM139.331 0C137.675 0 136.331 1.34315 136.331 3C136.331 4.65685 137.675 6 139.331 6V0ZM140.33 6C141.987 6 143.33 4.65685 143.33 3C143.33 1.34315 141.987 0 140.33 0V6ZM141.329 0C139.672 0 138.329 1.34315 138.329 3C138.329 4.65685 139.672 6 141.329 6V0ZM142.328 6C143.985 6 145.328 4.65685 145.328 3C145.328 1.34315 143.985 0 142.328 0V6ZM143.327 0C141.67 0 140.327 1.34315 140.327 3C140.327 4.65685 141.67 6 143.327 6V0ZM144.325 6C145.982 6 147.325 4.65685 147.325 3C147.325 1.34315 145.982 0 144.325 0V6ZM145.324 0C143.667 0 142.324 1.34315 142.324 3C142.324 4.65685 143.667 6 145.324 6V0ZM146.323 6C147.98 6 149.323 4.65685 149.323 3C149.323 1.34315 147.98 0 146.323 0V6ZM147.322 0C145.665 0 144.322 1.34315 144.322 3C144.322 4.65685 145.665 6 147.322 6V0ZM148.32 6C149.977 6 151.32 4.65685 151.32 3C151.32 1.34315 149.977 0 148.32 0V6ZM149.319 0C147.662 0 146.319 1.34315 146.319 3C146.319 4.65685 147.662 6 149.319 6V0ZM150.318 6C151.975 6 153.318 4.65685 153.318 3C153.318 1.34315 151.975 0 150.318 0V6ZM151.317 0C149.66 0 148.317 1.34315 148.317 3C148.317 4.65685 149.66 6 151.317 6V0ZM152.316 6C153.972 6 155.316 4.65685 155.316 3C155.316 1.34315 153.972 0 152.316 0V6ZM153.314 0C151.657 0 150.314 1.34315 150.314 3C150.314 4.65685 151.657 6 153.314 6V0ZM154.313 6C155.97 6 157.313 4.65685 157.313 3C157.313 1.34315 155.97 0 154.313 0V6ZM155.312 0C153.655 0 152.312 1.34315 152.312 3C152.312 4.65685 153.655 6 155.312 6V0ZM156.311 6C157.968 6 159.311 4.65685 159.311 3C159.311 1.34315 157.968 0 156.311 0V6ZM157.309 0C155.653 0 154.309 1.34315 154.309 3C154.309 4.65685 155.653 6 157.309 6V0ZM158.308 6C159.965 6 161.308 4.65685 161.308 3C161.308 1.34315 159.965 0 158.308 0V6ZM159.307 0C157.65 0 156.307 1.34315 156.307 3C156.307 4.65685 157.65 6 159.307 6V0ZM160.306 6C161.963 6 163.306 4.65685 163.306 3C163.306 1.34315 161.963 0 160.306 0V6ZM161.305 0C159.648 0 158.305 1.34315 158.305 3C158.305 4.65685 159.648 6 161.305 6V0ZM162.303 6C163.96 6 165.303 4.65685 165.303 3C165.303 1.34315 163.96 0 162.303 0V6ZM163.302 0C161.645 0 160.302 1.34315 160.302 3C160.302 4.65685 161.645 6 163.302 6V0ZM164.301 6C165.958 6 167.301 4.65685 167.301 3C167.301 1.34315 165.958 0 164.301 0V6ZM165.3 0C163.643 0 162.3 1.34315 162.3 3C162.3 4.65685 163.643 6 165.3 6V0ZM166.298 6C167.955 6 169.298 4.65685 169.298 3C169.298 1.34315 167.955 0 166.298 0V6ZM167.297 0C165.64 0 164.297 1.34315 164.297 3C164.297 4.65685 165.64 6 167.297 6V0ZM168.296 6C169.953 6 171.296 4.65685 171.296 3C171.296 1.34315 169.953 0 168.296 0V6ZM169.295 0C167.638 0 166.295 1.34315 166.295 3C166.295 4.65685 167.638 6 169.295 6V0ZM170.294 6C171.95 6 173.294 4.65685 173.294 3C173.294 1.34315 171.95 0 170.294 0V6ZM171.292 0C169.635 0 168.292 1.34315 168.292 3C168.292 4.65685 169.635 6 171.292 6V0ZM172.291 6C173.948 6 175.291 4.65685 175.291 3C175.291 1.34315 173.948 0 172.291 0V6ZM173.29 0C171.633 0 170.29 1.34315 170.29 3C170.29 4.65685 171.633 6 173.29 6V0ZM174.289 6C175.946 6 177.289 4.65685 177.289 3C177.289 1.34315 175.946 0 174.289 0V6ZM175.287 0C173.631 0 172.287 1.34315 172.287 3C172.287 4.65685 173.631 6 175.287 6V0ZM176.286 6C177.943 6 179.286 4.65685 179.286 3C179.286 1.34315 177.943 0 176.286 0V6ZM177.285 0C175.628 0 174.285 1.34315 174.285 3C174.285 4.65685 175.628 6 177.285 6V0ZM178.284 6C179.941 6 181.284 4.65685 181.284 3C181.284 1.34315 179.941 0 178.284 0V6ZM179.283 0C177.626 0 176.283 1.34315 176.283 3C176.283 4.65685 177.626 6 179.283 6V0ZM180.281 6C181.938 6 183.281 4.65685 183.281 3C183.281 1.34315 181.938 0 180.281 0V6ZM181.28 0C179.623 0 178.28 1.34315 178.28 3C178.28 4.65685 179.623 6 181.28 6V0ZM182.279 6C183.936 6 185.279 4.65685 185.279 3C185.279 1.34315 183.936 0 182.279 0V6ZM183.278 0C181.621 0 180.278 1.34315 180.278 3C180.278 4.65685 181.621 6 183.278 6V0ZM184.276 6C185.933 6 187.276 4.65685 187.276 3C187.276 1.34315 185.933 0 184.276 0V6ZM185.275 0C183.618 0 182.275 1.34315 182.275 3C182.275 4.65685 183.618 6 185.275 6V0ZM186.274 6C187.931 6 189.274 4.65685 189.274 3C189.274 1.34315 187.931 0 186.274 0V6ZM187.273 0C185.616 0 184.273 1.34315 184.273 3C184.273 4.65685 185.616 6 187.273 6V0ZM188.272 6C189.928 6 191.272 4.65685 191.272 3C191.272 1.34315 189.928 0 188.272 0V6ZM189.27 0C187.614 0 186.27 1.34315 186.27 3C186.27 4.65685 187.614 6 189.27 6V0ZM190.269 6C191.926 6 193.269 4.65685 193.269 3C193.269 1.34315 191.926 0 190.269 0V6ZM191.268 0C189.611 0 188.268 1.34315 188.268 3C188.268 4.65685 189.611 6 191.268 6V0ZM192.267 6C193.924 6 195.267 4.65685 195.267 3C195.267 1.34315 193.924 0 192.267 0V6ZM193.265 0C191.609 0 190.265 1.34315 190.265 3C190.265 4.65685 191.609 6 193.265 6V0ZM194.264 6C195.921 6 197.264 4.65685 197.264 3C197.264 1.34315 195.921 0 194.264 0V6ZM195.263 0C193.606 0 192.263 1.34315 192.263 3C192.263 4.65685 193.606 6 195.263 6V0ZM196.262 6C197.919 6 199.262 4.65685 199.262 3C199.262 1.34315 197.919 0 196.262 0V6ZM197.261 0C195.604 0 194.261 1.34315 194.261 3C194.261 4.65685 195.604 6 197.261 6V0ZM198.259 6C199.916 6 201.259 4.65685 201.259 3C201.259 1.34315 199.916 0 198.259 0V6ZM199.258 0C197.601 0 196.258 1.34315 196.258 3C196.258 4.65685 197.601 6 199.258 6V0ZM200.257 6C201.914 6 203.257 4.65685 203.257 3C203.257 1.34315 201.914 0 200.257 0V6ZM201.256 0C199.599 0 198.256 1.34315 198.256 3C198.256 4.65685 199.599 6 201.256 6V0ZM202.255 6C203.911 6 205.255 4.65685 205.255 3C205.255 1.34315 203.911 0 202.255 0V6ZM203.253 0C201.596 0 200.253 1.34315 200.253 3C200.253 4.65685 201.596 6 203.253 6V0ZM204.252 6C205.909 6 207.252 4.65685 207.252 3C207.252 1.34315 205.909 0 204.252 0V6ZM205.251 0C203.594 0 202.251 1.34315 202.251 3C202.251 4.65685 203.594 6 205.251 6V0ZM206.25 6C207.906 6 209.25 4.65685 209.25 3C209.25 1.34315 207.906 0 206.25 0V6ZM207.248 0C205.592 0 204.248 1.34315 204.248 3C204.248 4.65685 205.592 6 207.248 6V0ZM208.247 6C209.904 6 211.247 4.65685 211.247 3C211.247 1.34315 209.904 0 208.247 0V6ZM209.246 0C207.589 0 206.246 1.34315 206.246 3C206.246 4.65685 207.589 6 209.246 6V0ZM210.245 6C211.902 6 213.245 4.65685 213.245 3C213.245 1.34315 211.902 0 210.245 0V6ZM211.244 0C209.587 0 208.244 1.34315 208.244 3C208.244 4.65685 209.587 6 211.244 6V0ZM212.242 6C213.899 6 215.242 4.65685 215.242 3C215.242 1.34315 213.899 0 212.242 0V6ZM213.241 0C211.584 0 210.241 1.34315 210.241 3C210.241 4.65685 211.584 6 213.241 6V0ZM214.24 6C215.897 6 217.24 4.65685 217.24 3C217.24 1.34315 215.897 0 214.24 0V6ZM215.239 0C213.582 0 212.239 1.34315 212.239 3C212.239 4.65685 213.582 6 215.239 6V0ZM216.237 6C217.894 6 219.237 4.65685 219.237 3C219.237 1.34315 217.894 0 216.237 0V6ZM217.236 0C215.579 0 214.236 1.34315 214.236 3C214.236 4.65685 215.579 6 217.236 6V0ZM218.235 6C219.892 6 221.235 4.65685 221.235 3C221.235 1.34315 219.892 0 218.235 0V6ZM219.234 0C217.577 0 216.234 1.34315 216.234 3C216.234 4.65685 217.577 6 219.234 6V0ZM220.233 6C221.889 6 223.233 4.65685 223.233 3C223.233 1.34315 221.889 0 220.233 0V6ZM221.231 0C219.574 0 218.231 1.34315 218.231 3C218.231 4.65685 219.574 6 221.231 6V0ZM222.23 6C223.887 6 225.23 4.65685 225.23 3C225.23 1.34315 223.887 0 222.23 0V6ZM223.229 0C221.572 0 220.229 1.34315 220.229 3C220.229 4.65685 221.572 6 223.229 6V0ZM224.228 6C225.885 6 227.228 4.65685 227.228 3C227.228 1.34315 225.885 0 224.228 0V6ZM225.226 0C223.57 0 222.226 1.34315 222.226 3C222.226 4.65685 223.57 6 225.226 6V0ZM226.225 6C227.882 6 229.225 4.65685 229.225 3C229.225 1.34315 227.882 0 226.225 0V6ZM227.224 0C225.567 0 224.224 1.34315 224.224 3C224.224 4.65685 225.567 6 227.224 6V0ZM228.223 6C229.88 6 231.223 4.65685 231.223 3C231.223 1.34315 229.88 0 228.223 0V6ZM229.222 0C227.565 0 226.222 1.34315 226.222 3C226.222 4.65685 227.565 6 229.222 6V0ZM230.22 6C231.877 6 233.22 4.65685 233.22 3C233.22 1.34315 231.877 0 230.22 0V6ZM231.219 0C229.562 0 228.219 1.34315 228.219 3C228.219 4.65685 229.562 6 231.219 6V0ZM232.218 6C233.875 6 235.218 4.65685 235.218 3C235.218 1.34315 233.875 0 232.218 0V6ZM233.217 0C231.56 0 230.217 1.34315 230.217 3C230.217 4.65685 231.56 6 233.217 6V0ZM234.215 6C235.872 6 237.215 4.65685 237.215 3C237.215 1.34315 235.872 0 234.215 0V6ZM235.214 0C233.557 0 232.214 1.34315 232.214 3C232.214 4.65685 233.557 6 235.214 6V0ZM236.213 6C237.87 6 239.213 4.65685 239.213 3C239.213 1.34315 237.87 0 236.213 0V6ZM237.212 0C235.555 0 234.212 1.34315 234.212 3C234.212 4.65685 235.555 6 237.212 6V0ZM238.211 6C239.867 6 241.211 4.65685 241.211 3C241.211 1.34315 239.867 0 238.211 0V6ZM239.209 0C237.552 0 236.209 1.34315 236.209 3C236.209 4.65685 237.552 6 239.209 6V0ZM240.208 6C241.865 6 243.208 4.65685 243.208 3C243.208 1.34315 241.865 0 240.208 0V6ZM241.207 0C239.55 0 238.207 1.34315 238.207 3C238.207 4.65685 239.55 6 241.207 6V0ZM242.206 6C243.863 6 245.206 4.65685 245.206 3C245.206 1.34315 243.863 0 242.206 0V6ZM243.204 0C241.548 0 240.204 1.34315 240.204 3C240.204 4.65685 241.548 6 243.204 6V0ZM244.203 6C245.86 6 247.203 4.65685 247.203 3C247.203 1.34315 245.86 0 244.203 0V6ZM245.202 0C243.545 0 242.202 1.34315 242.202 3C242.202 4.65685 243.545 6 245.202 6V0ZM246.201 6C247.858 6 249.201 4.65685 249.201 3C249.201 1.34315 247.858 0 246.201 0V6ZM247.2 0C245.543 0 244.2 1.34315 244.2 3C244.2 4.65685 245.543 6 247.2 6V0ZM248.198 6C249.855 6 251.198 4.65685 251.198 3C251.198 1.34315 249.855 0 248.198 0V6ZM249.197 0C247.54 0 246.197 1.34315 246.197 3C246.197 4.65685 247.54 6 249.197 6V0ZM250.196 6C251.853 6 253.196 4.65685 253.196 3C253.196 1.34315 251.853 0 250.196 0V6ZM251.195 0C249.538 0 248.195 1.34315 248.195 3C248.195 4.65685 249.538 6 251.195 6V0ZM252.193 6C253.85 6 255.193 4.65685 255.193 3C255.193 1.34315 253.85 0 252.193 0V6ZM253.192 0C251.535 0 250.192 1.34315 250.192 3C250.192 4.65685 251.535 6 253.192 6V0ZM254.191 6C255.848 6 257.191 4.65685 257.191 3C257.191 1.34315 255.848 0 254.191 0V6ZM255.19 0C253.533 0 252.19 1.34315 252.19 3C252.19 4.65685 253.533 6 255.19 6V0ZM256.189 6C257.845 6 259.189 4.65685 259.189 3C259.189 1.34315 257.845 0 256.189 0V6ZM257.187 0C255.531 0 254.187 1.34315 254.187 3C254.187 4.65685 255.531 6 257.187 6V0ZM258.186 6C259.843 6 261.186 4.65685 261.186 3C261.186 1.34315 259.843 0 258.186 0V6ZM259.185 0C257.528 0 256.185 1.34315 256.185 3C256.185 4.65685 257.528 6 259.185 6V0ZM260.184 6C261.841 6 263.184 4.65685 263.184 3C263.184 1.34315 261.841 0 260.184 0V6ZM261.182 0C259.526 0 258.182 1.34315 258.182 3C258.182 4.65685 259.526 6 261.182 6V0ZM262.181 6C263.838 6 265.181 4.65685 265.181 3C265.181 1.34315 263.838 0 262.181 0V6ZM263.18 0C261.523 0 260.18 1.34315 260.18 3C260.18 4.65685 261.523 6 263.18 6V0ZM264.179 6C265.836 6 267.179 4.65685 267.179 3C267.179 1.34315 265.836 0 264.179 0V6ZM265.178 0C263.521 0 262.178 1.34315 262.178 3C262.178 4.65685 263.521 6 265.178 6V0ZM266.176 6C267.833 6 269.176 4.65685 269.176 3C269.176 1.34315 267.833 0 266.176 0V6ZM267.175 0C265.518 0 264.175 1.34315 264.175 3C264.175 4.65685 265.518 6 267.175 6V0ZM268.174 6C269.831 6 271.174 4.65685 271.174 3C271.174 1.34315 269.831 0 268.174 0V6ZM269.173 0C267.516 0 266.173 1.34315 266.173 3C266.173 4.65685 267.516 6 269.173 6V0ZM270.171 6C271.828 6 273.171 4.65685 273.171 3C273.171 1.34315 271.828 0 270.171 0V6ZM271.17 0C269.513 0 268.17 1.34315 268.17 3C268.17 4.65685 269.513 6 271.17 6V0ZM272.169 6C273.826 6 275.169 4.65685 275.169 3C275.169 1.34315 273.826 0 272.169 0V6ZM273.168 0C271.511 0 270.168 1.34315 270.168 3C270.168 4.65685 271.511 6 273.168 6V0ZM274.167 6C275.823 6 277.167 4.65685 277.167 3C277.167 1.34315 275.823 0 274.167 0V6ZM275.165 0C273.509 0 272.165 1.34315 272.165 3C272.165 4.65685 273.509 6 275.165 6V0ZM276.164 6C277.821 6 279.164 4.65685 279.164 3C279.164 1.34315 277.821 0 276.164 0V6ZM277.163 0C275.506 0 274.163 1.34315 274.163 3C274.163 4.65685 275.506 6 277.163 6V0ZM278.162 6C279.819 6 281.162 4.65685 281.162 3C281.162 1.34315 279.819 0 278.162 0V6ZM279.16 0C277.504 0 276.16 1.34315 276.16 3C276.16 4.65685 277.504 6 279.16 6V0ZM280.159 6C281.816 6 283.159 4.65685 283.159 3C283.159 1.34315 281.816 0 280.159 0V6ZM281.158 0C279.501 0 278.158 1.34315 278.158 3C278.158 4.65685 279.501 6 281.158 6V0ZM282.157 6C283.814 6 285.157 4.65685 285.157 3C285.157 1.34315 283.814 0 282.157 0V6ZM283.156 0C281.499 0 280.156 1.34315 280.156 3C280.156 4.65685 281.499 6 283.156 6V0ZM284.154 6C285.811 6 287.154 4.65685 287.154 3C287.154 1.34315 285.811 0 284.154 0V6ZM285.153 0C283.496 0 282.153 1.34315 282.153 3C282.153 4.65685 283.496 6 285.153 6V0ZM286.152 6C287.809 6 289.152 4.65685 289.152 3C289.152 1.34315 287.809 0 286.152 0V6ZM287.151 0C285.494 0 284.151 1.34315 284.151 3C284.151 4.65685 285.494 6 287.151 6V0ZM288.15 6C289.806 6 291.15 4.65685 291.15 3C291.15 1.34315 289.806 0 288.15 0V6ZM289.148 0C287.491 0 286.148 1.34315 286.148 3C286.148 4.65685 287.491 6 289.148 6V0ZM290.147 6C291.804 6 293.147 4.65685 293.147 3C293.147 1.34315 291.804 0 290.147 0V6ZM291.146 0C289.489 0 288.146 1.34315 288.146 3C288.146 4.65685 289.489 6 291.146 6V0ZM292.145 6C293.801 6 295.145 4.65685 295.145 3C295.145 1.34315 293.801 0 292.145 0V6ZM293.143 0C291.487 0 290.143 1.34315 290.143 3C290.143 4.65685 291.487 6 293.143 6V0ZM294.142 6C295.799 6 297.142 4.65685 297.142 3C297.142 1.34315 295.799 0 294.142 0V6ZM295.141 0C293.484 0 292.141 1.34315 292.141 3C292.141 4.65685 293.484 6 295.141 6V0ZM296.14 6C297.797 6 299.14 4.65685 299.14 3C299.14 1.34315 297.797 0 296.14 0V6ZM297.139 0C295.482 0 294.139 1.34315 294.139 3C294.139 4.65685 295.482 6 297.139 6V0ZM298.137 6C299.794 6 301.137 4.65685 301.137 3C301.137 1.34315 299.794 0 298.137 0V6ZM299.136 0C297.479 0 296.136 1.34315 296.136 3C296.136 4.65685 297.479 6 299.136 6V0ZM300.135 6C301.792 6 303.135 4.65685 303.135 3C303.135 1.34315 301.792 0 300.135 0V6ZM301.134 0C299.477 0 298.134 1.34315 298.134 3C298.134 4.65685 299.477 6 301.134 6V0ZM302.132 6C303.789 6 305.132 4.65685 305.132 3C305.132 1.34315 303.789 0 302.132 0V6ZM303.131 0C301.474 0 300.131 1.34315 300.131 3C300.131 4.65685 301.474 6 303.131 6V0ZM304.13 6C305.787 6 307.13 4.65685 307.13 3C307.13 1.34315 305.787 0 304.13 0V6ZM305.129 0C303.472 0 302.129 1.34315 302.129 3C302.129 4.65685 303.472 6 305.129 6V0ZM306.128 6C307.784 6 309.128 4.65685 309.128 3C309.128 1.34315 307.784 0 306.128 0V6ZM307.126 0C305.469 0 304.126 1.34315 304.126 3C304.126 4.65685 305.469 6 307.126 6V0ZM308.125 6C309.782 6 311.125 4.65685 311.125 3C311.125 1.34315 309.782 0 308.125 0V6ZM309.124 0C307.467 0 306.124 1.34315 306.124 3C306.124 4.65685 307.467 6 309.124 6V0ZM310.123 6C311.78 6 313.123 4.65685 313.123 3C313.123 1.34315 311.78 0 310.123 0V6ZM311.121 0C309.465 0 308.121 1.34315 308.121 3C308.121 4.65685 309.465 6 311.121 6V0ZM312.12 6C313.777 6 315.12 4.65685 315.12 3C315.12 1.34315 313.777 0 312.12 0V6ZM313.119 0C311.462 0 310.119 1.34315 310.119 3C310.119 4.65685 311.462 6 313.119 6V0ZM314.118 6C315.775 6 317.118 4.65685 317.118 3C317.118 1.34315 315.775 0 314.118 0V6ZM315.117 0C313.46 0 312.117 1.34315 312.117 3C312.117 4.65685 313.46 6 315.117 6V0ZM316.115 6C317.772 6 319.115 4.65685 319.115 3C319.115 1.34315 317.772 0 316.115 0V6ZM317.114 0C315.457 0 314.114 1.34315 314.114 3C314.114 4.65685 315.457 6 317.114 6V0ZM318.113 6C319.77 6 321.113 4.65685 321.113 3C321.113 1.34315 319.77 0 318.113 0V6ZM319.112 0C317.455 0 316.112 1.34315 316.112 3C316.112 4.65685 317.455 6 319.112 6V0ZM320.11 6C321.767 6 323.11 4.65685 323.11 3C323.11 1.34315 321.767 0 320.11 0V6ZM321.109 0C319.452 0 318.109 1.34315 318.109 3C318.109 4.65685 319.452 6 321.109 6V0ZM322.108 6C323.765 6 325.108 4.65685 325.108 3C325.108 1.34315 323.765 0 322.108 0V6ZM323.107 0C321.45 0 320.107 1.34315 320.107 3C320.107 4.65685 321.45 6 323.107 6V0ZM324.106 6C325.762 6 327.106 4.65685 327.106 3C327.106 1.34315 325.762 0 324.106 0V6ZM325.104 0C323.447 0 322.104 1.34315 322.104 3C322.104 4.65685 323.447 6 325.104 6V0ZM326.103 6C327.76 6 329.103 4.65685 329.103 3C329.103 1.34315 327.76 0 326.103 0V6ZM327.102 0C325.445 0 324.102 1.34315 324.102 3C324.102 4.65685 325.445 6 327.102 6V0ZM328.101 6C329.758 6 331.101 4.65685 331.101 3C331.101 1.34315 329.758 0 328.101 0V6ZM329.099 0C327.443 0 326.099 1.34315 326.099 3C326.099 4.65685 327.443 6 329.099 6V0ZM330.098 6C331.755 6 333.098 4.65685 333.098 3C333.098 1.34315 331.755 0 330.098 0V6ZM331.097 0C329.44 0 328.097 1.34315 328.097 3C328.097 4.65685 329.44 6 331.097 6V0ZM332.096 6C333.753 6 335.096 4.65685 335.096 3C335.096 1.34315 333.753 0 332.096 0V6ZM333.095 0C331.438 0 330.095 1.34315 330.095 3C330.095 4.65685 331.438 6 333.095 6V0ZM334.093 6C335.75 6 337.093 4.65685 337.093 3C337.093 1.34315 335.75 0 334.093 0V6ZM335.092 0C333.435 0 332.092 1.34315 332.092 3C332.092 4.65685 333.435 6 335.092 6V0ZM336.091 6C337.748 6 339.091 4.65685 339.091 3C339.091 1.34315 337.748 0 336.091 0V6ZM337.09 0C335.433 0 334.09 1.34315 334.09 3C334.09 4.65685 335.433 6 337.09 6V0ZM338.088 6C339.745 6 341.088 4.65685 341.088 3C341.088 1.34315 339.745 0 338.088 0V6ZM339.087 0C337.43 0 336.087 1.34315 336.087 3C336.087 4.65685 337.43 6 339.087 6V0ZM340.086 6C341.743 6 343.086 4.65685 343.086 3C343.086 1.34315 341.743 0 340.086 0V6ZM341.085 0C339.428 0 338.085 1.34315 338.085 3C338.085 4.65685 339.428 6 341.085 6V0ZM342.084 6C343.74 6 345.084 4.65685 345.084 3C345.084 1.34315 343.74 0 342.084 0V6ZM343.082 0C341.426 0 340.082 1.34315 340.082 3C340.082 4.65685 341.426 6 343.082 6V0ZM344.081 6C345.738 6 347.081 4.65685 347.081 3C347.081 1.34315 345.738 0 344.081 0V6ZM345.08 0C343.423 0 342.08 1.34315 342.08 3C342.08 4.65685 343.423 6 345.08 6V0ZM346.079 6C347.736 6 349.079 4.65685 349.079 3C349.079 1.34315 347.736 0 346.079 0V6ZM347.077 0C345.421 0 344.077 1.34315 344.077 3C344.077 4.65685 345.421 6 347.077 6V0ZM348.076 6C349.733 6 351.076 4.65685 351.076 3C351.076 1.34315 349.733 0 348.076 0V6ZM349.075 0C347.418 0 346.075 1.34315 346.075 3C346.075 4.65685 347.418 6 349.075 6V0ZM350.074 6C351.731 6 353.074 4.65685 353.074 3C353.074 1.34315 351.731 0 350.074 0V6ZM351.073 0C349.416 0 348.073 1.34315 348.073 3C348.073 4.65685 349.416 6 351.073 6V0ZM352.071 6C353.728 6 355.071 4.65685 355.071 3C355.071 1.34315 353.728 0 352.071 0V6ZM353.07 0C351.413 0 350.07 1.34315 350.07 3C350.07 4.65685 351.413 6 353.07 6V0ZM354.069 6C355.726 6 357.069 4.65685 357.069 3C357.069 1.34315 355.726 0 354.069 0V6ZM355.068 0C353.411 0 352.068 1.34315 352.068 3C352.068 4.65685 353.411 6 355.068 6V0ZM356.067 6C357.723 6 359.067 4.65685 359.067 3C359.067 1.34315 357.723 0 356.067 0V6ZM357.065 0C355.408 0 354.065 1.34315 354.065 3C354.065 4.65685 355.408 6 357.065 6V0ZM358.064 6C359.721 6 361.064 4.65685 361.064 3C361.064 1.34315 359.721 0 358.064 0V6ZM359.063 0C357.406 0 356.063 1.34315 356.063 3C356.063 4.65685 357.406 6 359.063 6V0ZM360.062 6C361.718 6 363.062 4.65685 363.062 3C363.062 1.34315 361.718 0 360.062 0V6ZM361.06 0C359.404 0 358.06 1.34315 358.06 3C358.06 4.65685 359.404 6 361.06 6V0ZM362.059 6C363.716 6 365.059 4.65685 365.059 3C365.059 1.34315 363.716 0 362.059 0V6ZM363.058 0C361.401 0 360.058 1.34315 360.058 3C360.058 4.65685 361.401 6 363.058 6V0ZM364.057 6C365.714 6 367.057 4.65685 367.057 3C367.057 1.34315 365.714 0 364.057 0V6ZM365.056 0C363.399 0 362.056 1.34315 362.056 3C362.056 4.65685 363.399 6 365.056 6V0ZM366.054 6C367.711 6 369.054 4.65685 369.054 3C369.054 1.34315 367.711 0 366.054 0V6ZM367.053 0C365.396 0 364.053 1.34315 364.053 3C364.053 4.65685 365.396 6 367.053 6V0ZM368.052 6C369.709 6 371.052 4.65685 371.052 3C371.052 1.34315 369.709 0 368.052 0V6ZM369.051 0C367.394 0 366.051 1.34315 366.051 3C366.051 4.65685 367.394 6 369.051 6V0ZM370.049 6C371.706 6 373.049 4.65685 373.049 3C373.049 1.34315 371.706 0 370.049 0V6ZM371.048 0C369.391 0 368.048 1.34315 368.048 3C368.048 4.65685 369.391 6 371.048 6V0ZM372.047 6C373.704 6 375.047 4.65685 375.047 3C375.047 1.34315 373.704 0 372.047 0V6ZM373.046 0C371.389 0 370.046 1.34315 370.046 3C370.046 4.65685 371.389 6 373.046 6V0ZM374.045 6C375.701 6 377.045 4.65685 377.045 3C377.045 1.34315 375.701 0 374.045 0V6ZM375.043 0C373.386 0 372.043 1.34315 372.043 3C372.043 4.65685 373.386 6 375.043 6V0ZM376.042 6C377.699 6 379.042 4.65685 379.042 3C379.042 1.34315 377.699 0 376.042 0V6ZM377.041 0C375.384 0 374.041 1.34315 374.041 3C374.041 4.65685 375.384 6 377.041 6V0ZM378.04 6C379.696 6 381.04 4.65685 381.04 3C381.04 1.34315 379.696 0 378.04 0V6ZM379.038 0C377.382 0 376.038 1.34315 376.038 3C376.038 4.65685 377.382 6 379.038 6V0ZM380.037 6C381.694 6 383.037 4.65685 383.037 3C383.037 1.34315 381.694 0 380.037 0V6ZM381.036 0C379.379 0 378.036 1.34315 378.036 3C378.036 4.65685 379.379 6 381.036 6V0ZM382.035 6C383.692 6 385.035 4.65685 385.035 3C385.035 1.34315 383.692 0 382.035 0V6ZM383.034 0C381.377 0 380.034 1.34315 380.034 3C380.034 4.65685 381.377 6 383.034 6V0ZM384.032 6C385.689 6 387.032 4.65685 387.032 3C387.032 1.34315 385.689 0 384.032 0V6ZM385.031 0C383.374 0 382.031 1.34315 382.031 3C382.031 4.65685 383.374 6 385.031 6V0ZM386.03 6C387.687 6 389.03 4.65685 389.03 3C389.03 1.34315 387.687 0 386.03 0V6ZM387.029 0C385.372 0 384.029 1.34315 384.029 3C384.029 4.65685 385.372 6 387.029 6V0ZM388.027 6C389.684 6 391.027 4.65685 391.027 3C391.027 1.34315 389.684 0 388.027 0V6ZM389.026 0C387.369 0 386.026 1.34315 386.026 3C386.026 4.65685 387.369 6 389.026 6V0ZM390.025 6C391.682 6 393.025 4.65685 393.025 3C393.025 1.34315 391.682 0 390.025 0V6ZM391.024 0C389.367 0 388.024 1.34315 388.024 3C388.024 4.65685 389.367 6 391.024 6V0ZM392.023 6C393.679 6 395.023 4.65685 395.023 3C395.023 1.34315 393.679 0 392.023 0V6ZM393.021 0C391.364 0 390.021 1.34315 390.021 3C390.021 4.65685 391.364 6 393.021 6V0ZM394.02 6C395.677 6 397.02 4.65685 397.02 3C397.02 1.34315 395.677 0 394.02 0V6ZM395.019 0C393.362 0 392.019 1.34315 392.019 3C392.019 4.65685 393.362 6 395.019 6V0ZM396.018 6C397.675 6 399.018 4.65685 399.018 3C399.018 1.34315 397.675 0 396.018 0V6ZM397.016 0C395.36 0 394.016 1.34315 394.016 3C394.016 4.65685 395.36 6 397.016 6V0ZM398.015 6C399.672 6 401.015 4.65685 401.015 3C401.015 1.34315 399.672 0 398.015 0V6ZM399.014 0C397.357 0 396.014 1.34315 396.014 3C396.014 4.65685 397.357 6 399.014 6V0ZM400.013 6C401.67 6 403.013 4.65685 403.013 3C403.013 1.34315 401.67 0 400.013 0V6ZM401.012 0C399.355 0 398.012 1.34315 398.012 3C398.012 4.65685 399.355 6 401.012 6V0ZM402.01 6C403.667 6 405.01 4.65685 405.01 3C405.01 1.34315 403.667 0 402.01 0V6ZM403.009 0C401.352 0 400.009 1.34315 400.009 3C400.009 4.65685 401.352 6 403.009 6V0ZM404.008 6C405.665 6 407.008 4.65685 407.008 3C407.008 1.34315 405.665 0 404.008 0V6ZM405.007 0C403.35 0 402.007 1.34315 402.007 3C402.007 4.65685 403.35 6 405.007 6V0ZM406.005 6C407.662 6 409.005 4.65685 409.005 3C409.005 1.34315 407.662 0 406.005 0V6ZM407.004 0C405.347 0 404.004 1.34315 404.004 3C404.004 4.65685 405.347 6 407.004 6V0ZM408.003 6C409.66 6 411.003 4.65685 411.003 3C411.003 1.34315 409.66 0 408.003 0V6ZM409.002 0C407.345 0 406.002 1.34315 406.002 3C406.002 4.65685 407.345 6 409.002 6V0ZM2 6H2.49939V0H2V6ZM3.49816 6H4.49694V0H3.49816V6ZM5.49571 6H6.49449V0H5.49571V6ZM7.49326 6H8.49203V0H7.49326V6ZM9.49081 6H10.4896V0H9.49081V6ZM11.4884 6H12.4871V0H11.4884V6ZM13.4859 6H14.4847V0H13.4859V6ZM15.4835 6H16.4822V0H15.4835V6ZM17.481 6H18.4798V0H17.481V6ZM19.4786 6H20.4773V0H19.4786V6ZM21.4761 6H22.4749V0H21.4761V6ZM23.4737 6H24.4724V0H23.4737V6ZM25.4712 6H26.47V0H25.4712V6ZM27.4688 6H28.4675V0H27.4688V6ZM29.4663 6H30.4651V0H29.4663V6ZM31.4639 6H32.4626V0H31.4639V6ZM33.4614 6H34.4602V0H33.4614V6ZM35.459 6H36.4577V0H35.459V6ZM37.4565 6H38.4553V0H37.4565V6ZM39.4541 6H40.4528V0H39.4541V6ZM41.4516 6H42.4504V0H41.4516V6ZM43.4492 6H44.4479V0H43.4492V6ZM45.4467 6H46.4455V0H45.4467V6ZM47.4443 6H48.443V0H47.4443V6ZM49.4418 6H50.4406V0H49.4418V6ZM51.4394 6H52.4381V0H51.4394V6ZM53.4369 6H54.4357V0H53.4369V6ZM55.4345 6H56.4332V0H55.4345V6ZM57.432 6H58.4308V0H57.432V6ZM59.4296 6H60.4283V0H59.4296V6ZM61.4271 6H62.4259V0H61.4271V6ZM63.4247 6H64.4235V0H63.4247V6ZM65.4222 6H66.421V0H65.4222V6ZM67.4198 6H68.4185V0H67.4198V6ZM69.4173 6H70.4161V0H69.4173V6ZM71.4149 6H72.4136V0H71.4149V6ZM73.4124 6H74.4112V0H73.4124V6ZM75.4099 6H76.4087V0H75.4099V6ZM77.4075 6H78.4063V0H77.4075V6ZM79.405 6H80.4038V0H79.405V6ZM81.4026 6H82.4013V0H81.4026V6ZM83.4001 6H84.3989V0H83.4001V6ZM85.3977 6H86.3964V0H85.3977V6ZM87.3952 6H88.394V0H87.3952V6ZM89.3927 6H90.3915V0H89.3927V6ZM91.3903 6H92.3891V0H91.3903V6ZM93.3878 6H94.3866V0H93.3878V6ZM95.3854 6H96.3841V0H95.3854V6ZM97.3829 6H98.3817V0H97.3829V6ZM99.3805 6H100.379V0H99.3805V6ZM101.378 6H102.377V0H101.378V6ZM103.376 6H104.374V0H103.376V6ZM105.373 6H106.372V0H105.373V6ZM107.371 6H108.369V0H107.371V6ZM109.368 6H110.367V0H109.368V6ZM111.366 6H112.364V0H111.366V6ZM113.363 6H114.362V0H113.363V6ZM115.361 6H116.36V0H115.361V6ZM117.358 6H118.357V0H117.358V6ZM119.356 6H120.355V0H119.356V6ZM121.353 6H122.352V0H121.353V6ZM123.351 6H124.35V0H123.351V6ZM125.349 6H126.347V0H125.349V6ZM127.346 6H128.345V0H127.346V6ZM129.344 6H130.342V0H129.344V6ZM131.341 6H132.34V0H131.341V6ZM133.339 6H134.338V0H133.339V6ZM135.336 6H136.335V0H135.336V6ZM137.334 6H138.333V0H137.334V6ZM139.331 6H140.33V0H139.331V6ZM141.329 6H142.328V0H141.329V6ZM143.327 6H144.325V0H143.327V6ZM145.324 6H146.323V0H145.324V6ZM147.322 6H148.32V0H147.322V6ZM149.319 6H150.318V0H149.319V6ZM151.317 6H152.316V0H151.317V6ZM153.314 6H154.313V0H153.314V6ZM155.312 6H156.311V0H155.312V6ZM157.309 6H158.308V0H157.309V6ZM159.307 6H160.306V0H159.307V6ZM161.305 6H162.303V0H161.305V6ZM163.302 6H164.301V0H163.302V6ZM165.3 6H166.298V0H165.3V6ZM167.297 6H168.296V0H167.297V6ZM169.295 6H170.294V0H169.295V6ZM171.292 6H172.291V0H171.292V6ZM173.29 6H174.289V0H173.29V6ZM175.287 6H176.286V0H175.287V6ZM177.285 6H178.284V0H177.285V6ZM179.283 6H180.281V0H179.283V6ZM181.28 6H182.279V0H181.28V6ZM183.278 6H184.276V0H183.278V6ZM185.275 6H186.274V0H185.275V6ZM187.273 6H188.272V0H187.273V6ZM189.27 6H190.269V0H189.27V6ZM191.268 6H192.267V0H191.268V6ZM193.265 6H194.264V0H193.265V6ZM195.263 6H196.262V0H195.263V6ZM197.261 6H198.259V0H197.261V6ZM199.258 6H200.257V0H199.258V6ZM201.256 6H202.255V0H201.256V6ZM203.253 6H204.252V0H203.253V6ZM205.251 6H206.25V0H205.251V6ZM207.248 6H208.247V0H207.248V6ZM209.246 6H210.245V0H209.246V6ZM211.244 6H212.242V0H211.244V6ZM213.241 6H214.24V0H213.241V6ZM215.239 6H216.237V0H215.239V6ZM217.236 6H218.235V0H217.236V6ZM219.234 6H220.233V0H219.234V6ZM221.231 6H222.23V0H221.231V6ZM223.229 6H224.228V0H223.229V6ZM225.226 6H226.225V0H225.226V6ZM227.224 6H228.223V0H227.224V6ZM229.222 6H230.22V0H229.222V6ZM231.219 6H232.218V0H231.219V6ZM233.217 6H234.215V0H233.217V6ZM235.214 6H236.213V0H235.214V6ZM237.212 6H238.211V0H237.212V6ZM239.209 6H240.208V0H239.209V6ZM241.207 6H242.206V0H241.207V6ZM243.204 6H244.203V0H243.204V6ZM245.202 6H246.201V0H245.202V6ZM247.2 6H248.198V0H247.2V6ZM249.197 6H250.196V0H249.197V6ZM251.195 6H252.193V0H251.195V6ZM253.192 6H254.191V0H253.192V6ZM255.19 6H256.189V0H255.19V6ZM257.187 6H258.186V0H257.187V6ZM259.185 6H260.184V0H259.185V6ZM261.182 6H262.181V0H261.182V6ZM263.18 6H264.179V0H263.18V6ZM265.178 6H266.176V0H265.178V6ZM267.175 6H268.174V0H267.175V6ZM269.173 6H270.171V0H269.173V6ZM271.17 6H272.169V0H271.17V6ZM273.168 6H274.167V0H273.168V6ZM275.165 6H276.164V0H275.165V6ZM277.163 6H278.162V0H277.163V6ZM279.16 6H280.159V0H279.16V6ZM281.158 6H282.157V0H281.158V6ZM283.156 6H284.154V0H283.156V6ZM285.153 6H286.152V0H285.153V6ZM287.151 6H288.15V0H287.151V6ZM289.148 6H290.147V0H289.148V6ZM291.146 6H292.145V0H291.146V6ZM293.143 6H294.142V0H293.143V6ZM295.141 6H296.14V0H295.141V6ZM297.139 6H298.137V0H297.139V6ZM299.136 6H300.135V0H299.136V6ZM301.134 6H302.132V0H301.134V6ZM303.131 6H304.13V0H303.131V6ZM305.129 6H306.128V0H305.129V6ZM307.126 6H308.125V0H307.126V6ZM309.124 6H310.123V0H309.124V6ZM311.121 6H312.12V0H311.121V6ZM313.119 6H314.118V0H313.119V6ZM315.117 6H316.115V0H315.117V6ZM317.114 6H318.113V0H317.114V6ZM319.112 6H320.11V0H319.112V6ZM321.109 6H322.108V0H321.109V6ZM323.107 6H324.106V0H323.107V6ZM325.104 6H326.103V0H325.104V6ZM327.102 6H328.101V0H327.102V6ZM329.099 6H330.098V0H329.099V6ZM331.097 6H332.096V0H331.097V6ZM333.095 6H334.093V0H333.095V6ZM335.092 6H336.091V0H335.092V6ZM337.09 6H338.088V0H337.09V6ZM339.087 6H340.086V0H339.087V6ZM341.085 6H342.084V0H341.085V6ZM343.082 6H344.081V0H343.082V6ZM345.08 6H346.079V0H345.08V6ZM347.077 6H348.076V0H347.077V6ZM349.075 6H350.074V0H349.075V6ZM351.073 6H352.071V0H351.073V6ZM353.07 6H354.069V0H353.07V6ZM355.068 6H356.067V0H355.068V6ZM357.065 6H358.064V0H357.065V6ZM359.063 6H360.062V0H359.063V6ZM361.06 6H362.059V0H361.06V6ZM363.058 6H364.057V0H363.058V6ZM365.056 6H366.054V0H365.056V6ZM367.053 6H368.052V0H367.053V6ZM369.051 6H370.049V0H369.051V6ZM371.048 6H372.047V0H371.048V6ZM373.046 6H374.045V0H373.046V6ZM375.043 6H376.042V0H375.043V6ZM377.041 6H378.04V0H377.041V6ZM379.038 6H380.037V0H379.038V6ZM381.036 6H382.035V0H381.036V6ZM383.034 6H384.032V0H383.034V6ZM385.031 6H386.03V0H385.031V6ZM387.029 6H388.027V0H387.029V6ZM389.026 6H390.025V0H389.026V6ZM391.024 6H392.023V0H391.024V6ZM393.021 6H394.02V0H393.021V6ZM395.019 6H396.018V0H395.019V6ZM397.016 6H398.015V0H397.016V6ZM399.014 6H400.013V0H399.014V6ZM401.012 6H402.01V0H401.012V6ZM403.009 6H404.008V0H403.009V6ZM405.007 6H406.005V0H405.007V6ZM407.004 6H408.003V0H407.004V6ZM409.002 6H409.5V0H409.002V6Z" fill="#FF7A00"/>
<path d="M148.5 6C150.157 6 151.5 4.65685 151.5 3C151.5 1.34315 150.157 0 148.5 0V6ZM149.5 0C147.843 0 146.5 1.34315 146.5 3C146.5 4.65685 147.843 6 149.5 6V0ZM150.5 6C152.157 6 153.5 4.65685 153.5 3C153.5 1.34315 152.157 0 150.5 0L150.5 6ZM151.5 0C149.843 0 148.5 1.34315 148.5 3C148.5 4.65685 149.843 6 151.5 6V0ZM152.5 6C154.157 6 155.5 4.65685 155.5 3C155.5 1.34315 154.157 0 152.5 0V6ZM153.5 0C151.843 0 150.5 1.34315 150.5 3C150.5 4.65685 151.843 6 153.5 6L153.5 0ZM154.5 6C156.157 6 157.5 4.65685 157.5 3C157.5 1.34315 156.157 0 154.5 0V6ZM155.5 0C153.843 0 152.5 1.34315 152.5 3C152.5 4.65685 153.843 6 155.5 6V0ZM156.5 6C158.157 6 159.5 4.65685 159.5 3C159.5 1.34315 158.157 0 156.5 0V6ZM157.5 0C155.843 0 154.5 1.34315 154.5 3C154.5 4.65685 155.843 6 157.5 6V0ZM158.5 6C160.157 6 161.5 4.65685 161.5 3C161.5 1.34315 160.157 0 158.5 0V6ZM159.5 0C157.843 0 156.5 1.34315 156.5 3C156.5 4.65685 157.843 6 159.5 6V0ZM160.5 6C162.157 6 163.5 4.65685 163.5 3C163.5 1.34315 162.157 0 160.5 0V6ZM161.5 0C159.843 0 158.5 1.34315 158.5 3C158.5 4.65685 159.843 6 161.5 6V0ZM162.5 6C164.157 6 165.5 4.65685 165.5 3C165.5 1.34315 164.157 0 162.5 0V6ZM163.5 0C161.843 0 160.5 1.34315 160.5 3C160.5 4.65685 161.843 6 163.5 6V0ZM164.5 6C166.157 6 167.5 4.65685 167.5 3C167.5 1.34315 166.157 0 164.5 0V6ZM165.5 0C163.843 0 162.5 1.34315 162.5 3C162.5 4.65685 163.843 6 165.5 6V0ZM166.5 6C168.157 6 169.5 4.65685 169.5 3C169.5 1.34315 168.157 0 166.5 0V6ZM167.5 0C165.843 0 164.5 1.34315 164.5 3C164.5 4.65685 165.843 6 167.5 6V0ZM168.5 6C170.157 6 171.5 4.65685 171.5 3C171.5 1.34315 170.157 0 168.5 0V6ZM169.5 0C167.843 0 166.5 1.34315 166.5 3C166.5 4.65685 167.843 6 169.5 6V0ZM170.5 6C172.157 6 173.5 4.65685 173.5 3C173.5 1.34315 172.157 0 170.5 0V6ZM171.5 0C169.843 0 168.5 1.34315 168.5 3C168.5 4.65685 169.843 6 171.5 6V0ZM172.5 6C174.157 6 175.5 4.65685 175.5 3C175.5 1.34315 174.157 0 172.5 0V6ZM173.5 0C171.843 0 170.5 1.34315 170.5 3C170.5 4.65685 171.843 6 173.5 6V0ZM174.5 6C176.157 6 177.5 4.65685 177.5 3C177.5 1.34315 176.157 0 174.5 0V6ZM175.5 0C173.843 0 172.5 1.34315 172.5 3C172.5 4.65685 173.843 6 175.5 6V0ZM176.5 6C178.157 6 179.5 4.65685 179.5 3C179.5 1.34315 178.157 0 176.5 0V6ZM177.5 0C175.843 0 174.5 1.34315 174.5 3C174.5 4.65685 175.843 6 177.5 6V0ZM178.5 6C180.157 6 181.5 4.65685 181.5 3C181.5 1.34315 180.157 0 178.5 0V6ZM179.5 0C177.843 0 176.5 1.34315 176.5 3C176.5 4.65685 177.843 6 179.5 6V0ZM180.5 6C182.157 6 183.5 4.65685 183.5 3C183.5 1.34315 182.157 0 180.5 0V6ZM181.5 0C179.843 0 178.5 1.34315 178.5 3C178.5 4.65685 179.843 6 181.5 6V0ZM182.5 6C184.157 6 185.5 4.65685 185.5 3C185.5 1.34315 184.157 0 182.5 0V6ZM183.5 0C181.843 0 180.5 1.34315 180.5 3C180.5 4.65685 181.843 6 183.5 6V0ZM184.5 6C186.157 6 187.5 4.65685 187.5 3C187.5 1.34315 186.157 0 184.5 0V6ZM185.5 0C183.843 0 182.5 1.34315 182.5 3C182.5 4.65685 183.843 6 185.5 6V0ZM186.5 6C188.157 6 189.5 4.65685 189.5 3C189.5 1.34315 188.157 0 186.5 0V6ZM187.5 0C185.843 0 184.5 1.34315 184.5 3C184.5 4.65685 185.843 6 187.5 6V0ZM188.5 6C190.157 6 191.5 4.65685 191.5 3C191.5 1.34315 190.157 0 188.5 0V6ZM189.5 0C187.843 0 186.5 1.34315 186.5 3C186.5 4.65685 187.843 6 189.5 6V0ZM190.5 6C192.157 6 193.5 4.65685 193.5 3C193.5 1.34315 192.157 0 190.5 0V6ZM191.5 0C189.843 0 188.5 1.34315 188.5 3C188.5 4.65685 189.843 6 191.5 6V0ZM192.5 6C194.157 6 195.5 4.65685 195.5 3C195.5 1.34315 194.157 0 192.5 0V6ZM193.5 0C191.843 0 190.5 1.34315 190.5 3C190.5 4.65685 191.843 6 193.5 6V0ZM194.5 6C196.157 6 197.5 4.65685 197.5 3C197.5 1.34315 196.157 0 194.5 0V6ZM195.5 0C193.843 0 192.5 1.34315 192.5 3C192.5 4.65685 193.843 6 195.5 6V0ZM196.5 6C198.157 6 199.5 4.65685 199.5 3C199.5 1.34315 198.157 0 196.5 0V6ZM197.5 0C195.843 0 194.5 1.34315 194.5 3C194.5 4.65685 195.843 6 197.5 6V0ZM198.5 6C200.157 6 201.5 4.65685 201.5 3C201.5 1.34315 200.157 0 198.5 0V6ZM199.5 0C197.843 0 196.5 1.34315 196.5 3C196.5 4.65685 197.843 6 199.5 6V0ZM200.5 6C202.157 6 203.5 4.65685 203.5 3C203.5 1.34315 202.157 0 200.5 0V6ZM201.5 0C199.843 0 198.5 1.34315 198.5 3C198.5 4.65685 199.843 6 201.5 6V0ZM202.5 6C204.157 6 205.5 4.65685 205.5 3C205.5 1.34315 204.157 0 202.5 0V6ZM203.5 0C201.843 0 200.5 1.34315 200.5 3C200.5 4.65685 201.843 6 203.5 6V0ZM204.5 6C206.157 6 207.5 4.65685 207.5 3C207.5 1.34315 206.157 0 204.5 0V6ZM205.5 0C203.843 0 202.5 1.34315 202.5 3C202.5 4.65685 203.843 6 205.5 6V0ZM206.5 6C208.157 6 209.5 4.65685 209.5 3C209.5 1.34315 208.157 0 206.5 0V6ZM207.5 0C205.843 0 204.5 1.34315 204.5 3C204.5 4.65685 205.843 6 207.5 6V0ZM208.5 6C210.157 6 211.5 4.65685 211.5 3C211.5 1.34315 210.157 0 208.5 0V6ZM209.5 0C207.843 0 206.5 1.34315 206.5 3C206.5 4.65685 207.843 6 209.5 6V0ZM210.5 6C212.157 6 213.5 4.65685 213.5 3C213.5 1.34315 212.157 0 210.5 0V6ZM211.5 0C209.843 0 208.5 1.34315 208.5 3C208.5 4.65685 209.843 6 211.5 6V0ZM212.5 6C214.157 6 215.5 4.65685 215.5 3C215.5 1.34315 214.157 0 212.5 0V6ZM213.5 0C211.843 0 210.5 1.34315 210.5 3C210.5 4.65685 211.843 6 213.5 6V0ZM214.5 6C216.157 6 217.5 4.65685 217.5 3C217.5 1.34315 216.157 0 214.5 0V6ZM215.5 0C213.843 0 212.5 1.34315 212.5 3C212.5 4.65685 213.843 6 215.5 6V0ZM216.5 6C218.157 6 219.5 4.65685 219.5 3C219.5 1.34315 218.157 0 216.5 0V6ZM217.5 0C215.843 0 214.5 1.34315 214.5 3C214.5 4.65685 215.843 6 217.5 6V0ZM218.5 6C220.157 6 221.5 4.65685 221.5 3C221.5 1.34315 220.157 0 218.5 0V6ZM219.5 0C217.843 0 216.5 1.34315 216.5 3C216.5 4.65685 217.843 6 219.5 6V0ZM220.5 6C222.157 6 223.5 4.65685 223.5 3C223.5 1.34315 222.157 0 220.5 0V6ZM221.5 0C219.843 0 218.5 1.34315 218.5 3C218.5 4.65685 219.843 6 221.5 6V0ZM222.5 6C224.157 6 225.5 4.65685 225.5 3C225.5 1.34315 224.157 0 222.5 0V6ZM223.5 0C221.843 0 220.5 1.34315 220.5 3C220.5 4.65685 221.843 6 223.5 6V0ZM224.5 6C226.157 6 227.5 4.65685 227.5 3C227.5 1.34315 226.157 0 224.5 0V6ZM225.5 0C223.843 0 222.5 1.34315 222.5 3C222.5 4.65685 223.843 6 225.5 6V0ZM226.5 6C228.157 6 229.5 4.65685 229.5 3C229.5 1.34315 228.157 0 226.5 0V6ZM227.5 0C225.843 0 224.5 1.34315 224.5 3C224.5 4.65685 225.843 6 227.5 6V0ZM228.5 6C230.157 6 231.5 4.65685 231.5 3C231.5 1.34315 230.157 0 228.5 0V6ZM229.5 0C227.843 0 226.5 1.34315 226.5 3C226.5 4.65685 227.843 6 229.5 6V0ZM230.5 6C232.157 6 233.5 4.65685 233.5 3C233.5 1.34315 232.157 0 230.5 0V6ZM231.5 0C229.843 0 228.5 1.34315 228.5 3C228.5 4.65685 229.843 6 231.5 6V0ZM232.5 6C234.157 6 235.5 4.65685 235.5 3C235.5 1.34315 234.157 0 232.5 0V6ZM233.5 0C231.843 0 230.5 1.34315 230.5 3C230.5 4.65685 231.843 6 233.5 6V0ZM234.5 6C236.157 6 237.5 4.65685 237.5 3C237.5 1.34315 236.157 0 234.5 0V6ZM235.5 0C233.843 0 232.5 1.34315 232.5 3C232.5 4.65685 233.843 6 235.5 6V0ZM236.5 6C238.157 6 239.5 4.65685 239.5 3C239.5 1.34315 238.157 0 236.5 0V6ZM237.5 0C235.843 0 234.5 1.34315 234.5 3C234.5 4.65685 235.843 6 237.5 6V0ZM238.5 6C240.157 6 241.5 4.65685 241.5 3C241.5 1.34315 240.157 0 238.5 0V6ZM239.5 0C237.843 0 236.5 1.34315 236.5 3C236.5 4.65685 237.843 6 239.5 6V0ZM240.5 6C242.157 6 243.5 4.65685 243.5 3C243.5 1.34315 242.157 0 240.5 0V6ZM241.5 0C239.843 0 238.5 1.34315 238.5 3C238.5 4.65685 239.843 6 241.5 6V0ZM242.5 6C244.157 6 245.5 4.65685 245.5 3C245.5 1.34315 244.157 0 242.5 0V6ZM243.5 0C241.843 0 240.5 1.34315 240.5 3C240.5 4.65685 241.843 6 243.5 6V0ZM244.5 6C246.157 6 247.5 4.65685 247.5 3C247.5 1.34315 246.157 0 244.5 0V6ZM245.5 0C243.843 0 242.5 1.34315 242.5 3C242.5 4.65685 243.843 6 245.5 6V0ZM246.5 6C248.157 6 249.5 4.65685 249.5 3C249.5 1.34315 248.157 0 246.5 0V6ZM247.5 0C245.843 0 244.5 1.34315 244.5 3C244.5 4.65685 245.843 6 247.5 6V0ZM248.5 6C250.157 6 251.5 4.65685 251.5 3C251.5 1.34315 250.157 0 248.5 0V6ZM249.5 0C247.843 0 246.5 1.34315 246.5 3C246.5 4.65685 247.843 6 249.5 6V0ZM250.5 6C252.157 6 253.5 4.65685 253.5 3C253.5 1.34315 252.157 0 250.5 0V6ZM251.5 0C249.843 0 248.5 1.34315 248.5 3C248.5 4.65685 249.843 6 251.5 6V0ZM252.5 6C254.157 6 255.5 4.65685 255.5 3C255.5 1.34315 254.157 0 252.5 0V6ZM253.5 0C251.843 0 250.5 1.34315 250.5 3C250.5 4.65685 251.843 6 253.5 6V0ZM254.5 6C256.157 6 257.5 4.65685 257.5 3C257.5 1.34315 256.157 0 254.5 0V6ZM255.5 0C253.843 0 252.5 1.34315 252.5 3C252.5 4.65685 253.843 6 255.5 6V0ZM256.5 6C258.157 6 259.5 4.65685 259.5 3C259.5 1.34315 258.157 0 256.5 0V6ZM257.5 0C255.843 0 254.5 1.34315 254.5 3C254.5 4.65685 255.843 6 257.5 6V0ZM258.5 6C260.157 6 261.5 4.65685 261.5 3C261.5 1.34315 260.157 0 258.5 0V6ZM259.5 0C257.843 0 256.5 1.34315 256.5 3C256.5 4.65685 257.843 6 259.5 6V0ZM260.5 6C262.157 6 263.5 4.65685 263.5 3C263.5 1.34315 262.157 0 260.5 0V6ZM261.5 0C259.843 0 258.5 1.34315 258.5 3C258.5 4.65685 259.843 6 261.5 6V0ZM262.5 6C264.157 6 265.5 4.65685 265.5 3C265.5 1.34315 264.157 0 262.5 0V6ZM263.5 0C261.843 0 260.5 1.34315 260.5 3C260.5 4.65685 261.843 6 263.5 6V0ZM264.5 6C266.157 6 267.5 4.65685 267.5 3C267.5 1.34315 266.157 0 264.5 0V6ZM265.5 0C263.843 0 262.5 1.34315 262.5 3C262.5 4.65685 263.843 6 265.5 6V0ZM266.5 6C268.157 6 269.5 4.65685 269.5 3C269.5 1.34315 268.157 0 266.5 0V6ZM267.5 0C265.843 0 264.5 1.34315 264.5 3C264.5 4.65685 265.843 6 267.5 6V0ZM268.5 6C270.157 6 271.5 4.65685 271.5 3C271.5 1.34315 270.157 0 268.5 0V6ZM269.5 0C267.843 0 266.5 1.34315 266.5 3C266.5 4.65685 267.843 6 269.5 6V0ZM270.5 6C272.157 6 273.5 4.65685 273.5 3C273.5 1.34315 272.157 0 270.5 0V6ZM271.5 0C269.843 0 268.5 1.34315 268.5 3C268.5 4.65685 269.843 6 271.5 6V0ZM272.5 6C274.157 6 275.5 4.65685 275.5 3C275.5 1.34315 274.157 0 272.5 0V6ZM273.5 0C271.843 0 270.5 1.34315 270.5 3C270.5 4.65685 271.843 6 273.5 6V0ZM274.5 6C276.157 6 277.5 4.65685 277.5 3C277.5 1.34315 276.157 0 274.5 0V6ZM275.5 0C273.843 0 272.5 1.34315 272.5 3C272.5 4.65685 273.843 6 275.5 6V0ZM276.5 6C278.157 6 279.5 4.65685 279.5 3C279.5 1.34315 278.157 0 276.5 0V6ZM277.5 0C275.843 0 274.5 1.34315 274.5 3C274.5 4.65685 275.843 6 277.5 6V0ZM278.5 6C280.157 6 281.5 4.65685 281.5 3C281.5 1.34315 280.157 0 278.5 0V6ZM279.5 0C277.843 0 276.5 1.34315 276.5 3C276.5 4.65685 277.843 6 279.5 6V0ZM280.5 6C282.157 6 283.5 4.65685 283.5 3C283.5 1.34315 282.157 0 280.5 0V6ZM281.5 0C279.843 0 278.5 1.34315 278.5 3C278.5 4.65685 279.843 6 281.5 6V0ZM282.5 6C284.157 6 285.5 4.65685 285.5 3C285.5 1.34315 284.157 0 282.5 0V6ZM283.5 0C281.843 0 280.5 1.34315 280.5 3C280.5 4.65685 281.843 6 283.5 6V0ZM284.5 6C286.157 6 287.5 4.65685 287.5 3C287.5 1.34315 286.157 0 284.5 0V6ZM285.5 0C283.843 0 282.5 1.34315 282.5 3C282.5 4.65685 283.843 6 285.5 6V0ZM286.5 6C288.157 6 289.5 4.65685 289.5 3C289.5 1.34315 288.157 0 286.5 0V6ZM287.5 0C285.843 0 284.5 1.34315 284.5 3C284.5 4.65685 285.843 6 287.5 6V0ZM288.5 6C290.157 6 291.5 4.65685 291.5 3C291.5 1.34315 290.157 0 288.5 0V6ZM289.5 0C287.843 0 286.5 1.34315 286.5 3C286.5 4.65685 287.843 6 289.5 6V0ZM290.5 6C292.157 6 293.5 4.65685 293.5 3C293.5 1.34315 292.157 0 290.5 0V6ZM291.5 0C289.843 0 288.5 1.34315 288.5 3C288.5 4.65685 289.843 6 291.5 6V0ZM292.5 6C294.157 6 295.5 4.65685 295.5 3C295.5 1.34315 294.157 0 292.5 0V6ZM293.5 0C291.843 0 290.5 1.34315 290.5 3C290.5 4.65685 291.843 6 293.5 6V0ZM294.5 6C296.157 6 297.5 4.65685 297.5 3C297.5 1.34315 296.157 0 294.5 0V6ZM295.5 0C293.843 0 292.5 1.34315 292.5 3C292.5 4.65685 293.843 6 295.5 6V0ZM296.5 6C298.157 6 299.5 4.65685 299.5 3C299.5 1.34315 298.157 0 296.5 0V6ZM297.5 0C295.843 0 294.5 1.34315 294.5 3C294.5 4.65685 295.843 6 297.5 6V0ZM298.5 6C300.157 6 301.5 4.65685 301.5 3C301.5 1.34315 300.157 0 298.5 0V6ZM299.5 0C297.843 0 296.5 1.34315 296.5 3C296.5 4.65685 297.843 6 299.5 6V0ZM300.5 6C302.157 6 303.5 4.65685 303.5 3C303.5 1.34315 302.157 0 300.5 0V6ZM301.5 0C299.843 0 298.5 1.34315 298.5 3C298.5 4.65685 299.843 6 301.5 6V0ZM302.5 6C304.157 6 305.5 4.65685 305.5 3C305.5 1.34315 304.157 0 302.5 0V6ZM303.5 0C301.843 0 300.5 1.34315 300.5 3C300.5 4.65685 301.843 6 303.5 6V0ZM304.5 6C306.157 6 307.5 4.65685 307.5 3C307.5 1.34315 306.157 0 304.5 0V6ZM305.5 0C303.843 0 302.5 1.34315 302.5 3C302.5 4.65685 303.843 6 305.5 6V0ZM306.5 6C308.157 6 309.5 4.65685 309.5 3C309.5 1.34315 308.157 0 306.5 0V6ZM307.5 0C305.843 0 304.5 1.34315 304.5 3C304.5 4.65685 305.843 6 307.5 6V0ZM308.5 6C310.157 6 311.5 4.65685 311.5 3C311.5 1.34315 310.157 0 308.5 0V6ZM309.5 0C307.843 0 306.5 1.34315 306.5 3C306.5 4.65685 307.843 6 309.5 6V0ZM310.5 6C312.157 6 313.5 4.65685 313.5 3C313.5 1.34315 312.157 0 310.5 0V6ZM311.5 0C309.843 0 308.5 1.34315 308.5 3C308.5 4.65685 309.843 6 311.5 6V0ZM312.5 6C314.157 6 315.5 4.65685 315.5 3C315.5 1.34315 314.157 0 312.5 0V6ZM313.5 0C311.843 0 310.5 1.34315 310.5 3C310.5 4.65685 311.843 6 313.5 6V0ZM314.5 6C316.157 6 317.5 4.65685 317.5 3C317.5 1.34315 316.157 0 314.5 0V6ZM315.5 0C313.843 0 312.5 1.34315 312.5 3C312.5 4.65685 313.843 6 315.5 6V0ZM316.5 6C318.157 6 319.5 4.65685 319.5 3C319.5 1.34315 318.157 0 316.5 0V6ZM317.5 0C315.843 0 314.5 1.34315 314.5 3C314.5 4.65685 315.843 6 317.5 6V0ZM318.5 6C320.157 6 321.5 4.65685 321.5 3C321.5 1.34315 320.157 0 318.5 0V6ZM319.5 0C317.843 0 316.5 1.34315 316.5 3C316.5 4.65685 317.843 6 319.5 6V0ZM320.5 6C322.157 6 323.5 4.65685 323.5 3C323.5 1.34315 322.157 0 320.5 0V6ZM321.5 0C319.843 0 318.5 1.34315 318.5 3C318.5 4.65685 319.843 6 321.5 6V0ZM322.5 6C324.157 6 325.5 4.65685 325.5 3C325.5 1.34315 324.157 0 322.5 0V6ZM323.5 0C321.843 0 320.5 1.34315 320.5 3C320.5 4.65685 321.843 6 323.5 6V0ZM324.5 6C326.157 6 327.5 4.65685 327.5 3C327.5 1.34315 326.157 0 324.5 0V6ZM325.5 0C323.843 0 322.5 1.34315 322.5 3C322.5 4.65685 323.843 6 325.5 6V0ZM326.5 6C328.157 6 329.5 4.65685 329.5 3C329.5 1.34315 328.157 0 326.5 0V6ZM327.5 0C325.843 0 324.5 1.34315 324.5 3C324.5 4.65685 325.843 6 327.5 6V0ZM328.5 6C330.157 6 331.5 4.65685 331.5 3C331.5 1.34315 330.157 0 328.5 0V6ZM329.5 0C327.843 0 326.5 1.34315 326.5 3C326.5 4.65685 327.843 6 329.5 6V0ZM330.5 6C332.157 6 333.5 4.65685 333.5 3C333.5 1.34315 332.157 0 330.5 0V6ZM331.5 0C329.843 0 328.5 1.34315 328.5 3C328.5 4.65685 329.843 6 331.5 6V0ZM332.5 6C334.157 6 335.5 4.65685 335.5 3C335.5 1.34315 334.157 0 332.5 0V6ZM333.5 0C331.843 0 330.5 1.34315 330.5 3C330.5 4.65685 331.843 6 333.5 6V0ZM334.5 6C336.157 6 337.5 4.65685 337.5 3C337.5 1.34315 336.157 0 334.5 0V6ZM335.5 0C333.843 0 332.5 1.34315 332.5 3C332.5 4.65685 333.843 6 335.5 6V0ZM336.5 6C338.157 6 339.5 4.65685 339.5 3C339.5 1.34315 338.157 0 336.5 0V6ZM337.5 0C335.843 0 334.5 1.34315 334.5 3C334.5 4.65685 335.843 6 337.5 6V0ZM338.5 6C340.157 6 341.5 4.65685 341.5 3C341.5 1.34315 340.157 0 338.5 0V6ZM339.5 0C337.843 0 336.5 1.34315 336.5 3C336.5 4.65685 337.843 6 339.5 6V0ZM340.5 6C342.157 6 343.5 4.65685 343.5 3C343.5 1.34315 342.157 0 340.5 0V6ZM341.5 0C339.843 0 338.5 1.34315 338.5 3C338.5 4.65685 339.843 6 341.5 6V0ZM342.5 6C344.157 6 345.5 4.65685 345.5 3C345.5 1.34315 344.157 0 342.5 0V6ZM343.5 0C341.843 0 340.5 1.34315 340.5 3C340.5 4.65685 341.843 6 343.5 6V0ZM344.5 6C346.157 6 347.5 4.65685 347.5 3C347.5 1.34315 346.157 0 344.5 0V6ZM345.5 0C343.843 0 342.5 1.34315 342.5 3C342.5 4.65685 343.843 6 345.5 6V0ZM346.5 6C348.157 6 349.5 4.65685 349.5 3C349.5 1.34315 348.157 0 346.5 0V6ZM347.5 0C345.843 0 344.5 1.34315 344.5 3C344.5 4.65685 345.843 6 347.5 6V0ZM348.5 6C350.157 6 351.5 4.65685 351.5 3C351.5 1.34315 350.157 0 348.5 0V6ZM349.5 0C347.843 0 346.5 1.34315 346.5 3C346.5 4.65685 347.843 6 349.5 6V0ZM350.5 6C352.157 6 353.5 4.65685 353.5 3C353.5 1.34315 352.157 0 350.5 0V6ZM351.5 0C349.843 0 348.5 1.34315 348.5 3C348.5 4.65685 349.843 6 351.5 6V0ZM352.5 6C354.157 6 355.5 4.65685 355.5 3C355.5 1.34315 354.157 0 352.5 0V6ZM353.5 0C351.843 0 350.5 1.34315 350.5 3C350.5 4.65685 351.843 6 353.5 6V0ZM354.5 6C356.157 6 357.5 4.65685 357.5 3C357.5 1.34315 356.157 0 354.5 0V6ZM355.5 0C353.843 0 352.5 1.34315 352.5 3C352.5 4.65685 353.843 6 355.5 6V0ZM356.5 6C358.157 6 359.5 4.65685 359.5 3C359.5 1.34315 358.157 0 356.5 0V6ZM357.5 0C355.843 0 354.5 1.34315 354.5 3C354.5 4.65685 355.843 6 357.5 6V0ZM358.5 6C360.157 6 361.5 4.65685 361.5 3C361.5 1.34315 360.157 0 358.5 0V6ZM359.5 0C357.843 0 356.5 1.34315 356.5 3C356.5 4.65685 357.843 6 359.5 6V0ZM360.5 6C362.157 6 363.5 4.65685 363.5 3C363.5 1.34315 362.157 0 360.5 0V6ZM361.5 0C359.843 0 358.5 1.34315 358.5 3C358.5 4.65685 359.843 6 361.5 6V0ZM362.5 6C364.157 6 365.5 4.65685 365.5 3C365.5 1.34315 364.157 0 362.5 0V6ZM363.5 0C361.843 0 360.5 1.34315 360.5 3C360.5 4.65685 361.843 6 363.5 6V0ZM364.5 6C366.157 6 367.5 4.65685 367.5 3C367.5 1.34315 366.157 0 364.5 0V6ZM365.5 0C363.843 0 362.5 1.34315 362.5 3C362.5 4.65685 363.843 6 365.5 6V0ZM366.5 6C368.157 6 369.5 4.65685 369.5 3C369.5 1.34315 368.157 0 366.5 0V6ZM367.5 0C365.843 0 364.5 1.34315 364.5 3C364.5 4.65685 365.843 6 367.5 6V0ZM368.5 6C370.157 6 371.5 4.65685 371.5 3C371.5 1.34315 370.157 0 368.5 0V6ZM369.5 0C367.843 0 366.5 1.34315 366.5 3C366.5 4.65685 367.843 6 369.5 6V0ZM370.5 6C372.157 6 373.5 4.65685 373.5 3C373.5 1.34315 372.157 0 370.5 0V6ZM371.5 0C369.843 0 368.5 1.34315 368.5 3C368.5 4.65685 369.843 6 371.5 6V0ZM372.5 6C374.157 6 375.5 4.65685 375.5 3C375.5 1.34315 374.157 0 372.5 0V6ZM373.5 0C371.843 0 370.5 1.34315 370.5 3C370.5 4.65685 371.843 6 373.5 6V0ZM374.5 6C376.157 6 377.5 4.65685 377.5 3C377.5 1.34315 376.157 0 374.5 0V6ZM375.5 0C373.843 0 372.5 1.34315 372.5 3C372.5 4.65685 373.843 6 375.5 6V0ZM376.5 6C378.157 6 379.5 4.65685 379.5 3C379.5 1.34315 378.157 0 376.5 0V6ZM377.5 0C375.843 0 374.5 1.34315 374.5 3C374.5 4.65685 375.843 6 377.5 6V0ZM378.5 6C380.157 6 381.5 4.65685 381.5 3C381.5 1.34315 380.157 0 378.5 0V6ZM379.5 0C377.843 0 376.5 1.34315 376.5 3C376.5 4.65685 377.843 6 379.5 6V0ZM380.5 6C382.157 6 383.5 4.65685 383.5 3C383.5 1.34315 382.157 0 380.5 0V6ZM381.5 0C379.843 0 378.5 1.34315 378.5 3C378.5 4.65685 379.843 6 381.5 6V0ZM382.5 6C384.157 6 385.5 4.65685 385.5 3C385.5 1.34315 384.157 0 382.5 0V6ZM383.5 0C381.843 0 380.5 1.34315 380.5 3C380.5 4.65685 381.843 6 383.5 6V0ZM384.5 6C386.157 6 387.5 4.65685 387.5 3C387.5 1.34315 386.157 0 384.5 0V6ZM385.5 0C383.843 0 382.5 1.34315 382.5 3C382.5 4.65685 383.843 6 385.5 6V0ZM386.5 6C388.157 6 389.5 4.65685 389.5 3C389.5 1.34315 388.157 0 386.5 0V6ZM387.5 0C385.843 0 384.5 1.34315 384.5 3C384.5 4.65685 385.843 6 387.5 6V0ZM388.5 6C390.157 6 391.5 4.65685 391.5 3C391.5 1.34315 390.157 0 388.5 0V6ZM389.5 0C387.843 0 386.5 1.34315 386.5 3C386.5 4.65685 387.843 6 389.5 6V0ZM390.5 6C392.157 6 393.5 4.65685 393.5 3C393.5 1.34315 392.157 0 390.5 0V6ZM391.5 0C389.843 0 388.5 1.34315 388.5 3C388.5 4.65685 389.843 6 391.5 6V0ZM392.5 6C394.157 6 395.5 4.65685 395.5 3C395.5 1.34315 394.157 0 392.5 0V6ZM393.5 0C391.843 0 390.5 1.34315 390.5 3C390.5 4.65685 391.843 6 393.5 6V0ZM394.5 6C396.157 6 397.5 4.65685 397.5 3C397.5 1.34315 396.157 0 394.5 0V6ZM395.5 0C393.843 0 392.5 1.34315 392.5 3C392.5 4.65685 393.843 6 395.5 6V0ZM396.5 6C398.157 6 399.5 4.65685 399.5 3C399.5 1.34315 398.157 0 396.5 0V6ZM397.5 0C395.843 0 394.5 1.34315 394.5 3C394.5 4.65685 395.843 6 397.5 6V0ZM398.5 6C400.157 6 401.5 4.65685 401.5 3C401.5 1.34315 400.157 0 398.5 0V6ZM399.5 0C397.843 0 396.5 1.34315 396.5 3C396.5 4.65685 397.843 6 399.5 6V0ZM400.5 6C402.157 6 403.5 4.65685 403.5 3C403.5 1.34315 402.157 0 400.5 0V6ZM401.5 0C399.843 0 398.5 1.34315 398.5 3C398.5 4.65685 399.843 6 401.5 6V0ZM402.5 6C404.157 6 405.5 4.65685 405.5 3C405.5 1.34315 404.157 0 402.5 0V6ZM403.5 0C401.843 0 400.5 1.34315 400.5 3C400.5 4.65685 401.843 6 403.5 6V0ZM404.5 6C406.157 6 407.5 4.65685 407.5 3C407.5 1.34315 406.157 0 404.5 0V6ZM405.5 0C403.843 0 402.5 1.34315 402.5 3C402.5 4.65685 403.843 6 405.5 6V0ZM406.5 6C408.157 6 409.5 4.65685 409.5 3C409.5 1.34315 408.157 0 406.5 0V6ZM407.5 0C405.843 0 404.5 1.34315 404.5 3C404.5 4.65685 405.843 6 407.5 6V0ZM408.5 6C410.157 6 411.5 4.65685 411.5 3C411.5 1.34315 410.157 0 408.5 0V6ZM409.5 0C407.843 0 406.5 1.34315 406.5 3C406.5 4.65685 407.843 6 409.5 6V0ZM148 6H148.5V0H148V6ZM149.5 6H150.5L150.5 0H149.5V6ZM151.5 6H152.5V0H151.5V6ZM153.5 6H154.5V0L153.5 0L153.5 6ZM155.5 6H156.5V0L155.5 0V6ZM157.5 6L158.5 6V0L157.5 0V6ZM159.5 6L160.5 6V0L159.5 0V6ZM161.5 6H162.5V0L161.5 0V6ZM163.5 6H164.5V0H163.5V6ZM165.5 6H166.5V0H165.5V6ZM167.5 6H168.5V0H167.5V6ZM169.5 6H170.5V0H169.5V6ZM171.5 6L172.5 6V0L171.5 0V6ZM173.5 6L174.5 6V0L173.5 0V6ZM175.5 6H176.5V0L175.5 0V6ZM177.5 6H178.5V0L177.5 0V6ZM179.5 6L180.5 6V0L179.5 0V6ZM181.5 6L182.5 6V0L181.5 0V6ZM183.5 6H184.5V0H183.5V6ZM185.5 6H186.5V0H185.5V6ZM187.5 6H188.5V0H187.5V6ZM189.5 6H190.5V0H189.5V6ZM191.5 6H192.5V0L191.5 0V6ZM193.5 6L194.5 6V0L193.5 0V6ZM195.5 6L196.5 6V0L195.5 0V6ZM197.5 6H198.5V0L197.5 0V6ZM199.5 6H200.5V0L199.5 0V6ZM201.5 6H202.5V0H201.5V6ZM203.5 6H204.5V0H203.5V6ZM205.5 6H206.5V0H205.5V6ZM207.5 6H208.5V0H207.5V6ZM209.5 6H210.5V0H209.5V6ZM211.5 6H212.5V0L211.5 0V6ZM213.5 6H214.5V0L213.5 0V6ZM215.5 6L216.5 6V0L215.5 0V6ZM217.5 6L218.5 6V0L217.5 0V6ZM219.5 6H220.5V0L219.5 0V6ZM221.5 6H222.5V0H221.5V6ZM223.5 6H224.5V0H223.5V6ZM225.5 6H226.5V0H225.5V6ZM227.5 6H228.5V0H227.5V6ZM229.5 6L230.5 6V0L229.5 0V6ZM231.5 6L232.5 6V0L231.5 0V6ZM233.5 6H234.5V0L233.5 0V6ZM235.5 6H236.5V0L235.5 0V6ZM237.5 6L238.5 6V0L237.5 0V6ZM239.5 6L240.5 6V0L239.5 0V6ZM241.5 6H242.5V0H241.5V6ZM243.5 6H244.5V0H243.5V6ZM245.5 6H246.5V0H245.5V6ZM247.5 6H248.5V0H247.5V6ZM249.5 6H250.5V0L249.5 0V6ZM251.5 6L252.5 6V0L251.5 0V6ZM253.5 6L254.5 6V0L253.5 0V6ZM255.5 6H256.5V0L255.5 0V6ZM257.5 6H258.5V0L257.5 0V6ZM259.5 6L260.5 6V0L259.5 0V6ZM261.5 6H262.5V0H261.5V6ZM263.5 6H264.5V0H263.5V6ZM265.5 6H266.5V0H265.5V6ZM267.5 6H268.5V0H267.5V6ZM269.5 6H270.5V0L269.5 0V6ZM271.5 6H272.5V0L271.5 0V6ZM273.5 6L274.5 6V0L273.5 0V6ZM275.5 6L276.5 6V0L275.5 0V6ZM277.5 6H278.5V0L277.5 0V6ZM279.5 6H280.5V0H279.5V6ZM281.5 6H282.5V0H281.5V6ZM283.5 6H284.5V0H283.5V6ZM285.5 6H286.5V0H285.5V6ZM287.5 6H288.5V0H287.5V6ZM289.5 6L290.5 6V0L289.5 0V6ZM291.5 6H292.5V0L291.5 0V6ZM293.5 6H294.5V0L293.5 0V6ZM295.5 6L296.5 6V0L295.5 0V6ZM297.5 6L298.5 6V0L297.5 0V6ZM299.5 6H300.5V0H299.5V6ZM301.5 6H302.5V0H301.5V6ZM303.5 6H304.5V0H303.5V6ZM305.5 6H306.5V0H305.5V6ZM307.5 6H308.5V0L307.5 0V6ZM309.5 6L310.5 6V0L309.5 0V6ZM311.5 6L312.5 6V0L311.5 0V6ZM313.5 6H314.5V0L313.5 0V6ZM315.5 6H316.5V0L315.5 0V6ZM317.5 6L318.5 6V0L317.5 0V6ZM319.5 6H320.5V0H319.5V6ZM321.5 6H322.5V0H321.5V6ZM323.5 6H324.5V0H323.5V6ZM325.5 6H326.5V0H325.5V6ZM327.5 6H328.5V0L327.5 0V6ZM329.5 6H330.5V0L329.5 0V6ZM331.5 6L332.5 6V0L331.5 0V6ZM333.5 6L334.5 6V0L333.5 0V6ZM335.5 6H336.5V0L335.5 0V6ZM337.5 6H338.5V0H337.5V6ZM339.5 6H340.5V0H339.5V6ZM341.5 6H342.5V0H341.5V6ZM343.5 6H344.5V0H343.5V6ZM345.5 6H346.5V0H345.5V6ZM347.5 6L348.5 6V0L347.5 0V6ZM349.5 6H350.5V0L349.5 0V6ZM351.5 6H352.5V0L351.5 0V6ZM353.5 6L354.5 6V0L353.5 0V6ZM355.5 6L356.5 6V0L355.5 0V6ZM357.5 6H358.5V0H357.5V6ZM359.5 6H360.5V0H359.5V6ZM361.5 6H362.5V0H361.5V6ZM363.5 6H364.5V0H363.5V6ZM365.5 6H366.5V0L365.5 0V6ZM367.5 6L368.5 6V0L367.5 0V6ZM369.5 6L370.5 6V0L369.5 0V6ZM371.5 6H372.5V0L371.5 0V6ZM373.5 6H374.5V0L373.5 0V6ZM375.5 6L376.5 6V0L375.5 0V6ZM377.5 6H378.5V0H377.5V6ZM379.5 6H380.5V0H379.5V6ZM381.5 6H382.5V0H381.5V6ZM383.5 6H384.5V0H383.5V6ZM385.5 6H386.5V0L385.5 0V6ZM387.5 6H388.5V0L387.5 0V6ZM389.5 6L390.5 6V0L389.5 0V6ZM391.5 6L392.5 6V0L391.5 0V6ZM393.5 6H394.5V0L393.5 0V6ZM395.5 6H396.5V0H395.5V6ZM397.5 6H398.5V0H397.5V6ZM399.5 6H400.5V0H399.5V6ZM401.5 6H402.5V0H401.5V6ZM403.5 6H404.5V0H403.5V6ZM405.5 6L406.5 6V0L405.5 0V6ZM407.5 6H408.5V0L407.5 0V6ZM409.5 6H410V0L409.5 0V6Z" fill="#FFF500"/>
</svg>
