<svg width="40" height="40" viewBox="0 0 40 40" fill="none" xmlns="http://www.w3.org/2000/svg">
<circle cx="20" cy="20" r="18.3333" fill="#FFF500"/>
<path d="M20 36.6667C29.205 36.6667 36.6667 29.205 36.6667 20C36.6667 10.795 29.205 3.33334 20 3.33334C10.795 3.33334 3.33334 10.795 3.33334 20C3.33334 29.205 10.795 36.6667 20 36.6667Z" stroke="#3793FF" stroke-width="4" stroke-linejoin="round"/>
<path d="M25.8333 15V15.8333" stroke="#3793FF" stroke-width="4" stroke-linecap="round" stroke-linejoin="round"/>
<path d="M14.1667 15V15.8333" stroke="#3793FF" stroke-width="4" stroke-linecap="round" stroke-linejoin="round"/>
<path d="M21.6667 23.3333H18.3333C16.4924 23.3333 15 24.8257 15 26.6666C15 28.5076 16.4924 30 18.3333 30H21.6667C23.5076 30 25 28.5076 25 26.6666C25 24.8257 23.5076 23.3333 21.6667 23.3333Z" stroke="#3793FF" stroke-width="4" stroke-linecap="round" stroke-linejoin="round"/>
</svg>
