<svg width="17" height="18" viewBox="0 0 17 18" fill="none" xmlns="http://www.w3.org/2000/svg">
<rect x="3" y="1.5" width="1" height="12" transform="rotate(-90 3 1.5)" fill="black"/>
<rect x="3" y="16.5" width="1" height="12" transform="rotate(-90 3 16.5)" fill="black"/>
<rect x="1" y="2.5" width="1" height="12" fill="black"/>
<rect x="16" y="2.5" width="1" height="12" fill="black"/>
<rect x="13" y="4.5" width="1" height="8" fill="black"/>
<rect x="11" y="5.5" width="1" height="6" fill="black"/>
<rect x="10" y="6.5" width="1" height="1" fill="black"/>
<rect x="9" y="7.5" width="1" height="1" fill="black"/>
<rect x="8" y="8.5" width="3" height="1" fill="black"/>
<rect x="7" y="9.5" width="1" height="1" fill="black"/>
<rect x="6" y="10.5" width="1" height="1" fill="black"/>
<rect x="4" y="4.5" width="1" height="8" fill="black"/>
<rect x="13" y="12.5" width="1" height="8" transform="rotate(90 13 12.5)" fill="black"/>
<rect x="13" y="3.5" width="1" height="8" transform="rotate(90 13 3.5)" fill="black"/>
<rect x="15" y="1.5" width="1" height="1" fill="black"/>
<rect x="2" y="1.5" width="1" height="1" fill="black"/>
<rect x="3" y="2.5" width="1" height="1" fill="black"/>
<rect x="14" y="2.5" width="1" height="1" fill="black"/>
<rect x="14" y="13.5" width="1" height="1" fill="black"/>
<rect x="3" y="13.5" width="1" height="1" fill="black"/>
<rect x="2" y="14.5" width="1" height="1" fill="black"/>
<rect x="15" y="14.5" width="1" height="1" fill="black"/>
</svg>
