<svg width="48" height="48" viewBox="0 0 48 48" fill="none" xmlns="http://www.w3.org/2000/svg">
<circle cx="24" cy="24" r="22" fill="#FFF500"/>
<path d="M24 44C35.046 44 44 35.046 44 24C44 12.954 35.046 4 24 4C12.954 4 4 12.954 4 24C4 35.046 12.954 44 24 44Z" stroke="#3793FF" stroke-width="4" stroke-linejoin="round"/>
<path d="M31 18V19" stroke="#3793FF" stroke-width="4" stroke-linecap="round" stroke-linejoin="round"/>
<path d="M17 18V19" stroke="#3793FF" stroke-width="4" stroke-linecap="round" stroke-linejoin="round"/>
<path d="M26 28H22C19.7909 28 18 29.7909 18 32C18 34.2091 19.7909 36 22 36H26C28.2091 36 30 34.2091 30 32C30 29.7909 28.2091 28 26 28Z" stroke="#3793FF" stroke-width="4" stroke-linecap="round" stroke-linejoin="round"/>
</svg>
