<svg width="17" height="18" viewBox="0 0 17 18" fill="none" xmlns="http://www.w3.org/2000/svg">
<rect x="14" y="2.5" width="1" height="15" fill="black"/>
<rect x="1" y="2.5" width="1" height="15" fill="black"/>
<rect x="15" y="16.5" width="1" height="13" transform="rotate(90 15 16.5)" fill="black"/>
<rect x="14" y="14.5" width="1" height="9" transform="rotate(90 14 14.5)" fill="black"/>
<rect x="6" y="11.5" width="1" height="4" transform="rotate(90 6 11.5)" fill="black"/>
<rect x="6" y="12.5" width="3" height="1" transform="rotate(90 6 12.5)" fill="black"/>
<rect x="5" y="13.5" width="1" height="1" transform="rotate(90 5 13.5)" fill="black"/>
<rect x="4" y="12.5" width="1" height="1" transform="rotate(90 4 12.5)" fill="black"/>
<rect x="4" y="3.5" width="1" height="1" transform="rotate(90 4 3.5)" fill="black"/>
<rect x="4" y="1.5" width="3" height="1" transform="rotate(90 4 1.5)" fill="black"/>
<rect x="14" y="2.5" width="1" height="12" transform="rotate(90 14 2.5)" fill="black"/>
<rect x="7" y="1.5" width="3" height="1" transform="rotate(90 7 1.5)" fill="black"/>
<rect x="10" y="1.5" width="3" height="1" transform="rotate(90 10 1.5)" fill="black"/>
<rect x="13" y="1.5" width="3" height="1" transform="rotate(90 13 1.5)" fill="black"/>
</svg>
