<svg width="56" height="56" viewBox="0 0 56 56" fill="none" xmlns="http://www.w3.org/2000/svg">
<g filter="url(#filter0_d_78:30387)">
<circle cx="28" cy="24" r="22" fill="#FFF500"/>
<path d="M28 44C39.046 44 48 35.046 48 24C48 12.954 39.046 4 28 4C16.954 4 8 12.954 8 24C8 35.046 16.954 44 28 44Z" stroke="#FFF500" stroke-width="4" stroke-linejoin="round"/>
<path d="M35 18V19" stroke="#FFF500" stroke-width="4" stroke-linecap="round" stroke-linejoin="round"/>
<path d="M21 18V19" stroke="#FFF500" stroke-width="4" stroke-linecap="round" stroke-linejoin="round"/>
<path d="M30 28H26C23.7909 28 22 29.7909 22 32C22 34.2091 23.7909 36 26 36H30C32.2091 36 34 34.2091 34 32C34 29.7909 32.2091 28 30 28Z" stroke="#FFF500" stroke-width="4" stroke-linecap="round" stroke-linejoin="round"/>
</g>
<defs>
<filter id="filter0_d_78:30387" x="0" y="0" width="56" height="56" filterUnits="userSpaceOnUse" color-interpolation-filters="sRGB">
<feFlood flood-opacity="0" result="BackgroundImageFix"/>
<feColorMatrix in="SourceAlpha" type="matrix" values="0 0 0 0 0 0 0 0 0 0 0 0 0 0 0 0 0 0 127 0" result="hardAlpha"/>
<feOffset dy="4"/>
<feGaussianBlur stdDeviation="2"/>
<feComposite in2="hardAlpha" operator="out"/>
<feColorMatrix type="matrix" values="0 0 0 0 0 0 0 0 0 0 0 0 0 0 0 0 0 0 0.25 0"/>
<feBlend mode="normal" in2="BackgroundImageFix" result="effect1_dropShadow_78:30387"/>
<feBlend mode="normal" in="SourceGraphic" in2="effect1_dropShadow_78:30387" result="shape"/>
</filter>
</defs>
</svg>
